<svg xmlns="http://www.w3.org/2000/svg" width="512" height="512"><path d="M509.133 187.493c-2.003-4.547-5.288-8.994-8.196-12.601-6.251-7.741-13.242-14.916-20.271-21.395-7.484-6.907-14.292-13.359-19.865-21.713-5.476-8.2-9.437-17.892-14.541-27.133-5.034-9.097-10.295-17.659-16.288-25.293-6.004-7.659-13.534-14.258-21.396-20.277-3.88-2.964-8.308-5.948-13.01-7.778-4.988-1.948-11.404-2.563-18.02-2.873-13.169-.621-26.565-.512-40.959-.713h-53.559c-35.149.768-70.645.383-103.423 3.688-16.06 1.62-31.936 4.007-46.997 6.552-15.301 2.58-29.557 6.03-42.193 11.366-12.461 5.261-23.845 12.151-33.791 19.764-5.096 3.898-9.892 8.22-13.616 13.206-2.014 2.7-3.788 5.372-4.713 8.712-.95 3.449-.604 7.724-1.226 12.079-1.136 8.007-3.275 14.31-7.477 19.354-2.013 2.416-4.301 4.621-6.863 6.551-2.489 1.885-5.133 3.551-7.466 5.839-9.032 8.838-15.85 19.646-15.163 38.294.019.119-.018.185-.101.211v18.189999999999998c.211 9.379 2.836 16.49 5.939 23.178 3.367 7.24 7.173 13.892 10.651 21.094 3.632 7.522 5.17 15.439 5.737 26.007.521 9.927.2 20.643.2 31.331 0 20.696-.312 41.661-1.536 61.95-.624 10.421-1.465 19.584-1.94 29.804-.266 5.474.146 10.579 1.528 14.34 1.391 3.74 3.431 6.943 5.535 10.337 3.953 6.389 9.013 12.584 14.642 17.106 2.891 2.313 6.239 4.271 9.625 6.238 3.332 1.939 6.826 3.763 10.441 5.427 7.466 3.451 15.849 4.988 26.316 5.428 10.066.431 20.69.514 31.232.514 10.788 0 21.32.073 31.332-.403 10.13-.484 19.39-1.729 28.166-3.586 17.532-3.718 33.737-8.329 51.501-11.98 4.457-.924 8.959-1.939 13.415-2.463 2.36-.273 4.438-.63 6.562-1.326 2.004-.666 3.961-1.4 5.829-2.15 30.054-12.024 57.028-27.633 86.942-40.042 15.1-6.261 28.678-13.552 42.292-21.19 6.746-3.789 13.417-7.827 19.758-11.989 6.286-4.117 12.078-8.901 17.715-14.028 2.744-2.488 5.573-5.052 8.198-7.679 2.673-2.67 5.52-5.214 7.98-7.888 5.204-5.636 9.964-11.16 14.138-17.604 4.221-6.525 7.092-13.764 10.953-20.793 4.794-8.729 10.248-16.26 16.591-23.042 1.264-1.354 2.835-2.516 4.092-3.889 7.685-8.392 14.705-16.671 21.201-26.416 2.074-3.121 4.152-6.636 5.324-10.552 1.271-4.264 1.382-8.95 1.639-14.23v-17.615c-.126-6.748-.711-13.033-2.864-17.919zm-16.588 57.549c-3.67 5.864-7.933 11.528-13.315 15.354-4.209 3.002-9.516 4.594-14.339 7.176-1.408.75-3.145 1.656-3.786 3.273 3.521.742 6.229-1.609 9.525-1.436.044 1.537-1.3 2.505-2.15 3.485-2.683 3.064-5.528 6.112-7.987 9.517-3.253 4.502-6.104 9.36-8.805 14.439-2.771 5.208-4.972 10.552-7.788 15.466-8.417 14.695-20.817 25.521-33.069 36.658-8.152 7.402-17.809 13.333-27.542 18.942-9.886 5.692-19.904 11.1-30.218 16.278-10.285 5.179-21.239 9.314-32.148 14.338-21.239 9.773-41.607 20.855-63.387 29.594-5.528 2.225-11.238 4.73-17.615 5.638-6.388.903-12.857 2.469-19.254 3.988-12.691 3.029-25.025 6.258-37.17 9.315-12.336 3.11-25.229 5.912-39.32 7.172-14.433 1.281-29.503 1.604-45.06 1.228-7.751-.182-14.53-1.062-20.479-2.765-5.947-1.709-11.283-4.035-16.59-6.661-5.226-2.58-10.13-5.381-14.129-9.113-6.094-5.683-11.018-11.969-15.153-19.757-1.364-2.572-2.398-5.581-2.764-8.812-.77-6.681.494-14.448 1.125-21.705 2.507-28.872 2.05-59.635 2.05-90.729 0-7.88.083-15.575-.312-22.932-1.152-21.742-12.985-33.548-19.145-50.585-3.979-11.001-3.796-29.239-.924-41.473.778-3.304 1.685-5.92 3.376-8.3 3.112-4.373 7.147-8.418 11.266-11.978 6.157-5.334 12.582-10.843 16.388-18.43 2.508-5.014 4.091-11.091 4.403-18.842.284-7.11 2.646-13.032 6.139-17.103 3.543-4.136 8.237-7.431 12.703-10.55 4.603-3.214 9.59-5.958 14.541-8.704 5.043-2.799 10.184-5.407 15.565-7.677 5.637-2.379 10.916-4.566 17.505-5.736 13.141-2.334 29.245-1.703 44.244-1.227 7.54.237 15.188.22 22.932.102 15.062-.229 29.136-1.941 43.008-3.478 14.047-1.564 28.037-3.067 42.809-3.688 31.091-1.318 54.482 7.247 75.364 16.992 16.123 7.53 30.809 15.417 44.437 25.292 2.239 1.621 4.501 3.258 6.863 4.814 2.313 1.527 4.667 3.357 7.575 3.999.24-1.309-1.099-2.086-1.839-2.764-2.563-2.359-5.527-4.5-8.4-6.56-11.574-8.301-23.901-16.042-36.66-23.244-8.546-4.82-17.859-8.72-27.754-12.18-10.002-3.514-20.287-6.342-31.942-7.887-12.354-1.646-25.604-1.474-38.096-.824-6.314.34-12.407.834-18.429 1.54-5.966.705-11.804 1.646-17.716 2.148-12.005 1.036-24.615 1.848-37.371 2.563-6.066.338-12.729.714-19.253.714-3.212 0-6.588.257-9.828.11-3.011-.146-6.159.082-8.712-1.234.366-1.127 1.154-1.219 1.949-1.538 4.329-1.729 10.414-2.314 15.868-2.967 16.854-1.993 34.8-3.164 52.534-3.996 14.979-.697 30.307-1.428 45.671-1.428 3.095 0 6.251.038 9.313-.102 6.251-.292 12.5.073 18.644-.209 4.941-.229 11.409-.102 16.793-.102 5.501 0 11.162-.137 16.388.102 11.174.521 22.211-.238 32.656.209 11.019.457 21.614-.129 30.729 2.15 4.32 1.071 7.87 3.029 11.365 5.116 3.44 2.059 6.554 4.646 9.315 7.063 5.938 5.198 11.341 10.515 16.077 16.793 4.621 6.121 8.691 13.147 12.591 20.277 5.62 10.286 10.571 22.256 17.002 32.356.979 1.537 2.014 3.24 3.378 4.814.916 1.063 3.896 3.488 3.374 4.914-.447 1.252-3.941 1.236-5.938 1.336-6.552.32-14.633.219-20.781.814 1.977.813 4.163.705 6.239.924 10.477 1.105 22.145 1.92 30.616 5.225 3.187 1.234 5.821 3.658 8.3 6.038 4.813 4.621 9.105 9.773 13.307 15.364 4.125 5.463 8.314 11.276 10.457 18.221 5.252 17.065-2.662 34.378-9.216 44.865zm-4.914-45.059c.12 8.245.12 15.346-.623 23.041-.695 7.294-1.39 14.514-4.19 19.658-2.733 5.021-6.88 9.005-12.188 11.674-2.572 1.302-5.399 2.472-8.299 3.589-2.854 1.098-5.901 2.525-9.216 2.452.082-1.218 1.431-1.639 2.261-2.15 2.729-1.666 5.71-3.349 8.704-4.914 4.007-2.087 8.069-4.091 11.264-6.962 6.699-6.021 8.174-15.22 9.114-27.232.441-5.637.514-11.567.514-17.515 0-5.837-.613-11.465-2.46-15.768-2.638-6.129-6.844-11.375-11.164-16.178-1.281-1.436-3.215-3.678-4.914-4.4-2.771-1.189-6.726-1.445-10.341-1.949-9.846-1.383-20.569-1.785-30.818-2.974-.786-.092-1.748-.057-2.36-.615 10.504-.547 22.947-.703 33.181.313 3.754.365 7.285.742 10.037 1.939 2.757 1.207 4.786 2.992 6.963 4.925 4.33 3.832 7.842 8.143 10.644 13.203 1.445 2.608 2.572 5.427 3.177 8.702.595 3.283.65 7.109.714 11.161zm-20.69-4.612c3.66 7.458 6.142 17.359 3.788 29.292-1.354 6.89-3.891 13.544-7.678 18.529-1.208 1.602-2.818 3.752-5.018 3.688-2.13-.057-3.42-1.736-3.786-2.965-.521-1.711-.027-4.539.503-6.661 1.521-6.013 4.102-11.025 5.537-17.205 2.168-9.37-2.085-16.719-5.938-22.83-3.951-6.261-8.255-12.032-15.877-14.44-3.652-1.152-8.335-1.984-12.901-2.251-5.271-.313-11.23-.229-15.255 1.437-1.027.419-1.793 1.115-2.766 1.738-2.682 1.704-5.829 3.01-9.013 4.4-8.255 3.597-17.238 6.817-26.932 8.915-5.318 1.143-10.112 1.527-16.179 1.738-18.775.648-29.456-5.848-39.119-14.64-1.291-1.182-2.911-2.664-4.402-4.613-1.062-1.391-2.946-3.75-2.662-6.249.284-2.489 3.643-3.688 5.629-3.479 4.685.494 7.723 5.227 10.651 7.478 3.575 2.744 7.786 4.895 11.572 6.551 4.218 1.838 9.022 3.495 13.93 4.2 5.287.759 11.135-.33 15.865-1.537 9.773-2.498 18.282-6.005 26.518-9.73 4.237-1.911 8.092-4.106 12.904-5.224 4.896-1.135 10.202-1.545 16.389-1.84-.02 0 .036-.102.102-.102 12.509-.594 21.569 1.639 28.467 6.553 6.777 4.817 11.827 11.425 15.671 19.247zm-66.35 149.304c1.491-.073-.229 1.346-.724 1.739-4.624 3.698-10.469 6.644-15.668 9.524-6.305 3.506-12.709 6.699-18.942 9.829-12.854 6.469-26.014 12.729-39.419 18.229-13.45 5.517-27.901 10.33-43.109 14.54-7.586 2.104-15.527 3.613-23.454 5.324-23.71 5.117-47.564 9.581-74.439 11.98-8.877.795-18.063 1.254-27.242 1.537-9.316.293-18.677.412-27.956.823-9.663.421-19.115.622-28.468.202-4.611-.209-8.84-.687-12.692-1.736-3.596-.988-6.926-2.603-10.039-4.303-2.929-1.607-6.012-3.543-9.014-5.428-2.954-1.865-5.975-3.695-8.702-5.635-2.781-1.978-5.691-4.164-6.45-7.989-.788-3.943-.11-8.722.311-13.415.979 4.41.933 8.511 2.553 11.678 1.564 3.055 4.155 5.188 6.965 7.164 5.479 3.863 11.686 7.448 17.615 10.751 3.147 1.758 6.276 3.451 9.727 4.512 3.568 1.101 7.549 1.628 12.189 1.941 8.521.574 18.174.236 27.644-.205 18.375-.85 36.64-.988 53.963-2.661 17.459-1.683 33.647-4.226 49.258-7.374 15.913-3.193 31.351-6.407 46.798-9.93 15.352-3.506 29.18-8.712 42.291-14.341 13.005-5.572 26.026-11.693 38.599-18.018 10.765-5.404 21.378-11.593 32.871-16.689 1.691-.751 4.061-1.986 5.534-2.049zm-1.026-186.364c.476 1.527-1.887 2.826-2.765 3.275-3.816 1.912-10.093 2.874-15.466 1.84 2.489-1.438 6.829-1.025 9.114-2.664-.539-1.088-1.922-1.398-2.974-1.838-3.202-1.363-7.164-2.729-10.238-4.302l-.203-.1c.046-.094.092-.184.203-.21 5.975.337 12.077 1.134 17.925 2.361 1.154.238 4.156.851 4.404 1.638zm-16.49-35.532c1.693 1.94 3.688 3.972 4.302 6.552-1.418-.092-2.626-1.07-3.688-1.848-3.083-2.27-6.003-5.088-8.701-7.777-10.991-10.99-24.689-19.053-40.446-25.604-5.16-2.15-10.53-4.091-16.28-5.728-5.736-1.639-11.793-2.809-18.229-3.79-12.707-1.959-26.331-3.439-41.066-2.771-13.637.621-25.724 3.495-38.91 5.124-26.206 3.23-57.118 2.26-83.655-.312-6.908-.669-13.735-1.592-20.69-1.326-3.577.137-6.405.822-8.803 2.149-2.288 1.264-4.373 3.459-7.577 2.965-.357-1.336.54-2.021 1.126-2.663 1.729-1.875 4.42-3.787 7.265-4.602 5.354-1.538 13.616-.889 19.464-.413 6.341.512 12.684 1.199 18.941 1.738 12.51 1.09 25.987 1.949 39.32 1.949 13.699 0 26.006-1.016 38.497-2.865 8.904-1.317 17.315-3.413 26.83-4.2 1.594-.137 3.176-.229 4.813-.311 15.951-.813 32.487.797 46.597 2.873 6.637.971 12.794 1.932 18.53 3.578 5.662 1.629 10.942 3.807 16.18 5.939 15.755 6.435 29.356 14.87 40.857 25.604 1.855 1.73 3.63 3.782 5.323 5.739zm-7.477 44.748c3.496-1.805 9.856.311 7.174 4.702-2.718-1.245-5.398-2.516-7.174-4.702zm-2.966 176.432c1.163.01-.265 1.025-.722 1.328-4.063 2.728-8.839 5.134-13.308 7.476-26.288 13.782-53.466 25.731-83.149 36.146-11.778 4.138-23.894 7.833-38.299 9.427-7.175.785-14.631 1.105-22.217 1.637-14.743 1.033-30.171 1.611-45.471 2.251-23.023.971-48.243 1.209-65.025-5.736-9.764-4.048-18.265-9.464-24.469-17.203-.88-1.09-2.004-2.3-2.049-3.892 1.572-.311 2.826.906 3.889 1.638 3.45 2.381 6.313 5.371 9.626 7.888 8.601 6.507 19.976 11.739 33.079 13.816 13.478 2.144 30.573.743 45.048.314 7.458-.222 14.916-.632 22.429-1.026 15.044-.785 29.951-1.207 44.134-2.662 7.102-.723 13.745-1.774 19.968-3.477 6.059-1.656 11.805-3.79 17.615-5.839 23.36-8.265 44.408-17.569 66.049-27.655 8.995-4.189 18.35-8.902 28.158-12.791 1.475-.584 3.398-1.654 4.714-1.64zm-3.376-216.265c1.31 1.52 3.367 3.266 2.966 5.625-1.312.111-2.373-.85-3.276-1.537-2.81-2.104-5.262-4.739-7.788-7.165-3.375-3.248-7.184-6.084-11.054-8.911-3.915-2.846-7.959-5.456-12.49-7.478-4.521-2.012-9.351-3.688-14.64-5.316-15.125-4.667-34.499-5.919-54.384-5.123-3.25.129-6.598.201-9.828.201-3.121 0-6.305.221-9.114-.814.75-.968 2.213-1.207 3.484-1.436 4.026-.724 8.85-.706 13.518-.917 5.508-.255 12.619-.129 18.229.102 5.965.238 11.705.338 17.204.814 11.192.971 20.846 3.221 29.693 6.351 13.39 4.74 23.848 11.95 33.07 20.992 1.455 1.418 3.003 2.982 4.41 4.612zm-46.082 93.793c2.382.438 4.869.969 3.579 3.586-3.295.074-6.882-.345-10.644-.611-7.094-.514-14.521-.813-21.605-1.648-5.204-.604-10.906-.969-12.599-5.115-1.045-2.562-.211-7.694 2.249-7.888 3.072-.238.704 3.295.724 4.614.044 4.895 6.854 4.949 11.776 5.424 8.631.834 18.1.084 26.52 1.638zm46.384-63.176c-.73-2.855-2.827-5.655-4.811-7.786-6.215-6.689-13.362-11.987-22.733-15.156-6.54-2.212-13.522-3.467-20.89-4.4-9.178-1.163-20.415-1.436-29.692-.611-11.53 1.004-19.52 4.865-27.856 9.415-6.562 3.588-13.507 7.87-18.842 13.003-1.804 1.738-3.907 3.715-4.712 5.938-.934 2.617-.741 7.174.513 9.524.916 1.703 2.426 3.05 3.891 4.402 4.356 4.016 9.333 7.249 14.539 10.341 16.015-7.843 30.537-15.903 52.334-18.119 10.544-1.07 22.575.201 32.256 2.15 4.476.896 10.531 2.25 15.768 1.637 2.404-.282 4.582-1.234 6.351-2.46 2.449-1.701 4.872-4.025 3.884-7.878zm-72.802-3.486c-.549 1.291-3.121 1.291-5.022 1.438-5.959.439-10.522 2.717-14.542 4.712-4.109 2.031-8.52 4.191-13.304 5.939-1.593.577-3.523 1.228-5.325 1.017-2.19-.247-4.614-2.206-4.814-4.301-.202-2.005 1.392-3.614 2.662-4.806 7.789-7.3 17.653-12.269 29.185-15.674 1.976-.576 4.135-1.135 6.248-1.328.76-.072 2.032-.154 2.553.413.531.56.388 2.004.513 3.275.247 2.333.788 4.072 1.438 6.14.287.935.802 2.241.408 3.175zm47.308-.201c-.949-.542-2.891-1.375-2.764-2.564.094-.923 1.326-1.006 2.453-1.125 6.075-.64 10.524 3.368 12.492 7.578-4.264-.989-8.594-1.85-12.181-3.889zm-66.461 65.125c1.018 2.636 1.026 6.268 1.026 10.341 0 5.381-.267 9.59-2.354 12.491-1.534 2.141-5.162 4.686-8.198 6.25-1.052.539-2.553 1.252-3.579 1.125-1.362-.174-2.132-1.518-2.662-2.353-.866-1.354-1.782-3.303-1.124-5.637.797-2.836 3.13-3.726 4.813-5.939 1.61-2.124 3.634-6.424 2.051-10.239-1.409-3.377-7.438-4.249-11.577-5.016-2.168-.4-4.328-.376-6.962-1.334-1.802-.66-3.881-2.242-3.79-4.402.093-2.131 2.472-3.093 4.199-3.689 2.271-.776 4.557-.904 6.963-1.022 9.306-.44 18.505 2.406 21.194 9.424zm-16.379-119.708c.285 1.555-.868 2.746-1.637 3.787-2.38 3.203-4.959 5.976-6.864 9.839-1.866 3.777-3.109 7.714-4.1 12.691-.274 1.409-.376 3.039-1.326 4.199-.726-6.835-.339-13.606 2.148-19.043 1.153-2.533 2.646-4.63 4.404-6.562 1.674-1.83 4.125-4.373 6.451-5.015.283-.08.57-.125.924.104zm-16.902 129.336c5.876.474 9.454 1.189 9.016 7.777-.229 3.457-2.078 7.219-4.814 7.165-2.388-.038-2.617-2.168-3.99-2.965-1.518-.879-4.593-1.271-7.174-1.437-5.765-.367-10.562.512-16.581-.101-2.534-.257-5.345-.907-5.637-2.866-.503-3.402 4.776-5.271 7.275-6.04 3.896-1.217 7.576-1.545 11.769-1.748 3.273-.152 6.907-.051 10.136.215zm-33.583 155.644c-8.564.866-18.026.612-27.443.612-9.379 0-18.805.209-27.341-.612 17.503-.917 37.252-.815 54.784 0zm-30.417-279.756c1.181.328 4.933 1.333 4.512 2.863-.468 1.664-5.417.483-6.552.209-10.89-2.627-22.337-3.604-34.92-4.51-4.868-.351-10.358-.79-14.952 0-4.064.703-7.971 2.553-11.365 4.4-6.882 3.76-13.488 7.687-17.414 14.138-1.491 2.461-2.324 5.472-3.689 8.19-.348.713-.677 1.865-1.738 1.949-.842-11.632 4.968-17.307 12.188-22.227 3.358-2.289 7.157-4.191 11.265-6.142 4.283-2.031 8.675-3.616 13.928-3.889 5.079-.273 9.992.229 14.74.613 9.427.76 18.402 1.674 27.545 3.174 2.161.353 3.936.527 6.452 1.232zm-5.015 13.212c4.109 5.747 4.374 18.742 2.764 27.644-.668-1.197-.449-2.745-.514-4.199-.328-7.257-1.316-14.028-4.3-19.252-.476-.842-1.153-1.51-1.739-2.965-.375-.941-1.609-4.603 1.228-3.487.859.338 1.995 1.464 2.561 2.259zm-7.163 97.07c1.062-.483 2.333-.557 3.377-1.025 2.718-1.217 5.097-3.22 6.963-5.015 2.131-2.059 3.944-4.125 5.016-6.963 1.135-2.992 1.354-6.589 1.437-10.552.073-3.777-.22-7.875.925-11.054 1.592-4.445 7.008-5.754 10.952-8.088 1.234-.73 2.553-1.582 3.688-2.561.879-.77 2.653-2.216 2.562-3.688-.092-1.445-2.278-2.361-3.583-2.764-1.729-.529-3.726-.833-5.427-.924-4.476-.238-7.843-.741-10.753-1.939-6.113-2.525-10.139-6.927-15.364-10.038-5.335-3.186-11.081-5.51-18.74-6.663-9.847-1.474-24.213-2.389-34.195-.502-6.066 1.144-10.322 3.853-14.13 7.466-1.475 1.391-4.338 3.853-4.3 6.562.027 2.588 2.589 4.804 4.3 5.729 2.196 1.197 5.901 1.783 8.703 2.25 9.36 1.572 20.075 2.142 29.693 3.286 9.599 1.135 19.171 2.773 26.931 5.939 2.563 1.043 5.627 2.479 6.763 4.299 1.591 2.554.906 7.907.512 11.778-.394 3.833-1.198 6.798-2.771 9.003-1.694 2.389-4.559 4.027-7.468 5.838-8.456 5.234-16.097 10.388-23.253 16.893-2.149 1.966-4.4 4.621-6.752 6.563-2.38 1.948-5.345 4.126-8.813 4.601-5.593.771-9.93 3.605-13.416 6.662-1.116.979-2.755 2.032-2.764 3.79 2.771-.139 5.143-1.576 7.375-2.764 4.833-2.582 8.895-4.355 14.34-6.35 2.407-.889 5.729-2.39 8.392-1.64 2.754.77 3.439 5.28 6.452 5.326 1.948.028 2.682-2.188 4.511-2.26 2.37-.084 4.687 2.168 6.342 3.586 5.462 4.657 9.817 9.855 15.162 14.741 3.76 3.45 7.394 5.691 14.54 5.226 6.223-.403 13.342-2.39 15.255-7.578 1.271-3.458-1.748-7.166-4.302-7.375-3.403-.275-5.289 3.229-8.089 3.896-3.808.908-7.843-1.51-10.138-3.174-4.833-3.523-8.502-7.648-11.879-12.288-1.637-2.252-3.696-5.099-3.989-8.09-.407-4.017 3.225-8.894 5.935-10.139zm-38.196-60.21c-3.532.156-7.422.111-10.45-.413 1.83-1.051 4.629-.896 7.274-1.023 3.285-.145 6.781-.037 9.215.823-1.674.787-3.871.523-6.039.613zm-1.537 41.682c.128 4.31-3.68 7.185-6.452 8.804-4.839 2.818-11.759 3.732-19.354 3.988-5.05.174-9.81-.201-12.089-2.762-1.581-1.775-2.085-4.302-3.376-6.352-1.234-1.968-2.589-3.743-4.712-4.915-3.167-1.738-7.979-2.142-12.391-1.939-4.721.211-8.335.842-11.979 2.454-1.701.759-3.34 1.93-5.326 2.873-1.583.74-4.145 2.123-6.451 1.637-1.602-.348-3.166-2.488-3.276-4.41-.055-.906.027-1.408.512-2.663 1.564-4.063 5.802-6.872 10.341-8.392 5.099-1.703 10.836-2.141 16.591-2.25-.019 0 .037-.102.101-.111 9.479-.117 15.583 1.648 21.102 5.025 2.562 1.563 5.308 3.651 7.677 5.325 2.443 1.73 5.654 4.584 9.518 4.4 2.909-.146 5.298-1.82 8.089-3.074 3.988-1.784 11.273-4.088 11.475 2.362zm-43.722-39.842c2.104-.129 5.398.256 5.215 2.361-.191 2.322-7.009 2.221-9.828 2.25-4.091.045-7.834.1-11.979.1-7.191 0-17.102-1.135-22.115 1.436-2.518 1.291-4.32 3.67-6.451 5.629-2.069 1.902-4.385 3.726-6.764 5.325-2.635 1.775-5.188 2.938-7.165 4.914-5.701 5.702-9.763 16.17-8.199 27.241.467 3.286 1.327 6.644 2.15 9.929.842 3.331 1.629 6.497 2.873 9.225 2.608 5.709 7.714 7.879 13.415 10.752 4.035 2.031 7.961 3.742 12.29 5.829.649.32 3.633 1.52 2.966 2.771-.586 1.09-4.667-.329-5.838-.723-8.472-2.863-18.063-6.917-23.653-12.802-2.353-2.471-3.523-5.939-4.503-10.028-1.309-5.463-2.864-11.86-2.864-19.053 0-2.396-.229-4.924.101-7.164.807-5.573 3.597-11.22 6.241-15.666.842-1.408 1.948-3.395 3.074-4.2.705-.504 1.683-.605 2.462-1.025 3.871-2.113 7.248-5.29 10.541-8.088 3.441-2.919 6.67-5.794 11.987-6.653 5.371-.869 11.447-.367 18.018-.613 4.529-.174 8.895-.395 13.004-1.025 1.754-.264 3.1-.593 5.022-.722zm361.061 60.833c-1.915-.694-3.836-1.555-5.637-2.262-3.497-1.354-7.457-2.498-10.441-5.326-2.688-2.533-4.052-6.204-5.227-10.542-.585-2.176-1.3-4.318-2.048-5.836-.687-1.4-2.287-4.438-4.502-4.301-1.841.119-2.982 1.666-3.687 2.974-.799 1.465-.954 3.533-1.741 4.805-1.545 2.488-4.986 4.869-7.888 6.663-3.13 1.939-6.358 3.467-9.416 5.115-19.124 10.276-39.953 18.557-61.548 25.704-14.777 4.896-29.502 9.517-44.337 13.827-14.979 4.355-30.15 8.558-46.083 12.08-15.876 3.512-33.227 5.334-51.51 6.663-18.785 1.354-38.13.74-54.062-2.876-15.886-3.596-29.438-9.314-41.06-17.093-2.699-1.812-5.525-4.107-7.888-6.661-4.776-5.17-6.625-12.647-7.888-21.195-.612-4.182-1.079-11.033-4.09-13.313-3.357-2.543-5.454 2.188-6.25 5.627-1.08 4.668-1.464 9.079-4.402 11.575-1.069.908-1.773 1.611-2.46 2.866-1.236 2.287-2.096 5.141-2.765 7.887-2.956 12.116-3.441 24.745-4.091 38.396-.329 6.801-.21 13.938.103 20.691.312 6.989.53 13.761 1.326 19.966 1.603 12.407 5.748 22.949 11.266 31.23 5.828 8.74 13.761 14.249 24.577 17.919 10.304 3.505 22.668 5.691 35.222 7.274 18.824 2.369 39.677 2.965 60.824 2.965 21.092 0 41.773-.95 60.423-3.377 12.438-1.619 24.296-4.063 35.432-7.063 11.165-3.011 21.881-6.452 31.434-11.064 9.533-4.603 18.081-10.093 26.418-16.077 12.419-8.905 24.46-18.1 35.019-28.669 3.531-3.533 6.661-7.355 9.938-11.366 6.206-7.584 12.428-15.737 18.12-24.369 2.733-4.138 5.618-8.583 8.601-12.7 2.112-2.901 4.556-6.269 7.064-8.903 1.301-1.371 2.591-2.232 2.975-4.099.374-1.85-.74-3.432-.714-5.225.028-1.785.449-3.568 1.024-5.217 1.008-2.881 2.618-5.774 5.627-6.865 2.931-1.061 7.331-.612 11.576-.923 3.432-.246 8.464-.458 9.314-3.175 1.12-3.569-4.288-4.916-6.548-5.73zm-155.031 45.151c.585-1.886 3.963-3.34 6.34-4.19 7.779-2.801 16.502-4.885 24.381-7.276 9.646-2.918 18.356-6.027 28.156-8.702 1.405-.385 3.145-.943 4.497-.924 1.805.024 2.736 3.412 2.262 6.351-.457 2.744-1.922 5.061-3.386 7.273-2.78 4.219-6.094 8.036-9.929 11.364-1.848 1.604-4.482 3.779-6.763 4.303-.995.219-2.022.209-2.966.4-9.946 2.023-18.273 6.178-27.238 9.628-1.43.559-3.067 1.196-4.815 1.848-1.372.504-4.053 1.748-4.912 1.537-1.246-.311-1.96-3.295-2.354-4.609-1.071-3.571-1.838-7.331-2.664-11.165-.362-1.691-1.149-4.099-.609-5.838zm-164.56 25.405c.349-1.375.86-2.783 1.227-4.002 1.217-4.026 1.711-7.3 6.141-7.777 2.893-.309 6.276.238 9.215.613 5.884.741 10.935 1.346 17.001 2.563 2.983.595 5.683 1.18 6.764 3.276.824 1.61.356 5.068.101 7.375-.284 2.488-.549 5.015-1.849 6.142-1.674 1.444-6.507 1.391-10.029 1.225-7.732-.364-13.615-.647-20.689-1.84-2.461-.42-7.302-.887-8.188-2.971-.517-1.201-.06-3.188.306-4.604zm-51.61-45.985c.786.758.273 2.104 0 2.973-.293.897-.787 1.838-1.125 2.562-.76 1.594-1.729 3.534-3.387 3.99-.685-2.736 2.455-8.82 4.512-9.525zm6.964 100.456c-.888.1-1.557-1.759-1.949-2.662-2.271-5.244-4.63-10.671-6.762-15.979-.869-2.178-1.684-4.557-2.042-7.063.056-.084.102-.165.102-.303.082-.02.091.038.102.103h.201c2.838 3.441 4.997 7.476 7.174 11.878 1.556 3.145 3.093 6.357 3.89 10.438.19 1.008.419 3.451-.716 3.588zm5.325-81.004c0 6.506-.631 11.083-1.436 17.003-.313 2.288-.953 6.425-2.353 6.763-1.555.355-3.103-1.309-4.1-2.049-1.602-1.211-3.129-2.217-3.275-4.613-.155-2.506.806-5.032 1.429-7.063 1.738-5.638 4.181-14.065 7.686-17.516.082-.072.164-.064.302-.1 1.848-.431 1.747 5.299 1.747 7.575zm22.933 91.857c-2.104.833-4.43-.165-6.553-.715-4.255-1.106-8.336-2.014-12.079-3.89-1.692-.85-3.796-1.85-4.2-3.789 1.693-1.242 4.823-.483 6.04-1.025 1.537-.694 1.922-2.276 1.737-4.922-.247-3.724-1.591-6.568-2.451-10.028-.622-2.48-.21-4.146 2.352-2.975 1.939.889 3.733 3.797 5.015 5.738 3.486 5.279 6.488 11.53 9.014 17.616.521 1.261 1.252 2.573 1.125 3.99zm-9.828-63.69c-2.627-4.146-3.761-13.433-2.563-19.766.375-1.959 1.502-5.491 3.175-5.427 1.83.072 3.331.869 4.813 1.537 1.465.65 2.802 1.189 4.302 1.941 2.498 1.252 6.891 3.127 7.265 6.351.191 1.59-.622 3.576-1.016 5.122-.439 1.666-.852 3.388-1.125 5.017-.65 3.77-.239 7.532-1.949 10.239-5.281-1.326-10.349-.985-12.902-5.014zm38.605 68.404c-.833 1.966-7.229.328-9.013 0-1.482-.275-2.919-.514-4.402-1.025-1.061-.365-3.102-1.236-3.274-2.15-.128-.65.385-1.164.402-1.948.064-1.859-1.016-4.448-1.738-6.344-1.985-5.197-4.292-8.527-6.351-13.625-.513-1.282-1.007-2.536.21-2.864 1.601-.438 4.575.988 6.551 1.437 1.099.238 2.26.412 3.377.614 1.153.199 2.516.073 3.586.411 1.528.469 3.021 3.47 3.89 5.216 2.58 5.227 3.88 10.826 6.04 16.692.411 1.104 1.126 2.633.722 3.586zm36.046 2.964c-1.438 1.628-6.735 1.024-9.425.823-3.239-.239-6.728-.541-8.805-1.84-1.572-.996-2.846-3.34-3.998-5.228-2.417-3.979-4.165-7.677-6.141-12.188-.824-1.877-2.59-4.932-1.84-7.064.843-2.416 8.748-2.306 11.979-2.459 3.469-.167 10.479-.414 12.69 1.436 1.447 1.207 1.932 3.771 2.564 5.839 1.354 4.421 2.195 8.144 3.075 13.516.332 2.048 1.227 5.653-.099 7.165zm3.066-65.328c-1.143-1.957.156-5.929.623-8.091.595-2.771 1.125-5.131 2.04-7.475 8.74-1.105 17.479-2.744 26.628-3.174 2.645-.129 5.034.027 6.141 1.125 1.465 1.438 1.336 5.437 1.336 8.812 0 3.321.166 7.038-1.335 8.702-2.508 2.791-12.208 2.152-17.716 2.152-3.293 0-6.745.008-9.828-.102-2.864-.11-6.9-.265-7.889-1.949zm48.031 57.136c-.229 3.192-.503 6.615-2.361 7.679-1.875 1.088-5.59.972-7.988 1.133-5.563.367-11.283.697-17.815.404-3.643-.156-7.422-.211-9.115-2.252-1.226-1.482-1.473-4.019-1.939-6.239-.988-4.73-1.94-8.82-2.764-13.626-.339-1.922-.843-6.076.1-7.678 1.145-1.94 5.171-2.278 8.392-2.563 8.602-.74 16.875-1.297 24.58-2.865 1.528-.311 2.91-.885 4.502-1.124.009 0 .859-.209 1.437 0 1.675.612 2.087 4.84 2.362 7.777.582 6.416 1.066 12.885.609 19.354zm.402-56.825c-1.335-1.984-.649-6.14-.403-9.114.303-3.824.413-7.23 2.04-9.224 2.042-2.488 6.801-3.542 10.652-4.503 8.336-2.066 16.534-3.469 25.19-5.115 2.007-.385 4.199-.842 6.353-1.234 2.396-.439 4.773-.979 6.961-1.225 2.547 2.332 3.012 5.736 3.891 9.624.35 1.548.825 3.404 1.328 5.428.413 1.62 1.33 3.935 1.025 5.427-.384 1.92-2.964 3-5.016 3.787-6.369 2.463-13.678 3.954-21.092 5.327-6.553 1.217-15.091 2.909-23.855 2.563-2.993-.122-6.104-.315-7.074-1.741zm73.014 47.408c-.541 2.014-3.521 3.121-5.525 3.892-6.864 2.635-14.413 4.701-21.814 6.449-7.402 1.75-15.099 3.46-23.756 4.503-2.708.33-6.369.797-8.29-.302-3.46-1.983-3.131-10.486-3.388-15.776-.155-3.267-.255-6.121-.302-9.214-.055-3.522.239-7.531 1.84-9.417 2.39-2.799 7.86-3.412 11.677-4.4 10.981-2.855 20.397-6.224 30.52-9.736 2.022-.695 3.907-1.582 6.35-1.839 2.839-.295 3.065 1.527 3.065 5.227 0 2.405.219 4.182.41 5.324 1.399 8.465 5.874 13.076 8.5 20.479.421 1.189 1.155 3.202.713 4.81zm56.223-31.641c-5.442 4.475-11.382 8.292-17.102 12.189-5.865 3.98-11.375 7.669-17.718 11.565-1.728 1.063-4.37 3.248-6.76 2.976-2.369-.283-3.943-3.835-5.017-5.839-2.47-4.658-4.73-9.746-6.351-15.264-.794-2.72-1.855-5.947-1.737-9.005.119-3.201 1.722-4.904 3.378-6.047 1.426-.97 3.603-1.566 5.938-2.15 6.313-1.564 11.994-4.056 17.714-6.454 3.625-1.508 7.438-3.182 11.268-4.912 3.75-1.691 7.108-3.696 11.463-4.602h.211c.467-.073 1.684-.211 2.25.201 1.374.998.806 4.117.925 6.25.248 4.593 1.398 8.291 3.177 11.155.74 1.206 2.601 2.396 2.663 4.409.062 2.307-2.71 4.209-4.302 5.528zm41.774-48.235c-5.685 9.123-12.127 17.669-18.942 26.016-1.124 1.374-2.372 2.856-3.788 4.403-1.024 1.107-2.967 3.604-4.303 3.79-2.195.291-3.979-2.099-4.5-3.79-1.063-3.43-.513-7.273.1-10.552.622-3.313 1.756-6.204 3.587-8.089 3.11-3.211 8.85-5.746 13.515-7.888 5.446-2.488 10.333-4.922 15.355-6.451h.102c.071.981-.642 1.794-1.126 2.561zm19.252-38.809c-.96 3.269-2.141 6.077-3.479 8.504-3.001 5.406-7.584 8.508-12.602 11.465-5.158 3.037-10.559 5.708-15.867 8.19-5.508 2.568-10.695 5.443-16.799 7.273-1.281-3.185-1.1-7.613-.815-11.778.274-4.064.686-8.144 2.251-10.649 1.851-2.957 6.197-5.382 9.727-7.267 7.645-4.083 14.898-7.614 22.531-11.366 3.74-1.838 7.879-3.861 12.188-4.711 5.739-1.144 3.908 6.791 2.865 10.339zm-362.907-51.096c-.303 1.347-1.638 2.168-2.654 2.863-3.999 2.72-10.157 4.22-13.013 8.201-1.967 2.754-2.645 7.111-3.275 11.155-.648 4.246-1.527 8.302-1.538 12.802-.009 5.28 2.681 7.815 5.537 10.45 2.112 1.949 4.018 3.817 5.837 6.14.512.668 1.446 1.5.915 2.563-1.637.467-3.203-.586-4.501-1.437-1.244-.805-2.407-1.813-3.486-2.764-3.038-2.672-6.643-6.004-7.063-11.163-.237-2.958.074-5.931.312-8.804.449-5.372 1.181-10.761 2.352-15.767.697-2.956 1.482-6.286 3.176-7.989 1.557-1.564 4.705-3.01 7.065-3.999 2.753-1.144 5.902-2.534 8.702-2.663.681-.026 1.239-.026 1.634.412z"/></svg>