<svg version="1.1" xmlns="http://www.w3.org/2000/svg" width="100%" height="100%" viewBox="0 0 512 512"><path d="M509.133,187.493c-2.003-4.547-5.288-8.994-8.196-12.601c-6.251-7.741-13.242-14.916-20.271-21.395c-7.484-6.907-14.292-13.359-19.865-21.713c-5.476-8.2-9.437-17.892-14.541-27.133c-5.034-9.097-10.295-17.659-16.288-25.293c-6.004-7.659-13.534-14.258-21.396-20.277c-3.88-2.964-8.308-5.948-13.01-7.778c-4.988-1.948-11.404-2.563-18.02-2.873c-13.169-0.621-26.565-0.512-40.959-0.713c-17.854,0-35.704,0-53.559,0c-35.149,0.768-70.645,0.383-103.423,3.688c-16.06,1.62-31.936,4.007-46.997,6.552c-15.301,2.58-29.557,6.03-42.193,11.366C77.954,74.584,66.57,81.474,56.624,89.087c-5.096,3.898-9.892,8.22-13.616,13.206c-2.014,2.7-3.788,5.372-4.713,8.712c-0.95,3.449-0.604,7.724-1.226,12.079c-1.136,8.007-3.275,14.31-7.477,19.354c-2.013,2.416-4.301,4.621-6.863,6.551c-2.489,1.885-5.133,3.551-7.466,5.839c-9.032,8.838-15.85,19.646-15.163,38.294c0.019,0.119-0.018,0.185-0.101,0.211c0,5.188,0,10.376,0,15.565c0,0.879,0,1.746,0,2.625c0.211,9.379,2.836,16.49,5.939,23.178c3.367,7.24,7.173,13.892,10.651,21.094c3.632,7.522,5.17,15.439,5.737,26.007c0.521,9.927,0.2,20.643,0.2,31.331c0,20.696-0.312,41.661-1.536,61.95c-0.624,10.421-1.465,19.584-1.94,29.804c-0.266,5.474,0.146,10.579,1.528,14.34c1.391,3.74,3.431,6.943,5.535,10.337c3.953,6.389,9.013,12.584,14.642,17.106c2.891,2.313,6.239,4.271,9.625,6.238c3.332,1.939,6.826,3.763,10.441,5.427c7.466,3.451,15.849,4.988,26.316,5.428c10.066,0.431,20.69,0.514,31.232,0.514c10.788,0,21.32,0.073,31.332-0.403c10.13-0.484,19.39-1.729,28.166-3.586c17.532-3.718,33.737-8.329,51.501-11.98c4.457-0.924,8.959-1.939,13.415-2.463c2.36-0.273,4.438-0.63,6.562-1.326c2.004-0.666,3.961-1.4,5.829-2.15c30.054-12.024,57.028-27.633,86.942-40.042c15.1-6.261,28.678-13.552,42.292-21.19c6.746-3.789,13.417-7.827,19.758-11.989c6.286-4.117,12.078-8.901,17.715-14.028c2.744-2.488,5.573-5.052,8.198-7.679c2.673-2.67,5.52-5.214,7.98-7.888c5.204-5.636,9.964-11.16,14.138-17.604c4.221-6.525,7.092-13.764,10.953-20.793c4.794-8.729,10.248-16.26,16.591-23.042c1.264-1.354,2.835-2.516,4.092-3.889c7.685-8.392,14.705-16.671,21.201-26.416c2.074-3.121,4.152-6.636,5.324-10.552c1.271-4.264,1.382-8.95,1.639-14.23c0-5.874,0-11.741,0-17.615C511.871,198.664,511.286,192.379,509.133,187.493z M492.545,245.042c-3.67,5.864-7.933,11.528-13.315,15.354c-4.209,3.002-9.516,4.594-14.339,7.176c-1.408,0.75-3.145,1.656-3.786,3.273c3.521,0.742,6.229-1.609,9.525-1.436c0.044,1.537-1.3,2.505-2.15,3.485c-2.683,3.064-5.528,6.112-7.987,9.517c-3.253,4.502-6.104,9.36-8.805,14.439c-2.771,5.208-4.972,10.552-7.788,15.466c-8.417,14.695-20.817,25.521-33.069,36.658c-8.152,7.402-17.809,13.333-27.542,18.942c-9.886,5.692-19.904,11.1-30.218,16.278c-10.285,5.179-21.239,9.314-32.148,14.338c-21.239,9.773-41.607,20.855-63.387,29.594c-5.528,2.225-11.238,4.73-17.615,5.638c-6.388,0.903-12.857,2.469-19.254,3.988c-12.691,3.029-25.025,6.258-37.17,9.315c-12.336,3.11-25.229,5.912-39.32,7.172c-14.433,1.281-29.503,1.604-45.06,1.228c-7.751-0.182-14.53-1.062-20.479-2.765c-5.947-1.709-11.283-4.035-16.59-6.661c-5.226-2.58-10.13-5.381-14.129-9.113c-6.094-5.683-11.018-11.969-15.153-19.757c-1.364-2.572-2.398-5.581-2.764-8.812c-0.77-6.681,0.494-14.448,1.125-21.705c2.507-28.872,2.05-59.635,2.05-90.729c0-7.88,0.083-15.575-0.312-22.932c-1.152-21.742-12.985-33.548-19.145-50.585c-3.979-11.001-3.796-29.239-0.924-41.473c0.778-3.304,1.685-5.92,3.376-8.3c3.112-4.373,7.147-8.418,11.266-11.978c6.157-5.334,12.582-10.843,16.388-18.43c2.508-5.014,4.091-11.091,4.403-18.842c0.284-7.11,2.646-13.032,6.139-17.103c3.543-4.136,8.237-7.431,12.703-10.55c4.603-3.214,9.59-5.958,14.541-8.704c5.043-2.799,10.184-5.407,15.565-7.677c5.637-2.379,10.916-4.566,17.505-5.736c13.141-2.334,29.245-1.703,44.244-1.227c7.54,0.237,15.188,0.22,22.932,0.102c15.062-0.229,29.136-1.941,43.008-3.478c14.047-1.564,28.037-3.067,42.809-3.688c31.091-1.318,54.482,7.247,75.364,16.992c16.123,7.53,30.809,15.417,44.437,25.292c2.239,1.621,4.501,3.258,6.863,4.814c2.313,1.527,4.667,3.357,7.575,3.999c0.24-1.309-1.099-2.086-1.839-2.764c-2.563-2.359-5.527-4.5-8.4-6.56c-11.574-8.301-23.901-16.042-36.66-23.244c-8.546-4.82-17.859-8.72-27.754-12.18c-10.002-3.514-20.287-6.342-31.942-7.887c-12.354-1.646-25.604-1.474-38.096-0.824c-6.314,0.34-12.407,0.834-18.429,1.54c-5.966,0.705-11.804,1.646-17.716,2.148c-12.005,1.036-24.615,1.848-37.371,2.563c-6.066,0.338-12.729,0.714-19.253,0.714c-3.212,0-6.588,0.257-9.828,0.11c-3.011-0.146-6.159,0.082-8.712-1.234c0.366-1.127,1.154-1.219,1.949-1.538c4.329-1.729,10.414-2.314,15.868-2.967c16.854-1.993,34.8-3.164,52.534-3.996c14.979-0.697,30.307-1.428,45.671-1.428c3.095,0,6.251,0.038,9.313-0.102c6.251-0.292,12.5,0.073,18.644-0.209c4.941-0.229,11.409-0.102,16.793-0.102c5.501,0,11.162-0.137,16.388,0.102c11.174,0.521,22.211-0.238,32.656,0.209c11.019,0.457,21.614-0.129,30.729,2.15c4.32,1.071,7.87,3.029,11.365,5.116c3.44,2.059,6.554,4.646,9.315,7.063c5.938,5.198,11.341,10.515,16.077,16.793c4.621,6.121,8.691,13.147,12.591,20.277c5.62,10.286,10.571,22.256,17.002,32.356c0.979,1.537,2.014,3.24,3.378,4.814c0.916,1.063,3.896,3.488,3.374,4.914c-0.447,1.252-3.941,1.236-5.938,1.336c-6.552,0.32-14.633,0.219-20.781,0.814c1.977,0.813,4.163,0.705,6.239,0.924c10.477,1.105,22.145,1.92,30.616,5.225c3.187,1.234,5.821,3.658,8.3,6.038c4.813,4.621,9.105,9.773,13.307,15.364c4.125,5.463,8.314,11.276,10.457,18.221C507.013,217.242,499.099,234.555,492.545,245.042z M487.631,199.983c0.12,8.245,0.12,15.346-0.623,23.041c-0.695,7.294-1.39,14.514-4.19,19.658c-2.733,5.021-6.88,9.005-12.188,11.674c-2.572,1.302-5.399,2.472-8.299,3.589c-2.854,1.098-5.901,2.525-9.216,2.452c0.082-1.218,1.431-1.639,2.261-2.15c2.729-1.666,5.71-3.349,8.704-4.914c4.007-2.087,8.069-4.091,11.264-6.962c6.699-6.021,8.174-15.22,9.114-27.232c0.441-5.637,0.514-11.567,0.514-17.515c0-5.837-0.613-11.465-2.46-15.768c-2.638-6.129-6.844-11.375-11.164-16.178c-1.281-1.436-3.215-3.678-4.914-4.4c-2.771-1.189-6.726-1.445-10.341-1.949c-9.846-1.383-20.569-1.785-30.818-2.974c-0.786-0.092-1.748-0.057-2.36-0.615c10.504-0.547,22.947-0.703,33.181,0.313c3.754,0.365,7.285,0.742,10.037,1.939c2.757,1.207,4.786,2.992,6.963,4.925c4.33,3.832,7.842,8.143,10.644,13.203c1.445,2.608,2.572,5.427,3.177,8.702C487.512,192.105,487.567,195.931,487.631,199.983z M466.941,195.371c3.66,7.458,6.142,17.359,3.788,29.292c-1.354,6.89-3.891,13.544-7.678,18.529c-1.208,1.602-2.818,3.752-5.018,3.688c-2.13-0.057-3.42-1.736-3.786-2.965c-0.521-1.711-0.027-4.539,0.503-6.661c1.521-6.013,4.102-11.025,5.537-17.205c2.168-9.37-2.085-16.719-5.938-22.83c-3.951-6.261-8.255-12.032-15.877-14.44c-3.652-1.152-8.335-1.984-12.901-2.251c-5.271-0.313-11.23-0.229-15.255,1.437c-1.027,0.419-1.793,1.115-2.766,1.738c-2.682,1.704-5.829,3.01-9.013,4.4c-8.255,3.597-17.238,6.817-26.932,8.915c-5.318,1.143-10.112,1.527-16.179,1.738c-18.775,0.648-29.456-5.848-39.119-14.64c-1.291-1.182-2.911-2.664-4.402-4.613c-1.062-1.391-2.946-3.75-2.662-6.249c0.284-2.489,3.643-3.688,5.629-3.479c4.685,0.494,7.723,5.227,10.651,7.478c3.575,2.744,7.786,4.895,11.572,6.551c4.218,1.838,9.022,3.495,13.93,4.2c5.287,0.759,11.135-0.33,15.865-1.537c9.773-2.498,18.282-6.005,26.518-9.73c4.237-1.911,8.092-4.106,12.904-5.224c4.896-1.135,10.202-1.545,16.389-1.84c-0.02,0,0.036-0.102,0.102-0.102c12.509-0.594,21.569,1.639,28.467,6.553C458.047,180.941,463.097,187.549,466.941,195.371z M400.591,344.675c1.491-0.073-0.229,1.346-0.724,1.739c-4.624,3.698-10.469,6.644-15.668,9.524c-6.305,3.506-12.709,6.699-18.942,9.829c-12.854,6.469-26.014,12.729-39.419,18.229c-13.45,5.517-27.901,10.33-43.109,14.54c-7.586,2.104-15.527,3.613-23.454,5.324c-23.71,5.117-47.564,9.581-74.439,11.98c-8.877,0.795-18.063,1.254-27.242,1.537c-9.316,0.293-18.677,0.412-27.956,0.823c-9.663,0.421-19.115,0.622-28.468,0.202c-4.611-0.209-8.84-0.687-12.692-1.736c-3.596-0.988-6.926-2.603-10.039-4.303c-2.929-1.607-6.012-3.543-9.014-5.428c-2.954-1.865-5.975-3.695-8.702-5.635c-2.781-1.978-5.691-4.164-6.45-7.989c-0.788-3.943-0.11-8.722,0.311-13.415c0.979,4.41,0.933,8.511,2.553,11.678c1.564,3.055,4.155,5.188,6.965,7.164c5.479,3.863,11.686,7.448,17.615,10.751c3.147,1.758,6.276,3.451,9.727,4.512c3.568,1.101,7.549,1.628,12.189,1.941c8.521,0.574,18.174,0.236,27.644-0.205c18.375-0.85,36.64-0.988,53.963-2.661c17.459-1.683,33.647-4.226,49.258-7.374c15.913-3.193,31.351-6.407,46.798-9.93c15.352-3.506,29.18-8.712,42.291-14.341c13.005-5.572,26.026-11.693,38.599-18.018c10.765-5.404,21.378-11.593,32.871-16.689C396.748,345.973,399.118,344.738,400.591,344.675z M399.565,158.311c0.476,1.527-1.887,2.826-2.765,3.275c-3.816,1.912-10.093,2.874-15.466,1.84c2.489-1.438,6.829-1.025,9.114-2.664c-0.539-1.088-1.922-1.398-2.974-1.838c-3.202-1.363-7.164-2.729-10.238-4.302c-0.083-0.018-0.102-0.108-0.203-0.1c0.046-0.094,0.092-0.184,0.203-0.21c5.975,0.337,12.077,1.134,17.925,2.361C396.315,156.911,399.317,157.524,399.565,158.311z M383.075,122.779c1.693,1.94,3.688,3.972,4.302,6.552c-1.418-0.092-2.626-1.07-3.688-1.848c-3.083-2.27-6.003-5.088-8.701-7.777c-10.991-10.99-24.689-19.053-40.446-25.604c-5.16-2.15-10.53-4.091-16.28-5.728c-5.736-1.639-11.793-2.809-18.229-3.79c-12.707-1.959-26.331-3.439-41.066-2.771c-13.637,0.621-25.724,3.495-38.91,5.124c-26.206,3.23-57.118,2.26-83.655-0.312c-6.908-0.669-13.735-1.592-20.69-1.326c-3.577,0.137-6.405,0.822-8.803,2.149c-2.288,1.264-4.373,3.459-7.577,2.965c-0.357-1.336,0.54-2.021,1.126-2.663c1.729-1.875,4.42-3.787,7.265-4.602c5.354-1.538,13.616-0.889,19.464-0.413c6.341,0.512,12.684,1.199,18.941,1.738c12.51,1.09,25.987,1.949,39.32,1.949c13.699,0,26.006-1.016,38.497-2.865c8.904-1.317,17.315-3.413,26.83-4.2c1.594-0.137,3.176-0.229,4.813-0.311c15.951-0.813,32.487,0.797,46.597,2.873c6.637,0.971,12.794,1.932,18.53,3.578c5.662,1.629,10.942,3.807,16.18,5.939c15.755,6.435,29.356,14.87,40.857,25.604C379.607,118.77,381.382,120.822,383.075,122.779z M375.598,167.527c3.496-1.805,9.856,0.311,7.174,4.702C380.054,170.984,377.374,169.713,375.598,167.527z M372.632,343.959c1.163,0.01-0.265,1.025-0.722,1.328c-4.063,2.728-8.839,5.134-13.308,7.476c-26.288,13.782-53.466,25.731-83.149,36.146c-11.778,4.138-23.894,7.833-38.299,9.427c-7.175,0.785-14.631,1.105-22.217,1.637c-14.743,1.033-30.171,1.611-45.471,2.251c-23.023,0.971-48.243,1.209-65.025-5.736c-9.764-4.048-18.265-9.464-24.469-17.203c-0.88-1.09-2.004-2.3-2.049-3.892c1.572-0.311,2.826,0.906,3.889,1.638c3.45,2.381,6.313,5.371,9.626,7.888c8.601,6.507,19.976,11.739,33.079,13.816c13.478,2.144,30.573,0.743,45.048,0.314c7.458-0.222,14.916-0.632,22.429-1.026c15.044-0.785,29.951-1.207,44.134-2.662c7.102-0.723,13.745-1.774,19.968-3.477c6.059-1.656,11.805-3.79,17.615-5.839c23.36-8.265,44.408-17.569,66.049-27.655c8.995-4.189,18.35-8.902,28.158-12.791C369.393,345.015,371.316,343.945,372.632,343.959z M369.256,127.694c1.31,1.52,3.367,3.266,2.966,5.625c-1.312,0.111-2.373-0.85-3.276-1.537c-2.81-2.104-5.262-4.739-7.788-7.165c-3.375-3.248-7.184-6.084-11.054-8.911c-3.915-2.846-7.959-5.456-12.49-7.478c-4.521-2.012-9.351-3.688-14.64-5.316c-15.125-4.667-34.499-5.919-54.384-5.123c-3.25,0.129-6.598,0.201-9.828,0.201c-3.121,0-6.305,0.221-9.114-0.814c0.75-0.968,2.213-1.207,3.484-1.436c4.026-0.724,8.85-0.706,13.518-0.917c5.508-0.255,12.619-0.129,18.229,0.102c5.965,0.238,11.705,0.338,17.204,0.814c11.192,0.971,20.846,3.221,29.693,6.351c13.39,4.74,23.848,11.95,33.07,20.992C366.301,124.5,367.849,126.064,369.256,127.694z M323.174,221.487c2.382,0.438,4.869,0.969,3.579,3.586c-3.295,0.074-6.882-0.345-10.644-0.611c-7.094-0.514-14.521-0.813-21.605-1.648c-5.204-0.604-10.906-0.969-12.599-5.115c-1.045-2.562-0.211-7.694,2.249-7.888c3.072-0.238,0.704,3.295,0.724,4.614c0.044,4.895,6.854,4.949,11.776,5.424C305.285,220.683,314.754,219.933,323.174,221.487z M369.558,158.311c-0.73-2.855-2.827-5.655-4.811-7.786c-6.215-6.689-13.362-11.987-22.733-15.156c-6.54-2.212-13.522-3.467-20.89-4.4c-9.178-1.163-20.415-1.436-29.692-0.611c-11.53,1.004-19.52,4.865-27.856,9.415c-6.562,3.588-13.507,7.87-18.842,13.003c-1.804,1.738-3.907,3.715-4.712,5.938c-0.934,2.617-0.741,7.174,0.513,9.524c0.916,1.703,2.426,3.05,3.891,4.402c4.356,4.016,9.333,7.249,14.539,10.341c16.015-7.843,30.537-15.903,52.334-18.119c10.544-1.07,22.575,0.201,32.256,2.15c4.476,0.896,10.531,2.25,15.768,1.637c2.404-0.282,4.582-1.234,6.351-2.46C368.123,164.488,370.546,162.164,369.558,158.311z M296.756,154.825c-0.549,1.291-3.121,1.291-5.022,1.438c-5.959,0.439-10.522,2.717-14.542,4.712c-4.109,2.031-8.52,4.191-13.304,5.939c-1.593,0.577-3.523,1.228-5.325,1.017c-2.19-0.247-4.614-2.206-4.814-4.301c-0.202-2.005,1.392-3.614,2.662-4.806c7.789-7.3,17.653-12.269,29.185-15.674c1.976-0.576,4.135-1.135,6.248-1.328c0.76-0.072,2.032-0.154,2.553,0.413c0.531,0.56,0.388,2.004,0.513,3.275c0.247,2.333,0.788,4.072,1.438,6.14C296.635,152.585,297.15,153.891,296.756,154.825z M344.064,154.624c-0.949-0.542-2.891-1.375-2.764-2.564c0.094-0.923,1.326-1.006,2.453-1.125c6.075-0.64,10.524,3.368,12.492,7.578C351.981,157.524,347.651,156.663,344.064,154.624z M277.603,219.749c1.018,2.636,1.026,6.268,1.026,10.341c0,5.381-0.267,9.59-2.354,12.491c-1.534,2.141-5.162,4.686-8.198,6.25c-1.052,0.539-2.553,1.252-3.579,1.125c-1.362-0.174-2.132-1.518-2.662-2.353c-0.866-1.354-1.782-3.303-1.124-5.637c0.797-2.836,3.13-3.726,4.813-5.939c1.61-2.124,3.634-6.424,2.051-10.239c-1.409-3.377-7.438-4.249-11.577-5.016c-2.168-0.4-4.328-0.376-6.962-1.334c-1.802-0.66-3.881-2.242-3.79-4.402c0.093-2.131,2.472-3.093,4.199-3.689c2.271-0.776,4.557-0.904,6.963-1.022C265.715,209.885,274.914,212.731,277.603,219.749z M261.224,100.041c0.285,1.555-0.868,2.746-1.637,3.787c-2.38,3.203-4.959,5.976-6.864,9.839c-1.866,3.777-3.109,7.714-4.1,12.691c-0.274,1.409-0.376,3.039-1.326,4.199c-0.726-6.835-0.339-13.606,2.148-19.043c1.153-2.533,2.646-4.63,4.404-6.562c1.674-1.83,4.125-4.373,6.451-5.015C260.583,99.857,260.87,99.812,261.224,100.041z M244.322,229.377c5.876,0.474,9.454,1.189,9.016,7.777c-0.229,3.457-2.078,7.219-4.814,7.165c-2.388-0.038-2.617-2.168-3.99-2.965c-1.518-0.879-4.593-1.271-7.174-1.437c-5.765-0.367-10.562,0.512-16.581-0.101c-2.534-0.257-5.345-0.907-5.637-2.866c-0.503-3.402,4.776-5.271,7.275-6.04c3.896-1.217,7.576-1.545,11.769-1.748C237.459,229.01,241.093,229.111,244.322,229.377z M210.739,385.021c-8.564,0.866-18.026,0.612-27.443,0.612c-9.379,0-18.805,0.209-27.341-0.612C173.458,384.104,193.207,384.206,210.739,385.021z M180.322,105.265c1.181,0.328,4.933,1.333,4.512,2.863c-0.468,1.664-5.417,0.483-6.552,0.209c-10.89-2.627-22.337-3.604-34.92-4.51c-4.868-0.351-10.358-0.79-14.952,0c-4.064,0.703-7.971,2.553-11.365,4.4c-6.882,3.76-13.488,7.687-17.414,14.138c-1.491,2.461-2.324,5.472-3.689,8.19c-0.348,0.713-0.677,1.865-1.738,1.949c-0.842-11.632,4.968-17.307,12.188-22.227c3.358-2.289,7.157-4.191,11.265-6.142c4.283-2.031,8.675-3.616,13.928-3.889c5.079-0.273,9.992,0.229,14.74,0.613c9.427,0.76,18.402,1.674,27.545,3.174C176.031,104.386,177.806,104.56,180.322,105.265z M175.307,118.477c4.109,5.747,4.374,18.742,2.764,27.644c-0.668-1.197-0.449-2.745-0.514-4.199c-0.328-7.257-1.316-14.028-4.3-19.252c-0.476-0.842-1.153-1.51-1.739-2.965c-0.375-0.941-1.609-4.603,1.228-3.487C173.605,116.556,174.741,117.682,175.307,118.477z M168.144,215.547c1.062-0.483,2.333-0.557,3.377-1.025c2.718-1.217,5.097-3.22,6.963-5.015c2.131-2.059,3.944-4.125,5.016-6.963c1.135-2.992,1.354-6.589,1.437-10.552c0.073-3.777-0.22-7.875,0.925-11.054c1.592-4.445,7.008-5.754,10.952-8.088c1.234-0.73,2.553-1.582,3.688-2.561c0.879-0.77,2.653-2.216,2.562-3.688c-0.092-1.445-2.278-2.361-3.583-2.764c-1.729-0.529-3.726-0.833-5.427-0.924c-4.476-0.238-7.843-0.741-10.753-1.939c-6.113-2.525-10.139-6.927-15.364-10.038c-5.335-3.186-11.081-5.51-18.74-6.663c-9.847-1.474-24.213-2.389-34.195-0.502c-6.066,1.144-10.322,3.853-14.13,7.466c-1.475,1.391-4.338,3.853-4.3,6.562c0.027,2.588,2.589,4.804,4.3,5.729c2.196,1.197,5.901,1.783,8.703,2.25c9.36,1.572,20.075,2.142,29.693,3.286c9.599,1.135,19.171,2.773,26.931,5.939c2.563,1.043,5.627,2.479,6.763,4.299c1.591,2.554,0.906,7.907,0.512,11.778c-0.394,3.833-1.198,6.798-2.771,9.003c-1.694,2.389-4.559,4.027-7.468,5.838c-8.456,5.234-16.097,10.388-23.253,16.893c-2.149,1.966-4.4,4.621-6.752,6.563c-2.38,1.948-5.345,4.126-8.813,4.601c-5.593,0.771-9.93,3.605-13.416,6.662c-1.116,0.979-2.755,2.032-2.764,3.79c2.771-0.139,5.143-1.576,7.375-2.764c4.833-2.582,8.895-4.355,14.34-6.35c2.407-0.889,5.729-2.39,8.392-1.64c2.754,0.77,3.439,5.28,6.452,5.326c1.948,0.028,2.682-2.188,4.511-2.26c2.37-0.084,4.687,2.168,6.342,3.586c5.462,4.657,9.817,9.855,15.162,14.741c3.76,3.45,7.394,5.691,14.54,5.226c6.223-0.403,13.342-2.39,15.255-7.578c1.271-3.458-1.748-7.166-4.302-7.375c-3.403-0.275-5.289,3.229-8.089,3.896c-3.808,0.908-7.843-1.51-10.138-3.174c-4.833-3.523-8.502-7.648-11.879-12.288c-1.637-2.252-3.696-5.099-3.989-8.09C161.802,221.669,165.434,216.792,168.144,215.547z M129.948,155.337c-3.532,0.156-7.422,0.111-10.45-0.413c1.83-1.051,4.629-0.896,7.274-1.023c3.285-0.145,6.781-0.037,9.215,0.823C134.313,155.511,132.116,155.247,129.948,155.337z M128.411,197.019c0.128,4.31-3.68,7.185-6.452,8.804c-4.839,2.818-11.759,3.732-19.354,3.988c-5.05,0.174-9.81-0.201-12.089-2.762c-1.581-1.775-2.085-4.302-3.376-6.352c-1.234-1.968-2.589-3.743-4.712-4.915c-3.167-1.738-7.979-2.142-12.391-1.939c-4.721,0.211-8.335,0.842-11.979,2.454c-1.701,0.759-3.34,1.93-5.326,2.873c-1.583,0.74-4.145,2.123-6.451,1.637c-1.602-0.348-3.166-2.488-3.276-4.41c-0.055-0.906,0.027-1.408,0.512-2.663c1.564-4.063,5.802-6.872,10.341-8.392c5.099-1.703,10.836-2.141,16.591-2.25c-0.019,0,0.037-0.102,0.101-0.111c9.479-0.117,15.583,1.648,21.102,5.025c2.562,1.563,5.308,3.651,7.677,5.325c2.443,1.73,5.654,4.584,9.518,4.4c2.909-0.146,5.298-1.82,8.089-3.074C120.924,192.873,128.209,190.569,128.411,197.019z M84.689,157.177c2.104-0.129,5.398,0.256,5.215,2.361c-0.191,2.322-7.009,2.221-9.828,2.25c-4.091,0.045-7.834,0.1-11.979,0.1c-7.191,0-17.102-1.135-22.115,1.436c-2.518,1.291-4.32,3.67-6.451,5.629c-2.069,1.902-4.385,3.726-6.764,5.325c-2.635,1.775-5.188,2.938-7.165,4.914c-5.701,5.702-9.763,16.17-8.199,27.241c0.467,3.286,1.327,6.644,2.15,9.929c0.842,3.331,1.629,6.497,2.873,9.225c2.608,5.709,7.714,7.879,13.415,10.752c4.035,2.031,7.961,3.742,12.29,5.829c0.649,0.32,3.633,1.52,2.966,2.771c-0.586,1.09-4.667-0.329-5.838-0.723c-8.472-2.863-18.063-6.917-23.653-12.802c-2.353-2.471-3.523-5.939-4.503-10.028c-1.309-5.463-2.864-11.86-2.864-19.053c0-2.396-0.229-4.924,0.101-7.164c0.807-5.573,3.597-11.22,6.241-15.666c0.842-1.408,1.948-3.395,3.074-4.2c0.705-0.504,1.683-0.605,2.462-1.025c3.871-2.113,7.248-5.29,10.541-8.088c3.441-2.919,6.67-5.794,11.987-6.653c5.371-0.869,11.447-0.367,18.018-0.613c4.529-0.174,8.895-0.395,13.004-1.025C81.421,157.635,82.767,157.306,84.689,157.177z M445.75,218.01c-1.915-0.694-3.836-1.555-5.637-2.262c-3.497-1.354-7.457-2.498-10.441-5.326c-2.688-2.533-4.052-6.204-5.227-10.542c-0.585-2.176-1.3-4.318-2.048-5.836c-0.687-1.4-2.287-4.438-4.502-4.301c-1.841,0.119-2.982,1.666-3.687,2.974c-0.799,1.465-0.954,3.533-1.741,4.805c-1.545,2.488-4.986,4.869-7.888,6.663c-3.13,1.939-6.358,3.467-9.416,5.115c-19.124,10.276-39.953,18.557-61.548,25.704c-14.777,4.896-29.502,9.517-44.337,13.827c-14.979,4.355-30.15,8.558-46.083,12.08c-15.876,3.512-33.227,5.334-51.51,6.663c-18.785,1.354-38.13,0.74-54.062-2.876c-15.886-3.596-29.438-9.314-41.06-17.093c-2.699-1.812-5.525-4.107-7.888-6.661c-4.776-5.17-6.625-12.647-7.888-21.195c-0.612-4.182-1.079-11.033-4.09-13.313c-3.357-2.543-5.454,2.188-6.25,5.627c-1.08,4.668-1.464,9.079-4.402,11.575c-1.069,0.908-1.773,1.611-2.46,2.866c-1.236,2.287-2.096,5.141-2.765,7.887c-2.956,12.116-3.441,24.745-4.091,38.396c-0.329,6.801-0.21,13.938,0.103,20.691c0.312,6.989,0.53,13.761,1.326,19.966c1.603,12.407,5.748,22.949,11.266,31.23c5.828,8.74,13.761,14.249,24.577,17.919c10.304,3.505,22.668,5.691,35.222,7.274c18.824,2.369,39.677,2.965,60.824,2.965c21.092,0,41.773-0.95,60.423-3.377c12.438-1.619,24.296-4.063,35.432-7.063c11.165-3.011,21.881-6.452,31.434-11.064c9.533-4.603,18.081-10.093,26.418-16.077c12.419-8.905,24.46-18.1,35.019-28.669c3.531-3.533,6.661-7.355,9.938-11.366c6.206-7.584,12.428-15.737,18.12-24.369c2.733-4.138,5.618-8.583,8.601-12.7c2.112-2.901,4.556-6.269,7.064-8.903c1.301-1.371,2.591-2.232,2.975-4.099c0.374-1.85-0.74-3.432-0.714-5.225c0.028-1.785,0.449-3.568,1.024-5.217c1.008-2.881,2.618-5.774,5.627-6.865c2.931-1.061,7.331-0.612,11.576-0.923c3.432-0.246,8.464-0.458,9.314-3.175C453.418,220.171,448.01,218.824,445.75,218.01z M290.719,263.161c0.585-1.886,3.963-3.34,6.34-4.19c7.779-2.801,16.502-4.885,24.381-7.276c9.646-2.918,18.356-6.027,28.156-8.702c1.405-0.385,3.145-0.943,4.497-0.924c1.805,0.024,2.736,3.412,2.262,6.351c-0.457,2.744-1.922,5.061-3.386,7.273c-2.78,4.219-6.094,8.036-9.929,11.364c-1.848,1.604-4.482,3.779-6.763,4.303c-0.995,0.219-2.022,0.209-2.966,0.4c-9.946,2.023-18.273,6.178-27.238,9.628c-1.43,0.559-3.067,1.196-4.815,1.848c-1.372,0.504-4.053,1.748-4.912,1.537c-1.246-0.311-1.96-3.295-2.354-4.609c-1.071-3.571-1.838-7.331-2.664-11.165C290.966,267.308,290.179,264.9,290.719,263.161z M126.159,288.566c0.349-1.375,0.86-2.783,1.227-4.002c1.217-4.026,1.711-7.3,6.141-7.777c2.893-0.309,6.276,0.238,9.215,0.613c5.884,0.741,10.935,1.346,17.001,2.563c2.983,0.595,5.683,1.18,6.764,3.276c0.824,1.61,0.356,5.068,0.101,7.375c-0.284,2.488-0.549,5.015-1.849,6.142c-1.674,1.444-6.507,1.391-10.029,1.225c-7.732-0.364-13.615-0.647-20.689-1.84c-2.461-0.42-7.302-0.887-8.188-2.971C125.336,291.969,125.793,289.982,126.159,288.566z M74.549,242.581c0.786,0.758,0.273,2.104,0,2.973c-0.293,0.897-0.787,1.838-1.125,2.562c-0.76,1.594-1.729,3.534-3.387,3.99C69.352,249.37,72.492,243.286,74.549,242.581z M81.513,343.037c-0.888,0.1-1.557-1.759-1.949-2.662c-2.271-5.244-4.63-10.671-6.762-15.979c-0.869-2.178-1.684-4.557-2.042-7.063c0.056-0.084,0.102-0.165,0.102-0.303c0.082-0.02,0.091,0.038,0.102,0.103c0.063,0,0.136,0,0.201,0c2.838,3.441,4.997,7.476,7.174,11.878c1.556,3.145,3.093,6.357,3.89,10.438C82.419,340.457,82.648,342.9,81.513,343.037z M86.838,262.033c0,6.506-0.631,11.083-1.436,17.003c-0.313,2.288-0.953,6.425-2.353,6.763c-1.555,0.355-3.103-1.309-4.1-2.049c-1.602-1.211-3.129-2.217-3.275-4.613c-0.155-2.506,0.806-5.032,1.429-7.063c1.738-5.638,4.181-14.065,7.686-17.516c0.082-0.072,0.164-0.064,0.302-0.1C86.939,254.027,86.838,259.757,86.838,262.033z M109.771,353.89c-2.104,0.833-4.43-0.165-6.553-0.715c-4.255-1.106-8.336-2.014-12.079-3.89c-1.692-0.85-3.796-1.85-4.2-3.789c1.693-1.242,4.823-0.483,6.04-1.025c1.537-0.694,1.922-2.276,1.737-4.922c-0.247-3.724-1.591-6.568-2.451-10.028c-0.622-2.48-0.21-4.146,2.352-2.975c1.939,0.889,3.733,3.797,5.015,5.738c3.486,5.279,6.488,11.53,9.014,17.616C109.167,351.161,109.898,352.473,109.771,353.89z M99.943,290.2c-2.627-4.146-3.761-13.433-2.563-19.766c0.375-1.959,1.502-5.491,3.175-5.427c1.83,0.072,3.331,0.869,4.813,1.537c1.465,0.65,2.802,1.189,4.302,1.941c2.498,1.252,6.891,3.127,7.265,6.351c0.191,1.59-0.622,3.576-1.016,5.122c-0.439,1.666-0.852,3.388-1.125,5.017c-0.65,3.77-0.239,7.532-1.949,10.239C107.564,293.888,102.496,294.229,99.943,290.2z M138.548,358.604c-0.833,1.966-7.229,0.328-9.013,0c-1.482-0.275-2.919-0.514-4.402-1.025c-1.061-0.365-3.102-1.236-3.274-2.15c-0.128-0.65,0.385-1.164,0.402-1.948c0.064-1.859-1.016-4.448-1.738-6.344c-1.985-5.197-4.292-8.527-6.351-13.625c-0.513-1.282-1.007-2.536,0.21-2.864c1.601-0.438,4.575,0.988,6.551,1.437c1.099,0.238,2.26,0.412,3.377,0.614c1.153,0.199,2.516,0.073,3.586,0.411c1.528,0.469,3.021,3.47,3.89,5.216c2.58,5.227,3.88,10.826,6.04,16.692C138.237,356.122,138.952,357.651,138.548,358.604z M174.594,361.568c-1.438,1.628-6.735,1.024-9.425,0.823c-3.239-0.239-6.728-0.541-8.805-1.84c-1.572-0.996-2.846-3.34-3.998-5.228c-2.417-3.979-4.165-7.677-6.141-12.188c-0.824-1.877-2.59-4.932-1.84-7.064c0.843-2.416,8.748-2.306,11.979-2.459c3.469-0.167,10.479-0.414,12.69,1.436c1.447,1.207,1.932,3.771,2.564,5.839c1.354,4.421,2.195,8.144,3.075,13.516C175.025,356.451,175.92,360.056,174.594,361.568z M177.66,296.24c-1.143-1.957,0.156-5.929,0.623-8.091c0.595-2.771,1.125-5.131,2.04-7.475c8.74-1.105,17.479-2.744,26.628-3.174c2.645-0.129,5.034,0.027,6.141,1.125c1.465,1.438,1.336,5.437,1.336,8.812c0,3.321,0.166,7.038-1.335,8.702c-2.508,2.791-12.208,2.152-17.716,2.152c-3.293,0-6.745,0.008-9.828-0.102C182.685,298.079,178.649,297.924,177.66,296.24z M225.691,353.376c-0.229,3.192-0.503,6.615-2.361,7.679c-1.875,1.088-5.59,0.972-7.988,1.133c-5.563,0.367-11.283,0.697-17.815,0.404c-3.643-0.156-7.422-0.211-9.115-2.252c-1.226-1.482-1.473-4.019-1.939-6.239c-0.988-4.73-1.94-8.82-2.764-13.626c-0.339-1.922-0.843-6.076,0.1-7.678c1.145-1.94,5.171-2.278,8.392-2.563c8.602-0.74,16.875-1.297,24.58-2.865c1.528-0.311,2.91-0.885,4.502-1.124c0.009,0,0.859-0.209,1.437,0c1.675,0.612,2.087,4.84,2.362,7.777C225.664,340.438,226.148,346.907,225.691,353.376z M226.093,296.551c-1.335-1.984-0.649-6.14-0.403-9.114c0.303-3.824,0.413-7.23,2.04-9.224c2.042-2.488,6.801-3.542,10.652-4.503c8.336-2.066,16.534-3.469,25.19-5.115c2.007-0.385,4.199-0.842,6.353-1.234c2.396-0.439,4.773-0.979,6.961-1.225c2.547,2.332,3.012,5.736,3.891,9.624c0.35,1.548,0.825,3.404,1.328,5.428c0.413,1.62,1.33,3.935,1.025,5.427c-0.384,1.92-2.964,3-5.016,3.787c-6.369,2.463-13.678,3.954-21.092,5.327c-6.553,1.217-15.091,2.909-23.855,2.563C230.174,298.17,227.063,297.977,226.093,296.551z M299.107,343.959c-0.541,2.014-3.521,3.121-5.525,3.892c-6.864,2.635-14.413,4.701-21.814,6.449c-7.402,1.75-15.099,3.46-23.756,4.503c-2.708,0.33-6.369,0.797-8.29-0.302c-3.46-1.983-3.131-10.486-3.388-15.776c-0.155-3.267-0.255-6.121-0.302-9.214c-0.055-3.522,0.239-7.531,1.84-9.417c2.39-2.799,7.86-3.412,11.677-4.4c10.981-2.855,20.397-6.224,30.52-9.736c2.022-0.695,3.907-1.582,6.35-1.839c2.839-0.295,3.065,1.527,3.065,5.227c0,2.405,0.219,4.182,0.41,5.324c1.399,8.465,5.874,13.076,8.5,20.479C298.815,340.338,299.549,342.351,299.107,343.959z M355.33,312.318c-5.442,4.475-11.382,8.292-17.102,12.189c-5.865,3.98-11.375,7.669-17.718,11.565c-1.728,1.063-4.37,3.248-6.76,2.976c-2.369-0.283-3.943-3.835-5.017-5.839c-2.47-4.658-4.73-9.746-6.351-15.264c-0.794-2.72-1.855-5.947-1.737-9.005c0.119-3.201,1.722-4.904,3.378-6.047c1.426-0.97,3.603-1.566,5.938-2.15c6.313-1.564,11.994-4.056,17.714-6.454c3.625-1.508,7.438-3.182,11.268-4.912c3.75-1.691,7.108-3.696,11.463-4.602c0.073-0.018,0.146,0.01,0.211,0c0.467-0.073,1.684-0.211,2.25,0.201c1.374,0.998,0.806,4.117,0.925,6.25c0.248,4.593,1.398,8.291,3.177,11.155c0.74,1.206,2.601,2.396,2.663,4.409C359.694,309.097,356.922,310.999,355.33,312.318z M397.104,264.083c-5.685,9.123-12.127,17.669-18.942,26.016c-1.124,1.374-2.372,2.856-3.788,4.403c-1.024,1.107-2.967,3.604-4.303,3.79c-2.195,0.291-3.979-2.099-4.5-3.79c-1.063-3.43-0.513-7.273,0.1-10.552c0.622-3.313,1.756-6.204,3.587-8.089c3.11-3.211,8.85-5.746,13.515-7.888c5.446-2.488,10.333-4.922,15.355-6.451c0.038,0,0.075,0,0.102,0C398.301,262.503,397.588,263.316,397.104,264.083z M416.356,225.274c-0.96,3.269-2.141,6.077-3.479,8.504c-3.001,5.406-7.584,8.508-12.602,11.465c-5.158,3.037-10.559,5.708-15.867,8.19c-5.508,2.568-10.695,5.443-16.799,7.273c-1.281-3.185-1.1-7.613-0.815-11.778c0.274-4.064,0.686-8.144,2.251-10.649c1.851-2.957,6.197-5.382,9.727-7.267c7.645-4.083,14.898-7.614,22.531-11.366c3.74-1.838,7.879-3.861,12.188-4.711C419.23,213.791,417.399,221.726,416.356,225.274z M53.449,174.178c-0.303,1.347-1.638,2.168-2.654,2.863c-3.999,2.72-10.157,4.22-13.013,8.201c-1.967,2.754-2.645,7.111-3.275,11.155c-0.648,4.246-1.527,8.302-1.538,12.802c-0.009,5.28,2.681,7.815,5.537,10.45c2.112,1.949,4.018,3.817,5.837,6.14c0.512,0.668,1.446,1.5,0.915,2.563c-1.637,0.467-3.203-0.586-4.501-1.437c-1.244-0.805-2.407-1.813-3.486-2.764c-3.038-2.672-6.643-6.004-7.063-11.163c-0.237-2.958,0.074-5.931,0.312-8.804c0.449-5.372,1.181-10.761,2.352-15.767c0.697-2.956,1.482-6.286,3.176-7.989c1.557-1.564,4.705-3.01,7.065-3.999c2.753-1.144,5.902-2.534,8.702-2.663C52.496,173.74,53.054,173.74,53.449,174.178z"/></svg>