<?xml version="1.0" encoding="UTF-8" standalone="no"?>
<!-- Created with Inkscape (http://www.inkscape.org/) -->
<svg xmlns:svg="http://www.w3.org/2000/svg" xmlns="http://www.w3.org/2000/svg" version="1.0" width="426.96851" height="425.19684" id="svg2720">
  <defs id="defs2722"/>
  <g transform="translate(-6960.9328,4232.7561)" id="layer1">
    <g transform="matrix(59.292287,0,0,-59.292287,7141.5395,-4112.0607)" id="g3098" style="fill:#000000">
      <path d="M 0,0 C 0,0.569 0.496,0.61 0.626,0.61 C 0.756,0.61 1.578,0.541 1.578,-0.212 C 1.578,-0.965 0.941,-1.074 0.414,-1.074 L 0.414,-1.307 C 0.811,-1.307 1.653,-1.437 1.653,-2.327 C 1.653,-3.217 0.825,-3.313 0.202,-3.313 L 0.202,-3.593 C 0.202,-3.593 -0.003,-3.593 0.996,-3.593 C 2.002,-3.593 2.824,-3.237 2.824,-2.376 C 2.824,-1.512 1.961,-1.211 1.359,-1.184 C 1.359,-1.184 2.625,-1.088 2.625,-0.28 C 2.625,0.562 1.585,0.897 0.442,0.897 C -0.67,0.897 -1.232,0.443 -1.232,-0.397 C -1.232,-1.054 -1.229,-4.538 -1.229,-4.538 L -2.447,-4.538 L -2.447,1.438 L 3.556,1.438 L 3.556,-4.538 L 0.004,-4.538 C 0.004,-4.538 0,-0.568 0,0" id="path3100" style="fill:#000000;fill-opacity:1;fill-rule:nonzero;stroke:none"/>
    </g>
  </g>
</svg>