<?xml version="1.0" encoding="UTF-8"?>
<!DOCTYPE svg PUBLIC "-//W3C//DTD SVG 1.1//EN" "http://www.w3.org/Graphics/SVG/1.1/DTD/svg11.dtd" [
	<!ENTITY ns_flows "http://ns.adobe.com/Flows/1.0/">
	<!ENTITY ns_svg "http://www.w3.org/2000/svg">
	<!ENTITY ns_xlink "http://www.w3.org/1999/xlink">
]>
<svg version="1.1" xmlns="http://www.w3.org/2000/svg" xmlns:xlink="http://www.w3.org/1999/xlink" xmlns:a="http://ns.adobe.com/AdobeSVGViewerExtensions/3.0/" width="306" height="113" viewBox="-30 -27 306 113" enable-background="new -30 -27 306 113" xml:space="preserve">
<defs>
</defs>
<path fill-rule="evenodd" clip-rule="evenodd" d="M240.1347656,58.1210938h-1.5507813l-0.6337891,4.7910156h-0.7753906  l0.7041016-4.7910156h-1.5498047l0.0703125-0.6357422h3.8046875L240.1347656,58.1210938L240.1347656,58.1210938z   M245.7714844,62.9121094h-0.7753906v-4.1582031l0,0l-2.1845703,4.1582031l-0.9160156-4.1582031l0,0l-1.3378906,4.1582031  h-0.7041016l1.7597656-5.4267578h0.6357422l0.8457031,3.6660156l1.9013672-3.6660156h0.7753906V62.9121094L245.7714844,62.9121094z   M227.1796875,0.0576172h-28.0683594c0,0-7.4384766,8.7763672-8.8339844,10.4619141  c-7.3789063,8.8896484-8.7148438,11.2734375-8.9492188,11.9130859c0.0585938-0.6396484-0.2333984-3.0234375-3.3710938-12.03125  c-0.8701172-2.440918-3.5449219-10.34375-3.5449219-10.34375h-9.5878906V0l-23.3623047,0.0576172h-17.5493164l-1.8022461,7.4394531  l13.3076172,0.0571289h3.0791016c8.5429688,0,13.7753906,3.4287109,12.3212891,9.4736328  c-1.5693359,6.6245117-9.0673828,9.5302734-16.96875,9.5302734h-2.9648438l3.8359375-16.2709961H121.472168l-5.6381836,23.7675781  h18.8291016c14.1201172,0,27.6044922-7.4389648,29.9296875-17.0268555c0.4638672-1.7446289,0.40625-6.1035156-0.6992188-8.7172852  c0-0.1166992-0.0576172-0.1748047-0.1152344-0.4072266c-0.0595703-0.0576172-0.1171875-0.465332,0.1152344-0.5219727  c0.1171875-0.0585938,0.3505859,0.1728516,0.4082031,0.2314453c0.1152344,0.2905273,0.1738281,0.5229492,0.1738281,0.5229492  l11.9707031,33.8222656l30.5097656-34.4038086h12.9013672H222.9375c8.5429688,0,13.7744141,3.4287109,12.3779297,9.4736328  c-1.6269531,6.6245117-9.1240234,9.5302734-17.0263672,9.5302734h-2.9638672l3.8349609-16.2709961h-13.25l-5.6357422,23.7675781  h18.828125c14.1220703,0,27.6630859-7.4389648,29.9287109-17.0268555  C251.3554688,7.4970703,241.359375,0.0576172,227.1796875,0.0576172L227.1796875,0.0576172z M83.5019531,0.0581055  L42.9057617,0.1152344l-3.3164063,13.8300781H22.0756836l3.3164063-13.8300781L12.1293945,0.0981445L3.9951172,34.0195313  l13.2705078-0.0141602l3.1967773-13.331543h17.5136719l-3.1972656,13.331543H48.027832l6.3579102-26.5131836l21.7939453,0.0625  h3.0800781c8.5424805,0,13.7729492,3.4287109,12.378418,9.4726563c-1.6274414,6.625-9.1240234,9.5307617-17.027832,9.5307617  h-2.9638672l3.8359375-16.2719727h-13.25l-5.637207,23.7685547h18.8291016c14.121582,0,27.6616211-7.4384766,29.9282227-17.0273438  C107.6767578,7.496582,97.6816406,0.0581055,83.5019531,0.0581055L83.5019531,0.0581055z M176.9121094,42.0742188  c-35.7978516,0-64.7973633,4.1269531-64.7973633,9.1816406c0,5.1142578,28.9995117,9.1816406,64.7973633,9.1816406  c35.796875,0,64.8535156-4.0673828,64.8535156-9.1816406C241.765625,46.2011719,212.7089844,42.0742188,176.9121094,42.0742188  L176.9121094,42.0742188z M174.5869141,54.5097656c-8.1953125,0-14.8193359-1.3935547-14.8193359-3.0791016  c0-1.6835938,6.6240234-3.0224609,14.8193359-3.0224609c8.1943359,0,14.8193359,1.3388672,14.8193359,3.0224609  C189.40625,53.1162109,182.78125,54.5097656,174.5869141,54.5097656L174.5869141,54.5097656z M117.5273438,42.0742188  c-35.7983398,0-64.796875,4.1259766-64.796875,9.1826172c0,5.1132813,28.9985352,9.1816406,64.796875,9.1816406  c4.3886719,0,8.6748047-0.0615234,12.8203125-0.1787109c-29.6533203-0.8349609-51.9775391-4.5166016-51.9775391-9.0029297  c0-4.4365234,22.3242188-8.15625,51.9775391-9.0019531C126.2021484,42.1367188,121.9160156,42.0742188,117.5273438,42.0742188  L117.5273438,42.0742188z M64.796875,42.0742188C28.9990234,42.0742188,0,46.2001953,0,51.2568359  c0,5.1132813,28.9990234,9.1816406,64.796875,9.1816406c4.3891602,0,8.675293-0.0615234,12.8208008-0.1787109  c-29.6533203-0.8349609-51.9780273-4.5166016-51.9780273-9.0029297c0-4.4365234,22.324707-8.15625,51.9780273-9.0019531  C73.472168,42.1367188,69.1860352,42.0742188,64.796875,42.0742188L64.796875,42.0742188z"/>
</svg>