<?xml version="1.0" encoding="UTF-8"?>
<!DOCTYPE svg PUBLIC "-//W3C//DTD SVG 1.1//EN" "http://www.w3.org/Graphics/SVG/1.1/DTD/svg11.dtd">
<!-- Creator: CorelDRAW -->
<svg xmlns="http://www.w3.org/2000/svg" xml:space="preserve" width="2003px" height="1339px" shape-rendering="geometricPrecision" text-rendering="geometricPrecision" image-rendering="optimizeQuality" fill-rule="evenodd" clip-rule="evenodd" viewBox="0 0 2140.37 1430.04" xmlns:xlink="http://www.w3.org/1999/xlink">
 <g id="Ebene_x0020_1">
  <metadata id="CorelCorpID_0Corel-Layer"/>
  <polygon fill="#1F1A17" points="1356.29,492.257 1589.92,0.505989 2140.37,0.505989 1906.73,492.257 "/>
  <polygon fill="#1F1A17" points="962.546,742.543 1315.73,0 1039.52,0 569.154,990.044 1669.99,990.044 1787.25,742.543 "/>
  <polygon fill="#1F1A17" points="77.5589,1374.64 207.796,1374.64 184.979,1422.06 0,1422.06 126.019,1160.11 180.757,1160.11 "/>
  <path fill="#1F1A17" d="M257.731 1422.06l-57.6436 0 224.067 -261.951 60.5458 0 -33.7044 261.951 -59.4594 0 8.63588 -56.0575 -96.6893 0 -45.7523 56.0575zm79.5349 -94.8332l68.0991 0 19.1393 -108.037 -0.739425 0 -86.4989 108.037z"/>
  <polygon fill="#1F1A17" points="980.791,1206.44 841.798,1206.44 815.302,1261.53 937.829,1261.53 915.556,1307.86 792.988,1307.86 760.331,1375.73 903.005,1375.73 880.694,1422.06 681.847,1422.06 807.863,1160.11 1003.11,1160.11 "/>
  <path fill="#1F1A17" d="M1134.85 1362.91c-14.9475,34.2811 -18.3203,45.6311 -19.3323,50.7844 -1.041,5.14948 -0.498418,8.25355 -0.498418,8.25355 0,-0.00378545 -50.2797,0.227127 -50.2797,0 0,-0.275076 -0.774756,-3.36905 -0.774756,-10.3065 0,-8.79109 9.01821,-30.912 13.7437,-40.9069 16.545,-35.0596 7.01445,-53.732 -17.1166,-53.732l-51.2134 -0.00378545 -49.3119 105.098 -56.5963 0 123.304 -261.99 127.521 0c66.7527,0 59.3105,54.1964 49.9768,74.0725 -12.2775,26.0704 -40.1321,49.5466 -83.4478,62.4083 9.3425,5.34506 41.6463,8.44535 14.1462,66.8991l-47.1504 -88.056c31.577,0 50.5976,-19.4774 58.2279,-35.7864 7.82201,-16.627 2.44162,-35.8344 -20.8036,-35.8344l-62.6316 -0.00378545 -33.5126 71.6246 58.72 0 47.0305 87.4793z"/>
  <path fill="#1F1A17" d="M1355.2 1160.11l104.832 0c96.1833,0 73.2523,95.6875 58.6468,126.061 -34.3202,71.3167 -89.4869,135.894 -191.485,135.894l-98.013 -0.00378545 126.019 -261.951zm-47.5251 216.748l50.1648 0c47.8406,0 78.7917,-35.9479 102.809,-85.8869 36.5322,-76.0081 -14.3696,-85.6106 -24.6408,-85.6106l-45.8646 -0.00378545 -82.4686 171.501z"/>
  <polygon fill="#1F1A17" points="1531.07,1422.06 1476.34,1422.06 1602.35,1160.11 1657.09,1160.11 "/>
  <path fill="#1F1A17" d="M1644.58 1342.45c-9.18477,20.1134 -11.5873,44.9409 35.0949,44.9409 22.5096,-0.00252364 58.3793,-7.59488 71.0467,-33.9341 9.83966,-20.4604 -6.19679,-31.0672 -30.7593,-37.6539l-24.9487 -6.55136c-37.5795,-9.87751 -74.9217,-18.8225 -47.2235,-76.4662 14.068,-29.2086 57.5654,-81.1576 142.599,-81.1576 80.2706,0 78.5999,50.9787 63.5338,83.097l-52.5661 0c4.1804,-11.6642 13.1254,-39.4015 -34.676,-39.4015 -19.9872,0 -47.5327,3.87504 -62.2556,34.4754 -9.83966,20.415 4.84412,24.796 14.5702,27.3512l58.3768 15.1872c22.584,6.27502 60.0474,18.9841 35.2931,70.4271 -37.8836,78.7955 -126.712,87.2787 -149.725,87.2787 -95.5726,0 -86.5443,-55.0847 -70.9331,-87.5891l52.5724 -0.00378545z"/>
  <path fill="#1F1A17" d="M2058.97 1241.73c3.25928,-15.6894 9.72609,-49.3876 -36.6848,-49.3876 -18.7077,0 -78.0573,12.2005 -115.984,89.02 -23.2402,47.0646 -25.0269,102.27 22.5096,102.27 31.1089,0 62.8322,-14.5652 85.4188,-46.6797l56.1724 0c-39.3246,56.908 -98.7095,92.0446 -166.115,92.0446 -71.5501,-0.00252364 -98.5934,-54.2733 -53.8885,-144.766 45.2059,-91.5815 122.531,-133.15 191.838,-133.15 80.5027,-0.00378545 84.3715,51.9491 68.2581,90.6503l-51.5251 -0.00252364z"/>
  <path fill="#1F1A17" d="M532.389 1342.45c-9.1772,20.1134 -11.581,44.9409 35.1025,44.9409 22.5058,-0.00252364 58.373,-7.59488 71.0429,-33.9341 9.84344,-20.4604 -6.20057,-31.0672 -30.7556,-37.6539l-24.9512 -6.55136c-37.5769,-9.87751 -74.9192,-18.8225 -47.1832,-76.4662 14.0264,-29.2086 57.5667,-81.1576 142.561,-81.1576 80.3021,0 78.5999,50.9787 63.5262,83.097l-52.5257 0c4.14381,-11.6642 13.0914,-39.4015 -34.7101,-39.4015 -19.9897,0 -47.5314,3.87504 -62.2543,34.4754 -9.80054,20.415 4.87945,24.796 14.6055,27.3512l58.3376 15.1872c22.5878,6.27502 60.0865,18.9841 35.336,70.4271 -37.9303,78.7955 -126.758,87.2787 -149.731,87.2787 -95.6067,0 -86.5784,-55.0847 -70.9306,-87.5891l52.5295 -0.00378545z"/>
 </g>
</svg>