<?xml version="1.0" encoding="utf-8"?>
<!-- Generator: Adobe Illustrator 16.0.0, SVG Export Plug-In . SVG Version: 6.00 Build 0)  -->
<!DOCTYPE svg PUBLIC "-//W3C//DTD SVG 1.1//EN" "http://www.w3.org/Graphics/SVG/1.1/DTD/svg11.dtd">
<svg version="1.1" id="Layer_1" xmlns="http://www.w3.org/2000/svg" xmlns:xlink="http://www.w3.org/1999/xlink" x="0px" y="0px"
	 width="512px" height="196px" viewBox="0 0 512 196" enable-background="new 0 0 512 196" xml:space="preserve">
<path fill-rule="evenodd" clip-rule="evenodd" d="M305.48,137.03c-4.53,0-8.891,0-13.536,0c0-35.992,0-71.887,0-107.781
	c-0.173-0.041-0.346-0.082-0.519-0.123c-0.885,1.755-1.786,3.502-2.652,5.267c-7.41,15.086-14.814,30.174-22.217,45.263
	c-9.121,18.595-18.252,37.184-27.32,55.803c-0.634,1.303-1.337,1.76-2.763,1.706c-3.025-0.115-6.061-0.123-9.085,0.001
	c-1.551,0.063-2.362-0.42-3.063-1.851c-8.684-17.733-17.441-35.432-26.181-53.137c-8.407-17.03-16.814-34.06-25.227-51.087
	c-0.326-0.659-0.708-1.29-1.45-1.858c0,35.892,0,71.782,0,107.784c-4.734,0-9.218,0-13.844,0c0-45.525,0-91.054,0-136.815
	c4.627,0,9.245-0.025,13.86,0.047c0.384,0.006,0.897,0.607,1.116,1.049c10.016,20.167,20.012,40.343,29.997,60.524
	c9.307,18.813,18.599,37.634,27.899,56.45c0.309,0.624,0.643,1.235,1.149,2.208c0.732-1.407,1.33-2.503,1.88-3.623
	c8.372-17.049,16.737-34.101,25.105-51.151c10.314-21.017,20.658-42.018,30.897-63.07c0.922-1.896,1.918-2.616,4.048-2.504
	c3.914,0.206,7.845,0.059,11.905,0.059C305.48,45.831,305.48,91.359,305.48,137.03z"/>
<path fill-rule="evenodd" clip-rule="evenodd" d="M335.767,136.945c0-45.557,0-90.995,0-136.638
	c0.556-0.039,1.104-0.113,1.653-0.112c17.728,0.005,35.461-0.265,53.18,0.121c13.537,0.295,26.809,2.711,39.014,8.938
	c18.123,9.247,30.228,23.521,34.782,43.604c1.882,8.295,2.156,16.718,1.055,25.223c-1.469,11.339-5.483,21.562-12.432,30.617
	c-9.435,12.297-21.774,20.301-36.614,24.549c-7.29,2.088-14.723,3.444-22.308,3.521c-19.196,0.196-38.395,0.243-57.591,0.344
	C336.324,137.113,336.142,137.033,335.767,136.945z M349.072,12.599c0,37.452,0,74.659,0,111.859
	c0.302,0.091,0.482,0.195,0.661,0.192c16.595-0.282,33.206,0.73,49.789-0.658c8.315-0.696,16.256-2.695,23.644-6.62
	c11.104-5.9,19.862-14.18,25.065-25.77c4.544-10.122,5.604-20.74,4.02-31.722c-1.63-11.308-6.462-20.935-14.393-29.084
	c-12.146-12.479-27.253-17.845-44.327-18.156c-11.79-0.216-23.586-0.042-35.38-0.042C355.191,12.599,352.23,12.599,349.072,12.599z"
	/>
<path fill-rule="evenodd" clip-rule="evenodd" d="M0.023,0.263c4.609,0,8.968,0,13.567,0c0,0.819,0,1.568,0,2.317
	c0.014,25.527-0.134,51.057,0.119,76.581c0.111,11.303,3.112,21.914,10.418,30.895c7.191,8.841,16.604,14.132,27.709,16.105
	c11.312,2.011,22.578,1.64,33.382-2.837c14.436-5.98,23.441-16.711,26.905-31.885c1.046-4.583,1.552-9.384,1.581-14.089
	c0.151-24.882,0.071-49.765,0.071-74.648c0-0.759,0-1.519,0-2.395c4.644,0,9.125,0,13.785,0c0.039,0.532,0.114,1.085,0.114,1.639
	c-0.001,25.526,0.22,51.057-0.112,76.58c-0.169,13.002-3.183,25.472-11.024,36.229c-8.654,11.872-20.5,18.961-34.678,22.368
	c-7.752,1.863-15.639,2.381-23.54,1.867c-14.703-0.957-28.111-5.52-39.373-15.359c-9.222-8.057-14.793-18.267-17.355-30.176
	C0.428,88.041-0.012,82.566,0,77.022C0.054,52.269,0.023,27.515,0.023,2.761C0.023,1.995,0.023,1.229,0.023,0.263z"/>
<path fill-rule="evenodd" clip-rule="evenodd" d="M239.105,172.432c0,7.489,0,14.979,0,22.59c-1.232,0-2.283,0-3.455,0
	c0-9.563,0-19.069,0-28.859c1.377,0,2.782-0.118,4.147,0.065c0.466,0.063,1.005,0.814,1.214,1.364c2.653,6.989,5.249,14,7.869,21
	c0.216,0.576,0.512,1.121,0.921,2.006c1.662-4.363,3.207-8.414,4.748-12.469c1.295-3.407,2.662-6.791,3.841-10.238
	c0.483-1.41,1.191-1.94,2.641-1.755c0.947,0.12,1.921,0.022,3.033,0.022c0,9.641,0,19.193,0,28.867c-1.005,0-2.01,0-3.243,0
	c0-7.695,0-15.441,0-23.188c-0.145-0.037-0.289-0.072-0.434-0.107c-0.28,0.6-0.601,1.186-0.836,1.803
	c-2.556,6.691-5.125,13.379-7.619,20.094c-0.38,1.023-0.735,1.605-1.971,1.562c-1.146-0.041-1.832-0.214-2.285-1.464
	c-2.29-6.315-4.697-12.587-7.078-18.867c-0.325-0.857-0.735-1.683-1.106-2.523C239.364,172.367,239.235,172.398,239.105,172.432z"/>
<path fill-rule="evenodd" clip-rule="evenodd" d="M138.485,181.104c3.845,1.69,4.113,5.063,4.285,8.548
	c0.087,1.767,0.46,3.519,0.726,5.43c0.033-0.005-0.185,0.053-0.404,0.06c-3.565,0.102-3.638-0.043-3.819-3.721
	c-0.088-1.777-0.367-3.568-0.787-5.299c-0.556-2.291-1.972-3.315-4.313-3.34c-3.091-0.033-6.183-0.008-9.504-0.008
	c0,4.083,0,8.102,0,12.246c-1.354,0-2.486,0-3.775,0c0-9.506,0-19.064,0-29.058c5.564,0.214,11.146,0.219,16.683,0.725
	c3.057,0.28,5.246,3.044,5.561,5.874C143.601,176.734,142.356,179.074,138.485,181.104z M124.663,179.857
	c3.798-0.199,7.376-0.302,10.938-0.607c2.23-0.191,3.713-2.041,3.959-4.504c0.218-2.171-1.083-4.793-3.083-4.953
	c-3.904-0.313-7.852-0.092-11.814-0.092C124.663,172.922,124.663,176.18,124.663,179.857z"/>
<path fill-rule="evenodd" clip-rule="evenodd" d="M372.294,165.809c5.154,0.379,10.179,0.426,15.087,1.203
	c4.659,0.738,7.918,4.679,8.306,9.393c0.233,2.844,0.364,5.797-0.135,8.579c-1.153,6.425-5.022,9.684-11.733,10.099
	c-3.78,0.234-7.587,0.042-11.524,0.042C372.294,185.491,372.294,175.938,372.294,165.809z M376.1,192.027
	c2.621,0,5.005,0.088,7.382-0.02c3.891-0.174,6.99-2.359,7.907-6.152c0.664-2.746,0.863-5.701,0.686-8.526
	c-0.18-2.877-1.477-5.51-4.309-6.851c-3.753-1.776-7.732-1.081-11.666-1.067C376.1,177.048,376.1,184.433,376.1,192.027z"/>
<path fill-rule="evenodd" clip-rule="evenodd" d="M295.594,195.095c0-9.731,0-19.188,0-28.803c3.806,0,7.569-0.066,11.329,0.033
	c1.453,0.038,2.951,0.282,4.332,0.729c4.009,1.296,6.591,3.985,7.562,8.168c0.979,4.225,0.751,8.426-0.627,12.461
	c-1.671,4.887-5.689,6.983-10.519,7.35C303.719,195.334,299.728,195.095,295.594,195.095z M299.5,192.03
	c2.666,0,5.18,0.166,7.664-0.039c3.802-0.313,6.497-2.347,7.686-6.019c1.193-3.684,1.187-7.437,0.029-11.148
	c-0.856-2.747-2.811-4.594-5.541-5.039c-3.188-0.52-6.468-0.467-9.837-0.67C299.5,176.918,299.5,184.351,299.5,192.03z"/>
<path fill-rule="evenodd" clip-rule="evenodd" d="M50.642,189.894c0-8.169,0-15.796,0-23.579c1.192,0,2.241,0,3.428,0
	c0,9.516,0,19.066,0,28.625c-2.513,0.65-4.246,0.131-5.718-2.283c-4.039-6.621-8.371-13.064-12.591-19.577
	c-0.236-0.364-0.508-0.706-1.104-1.528c0,8.117,0,15.705,0,23.443c-1.169,0-2.095,0-3.164,0c0-9.511,0-19.063,0-28.609
	c3.351-0.59,3.363-0.588,5.121,2.121c4.292,6.619,8.578,13.24,12.873,19.856C49.743,188.755,50.051,189.113,50.642,189.894z"/>
<path fill-rule="evenodd" clip-rule="evenodd" d="M147.057,185.564c1.154,0,2.165,0,3.169,0c1.567,5.977,7.032,8.655,12.871,6.366
	c2.136-0.838,3.456-2.413,3.478-4.632c0.021-2.071-1.198-3.674-3.265-4.273c-3.306-0.961-6.675-1.707-9.976-2.684
	c-2.656-0.787-4.704-2.313-5.253-5.277c-0.522-2.812,0.219-5.291,2.426-7.034c4.229-3.34,8.963-3.525,13.762-1.421
	c3.133,1.374,4.338,4.182,4.727,7.568c-1.088,0-2.143,0-3.209,0c-2.224-5.178-5.061-6.65-10.315-5.338
	c-2.271,0.567-3.695,2.162-3.805,4.26c-0.101,1.918,0.971,3.479,3.285,4.178c2.686,0.813,5.481,1.264,8.172,2.061
	c2.986,0.886,5.823,2.047,6.816,5.51c0.898,3.136-0.127,6.563-2.834,8.316c-5.09,3.296-10.409,3.383-15.676,0.519
	C148.347,192.006,147.249,189.049,147.057,185.564z"/>
<path fill-rule="evenodd" clip-rule="evenodd" d="M410.043,185.985c2.06-0.497,3.157-0.272,3.755,2.011
	c0.871,3.322,5.382,5.377,9.363,4.732c0.999-0.161,2.002-0.379,2.96-0.702c2.001-0.674,3.135-2.282,3.284-4.298
	c0.162-2.186-0.948-3.693-2.8-4.346c-2.637-0.93-5.423-1.426-8.126-2.178c-2.839-0.79-5.76-1.489-7.167-4.563
	c-1.154-2.521-0.454-6.327,1.617-8.162c2.41-2.135,5.338-3.196,8.484-3.035c3.559,0.182,7.115,0.896,9.066,4.418
	c0.741,1.339,1.026,2.932,1.604,4.662c-1.488,0-2.494,0-3.722,0c-0.422-3.607-2.737-5.616-6.296-5.82
	c-1.82-0.104-3.771,0.424-5.511,1.074c-1.667,0.623-2.146,2.395-2.101,4.016c0.049,1.776,1.298,2.988,2.913,3.481
	c2.617,0.8,5.373,1.177,7.946,2.083c2.119,0.746,4.423,1.615,6.002,3.109c3.091,2.927,2.045,8.768-1.653,11.273
	c-4.196,2.842-11.736,2.817-15.832-0.126C411.272,191.779,409.938,189.275,410.043,185.985z"/>
<path fill-rule="evenodd" clip-rule="evenodd" d="M99.946,192.097c5.428,0,10.687,0,16.035,0c0,1.026,0,1.902,0,2.916
	c-6.611,0-13.202,0-19.907,0c0-9.548,0-19.054,0-28.707c6.57,0,13.159,0,19.864,0c0,0.924,0,1.847,0,2.944
	c-5.322,0-10.577,0-15.979,0c0,3.219,0,6.27,0,9.555c4.9,0,9.821,0,14.846,0c0,1.11,0,1.988,0,3.077c-4.884,0-9.804,0-14.859,0
	C99.946,185.329,99.946,188.569,99.946,192.097z"/>
<path fill-rule="evenodd" clip-rule="evenodd" d="M289.639,178.84c0,1.116,0,1.995,0,3.058c-5.012,0-10.008,0-15.154,0
	c0,3.415,0,6.651,0,10.096c5.428,0,10.803,0,16.297,0c0,1.121,0,2.04,0,3.058c-6.622,0-13.166,0-19.85,0c0-9.575,0-19.125,0-28.783
	c6.499,0,12.965,0,19.539,0c0,0.957,0,1.836,0,3.025c-1.611,0-3.258,0-4.904,0c-3.155,0-6.312,0.049-9.466-0.024
	c-1.293-0.03-1.87,0.291-1.795,1.708c0.109,2.056,0.109,4.125,0,6.18c-0.075,1.418,0.503,1.727,1.794,1.709
	C280.539,178.802,284.979,178.84,289.639,178.84z"/>
<path fill-rule="evenodd" clip-rule="evenodd" d="M198.191,195.053c-3.883,0.293-3.859,0.284-5.161-3.224
	c-0.641-1.727-0.95-4.031-2.219-4.938c-1.208-0.861-3.473-0.288-5.271-0.264c-2.298,0.032-5.122-0.636-6.741,0.452
	c-1.526,1.025-1.785,3.938-2.595,6.021c-0.252,0.647-0.487,1.302-0.744,1.987c-1.194,0-2.343,0-3.782,0
	c1.341-3.448,2.626-6.753,3.912-10.058c2.294-5.899,4.556-11.811,6.933-17.676c0.222-0.549,1.172-1.141,1.767-1.123
	c1.059,0.031,2.45-0.803,3.125,0.938c3.563,9.18,7.18,18.34,10.772,27.509C198.228,194.787,198.191,194.928,198.191,195.053z
	 M189.804,183.11c-1.577-4.411-3.096-8.657-4.615-12.903c-0.174,0.017-0.348,0.034-0.522,0.052
	c-1.557,4.246-3.113,8.492-4.71,12.852C183.35,183.11,186.422,183.11,189.804,183.11z"/>
<path fill-rule="evenodd" clip-rule="evenodd" d="M1.618,166.205c1.347,0,2.436,0,3.85,0c0,0.69,0,1.365,0,2.039
	c0,5.477-0.007,10.953,0.002,16.43c0.011,6.607,6.489,10.396,12.299,7.189c2.772-1.529,3.465-4.186,3.503-7.027
	c0.081-6.118,0.025-12.238,0.025-18.518c1.125,0,2.179,0,3.375,0c0.052,0.335,0.172,0.757,0.173,1.18
	c0.011,5.928-0.033,11.855,0.012,17.783c0.053,6.988-4.078,9.941-10.012,10.556c-1.864,0.192-3.842-0.146-5.697-0.558
	c-4.662-1.036-7.244-4.248-7.452-8.828C1.393,179.777,1.618,173.078,1.618,166.205z"/>
<path fill-rule="evenodd" clip-rule="evenodd" d="M358.03,195.146c-1.177,0-2.093,0.149-2.924-0.051
	c-0.594-0.143-1.333-0.644-1.563-1.176c-0.858-1.993-1.463-4.095-2.323-6.087c-0.229-0.531-1.017-1.146-1.564-1.163
	c-3.409-0.105-6.825-0.106-10.233,0.002c-0.546,0.017-1.31,0.643-1.558,1.18c-0.696,1.504-1.168,3.111-1.743,4.672
	c-1.063,2.889-1.195,2.957-4.613,2.405c2.422-6.21,4.833-12.392,7.244-18.574c1.047-2.683,2.259-5.316,3.08-8.067
	c0.531-1.78,1.387-2.416,3.135-2.143c0.563,0.088,1.152,0.014,1.839,0.014C350.521,175.752,354.224,185.316,358.03,195.146z
	 M344.823,170.154c-0.15-0.027-0.3-0.057-0.451-0.086c-1.583,4.308-3.166,8.614-4.768,12.973c3.422,0,6.584,0,9.953,0
	C347.932,178.617,346.378,174.387,344.823,170.154z"/>
<path fill-rule="evenodd" clip-rule="evenodd" d="M462.107,184.52c0.466,5.208-4.115,10.532-9.61,10.976
	c-1.969,0.158-4.03,0.19-5.946-0.211c-5.229-1.097-8.274-4.522-9.492-9.668c-1.179-4.979-0.957-9.794,1.861-14.214
	c2.643-4.146,6.757-5.966,11.431-5.927c4.615,0.039,8.663,1.761,10.894,6.276c0.198,0.401,0.421,0.801,0.546,1.226
	c0.144,0.486,0.19,1.001,0.311,1.683c-0.923,0-1.815,0.092-2.676-0.037c-0.465-0.068-1.134-0.416-1.271-0.798
	c-1.38-3.824-4.343-5.323-8.093-5.259c-3.983,0.068-7.039,1.99-8.583,5.748c-1.926,4.686-1.731,9.368,0.675,13.871
	c1.774,3.316,4.86,4.584,8.351,4.5c3.81-0.092,6.476-2.083,7.604-5.902C458.937,183.984,458.987,183.999,462.107,184.52z"/>
<path fill-rule="evenodd" clip-rule="evenodd" d="M68.194,166.277c3.693-0.318,3.702-0.32,4.792,2.943
	c2.237,6.7,4.463,13.404,6.697,20.105c0.175,0.523,0.376,1.039,0.747,2.053c1.157-3.384,2.172-6.31,3.157-9.246
	c1.479-4.406,2.905-8.832,4.414-13.229c1.036-3.021,1.081-3.006,4.558-2.568c-1.445,4.125-2.876,8.212-4.312,12.298
	c-1.799,5.122-3.675,10.218-5.358,15.378c-0.459,1.408-1.372,1.2-2.248,1.1c-1.002-0.117-2.299,0.723-2.896-1.01
	c-3.14-9.119-6.36-18.211-9.547-27.314C68.16,166.676,68.194,166.537,68.194,166.277z"/>
<path fill-rule="evenodd" clip-rule="evenodd" d="M201.588,195.006c0-9.626,0-19.127,0-28.738c1.146,0,2.2,0,3.43,0
	c0,8.543,0,17.014,0,25.726c5.209,0,10.251,0,15.389,0c0,1.118,0,1.994,0,3.013C214.205,195.006,207.998,195.006,201.588,195.006z"
	/>
<path fill-rule="evenodd" clip-rule="evenodd" d="M64.467,195.467c-1.353,0-2.567,0-3.925,0c0-9.719,0-19.396,0-29.191
	c1.26,0,2.519,0,3.925,0C64.467,175.922,64.467,185.602,64.467,195.467z"/>
<path fill-rule="evenodd" clip-rule="evenodd" d="M324.292,166.246c1.391,0,2.649,0,4.008,0c0,9.719,0,19.351,0,29.125
	c-1.298,0-2.6,0-4.008,0C324.292,185.707,324.292,176.074,324.292,166.246z"/>
<path fill-rule="evenodd" clip-rule="evenodd" d="M404.843,195.468c-1.223,0-2.309,0-3.54,0c0-9.716,0-19.396,0-29.192
	c1.132,0,2.262,0,3.54,0C404.843,175.92,404.843,185.6,404.843,195.468z"/>
<path fill-rule="evenodd" clip-rule="evenodd" d="M463.785,114.271c-0.188-12.239,9.637-24.176,24.214-24.194
	c13.377-0.017,24.003,10.518,24.001,24.216c-0.001,12.827-9.288,24.06-23.954,24.231
	C473.604,138.693,463.644,127.021,463.785,114.271z M487.979,94.181c-10.653-0.39-20.57,9.135-20.361,20.203
	c0.224,11.773,9.122,20.313,20.494,20.273c11.534-0.04,19.981-9.077,20.048-20.332C508.232,102.064,497.659,93.813,487.979,94.181z
	 M482.332,116.257c0,3.832,0,7.414,0,11.097c-1.543,0-2.934,0-4.475,0c0-8.901,0-17.81,0-27.164
	c5.302,0.211,10.611,0.23,15.879,0.717c2.521,0.232,4.593,1.92,5.14,4.575c0.561,2.717,0.683,5.505-1.868,7.541
	c-0.29,0.231-0.521,0.535-0.945,0.978c2.602,1.586,2.559,4.071,2.676,6.632c0.078,1.718,0.765,3.407,1.172,5.111
	c0.114,0.48,0.201,0.969,0.354,1.712c-1.584,0-3.027,0.213-4.35-0.093c-0.635-0.147-1.336-1.22-1.486-1.977
	c-0.259-1.305,0.036-2.713-0.163-4.039c-0.61-4.045-1.15-5.058-5.092-5.086C486.991,116.244,484.811,116.257,482.332,116.257z
	 M482.412,112.359c0.661,0,1.165,0.001,1.669,0c1.804-0.004,3.618,0.111,5.409-0.038c3.286-0.274,5.226-2.21,4.782-4.942
	c-0.154-0.945-1.129-2.384-1.889-2.494c-3.26-0.474-6.58-0.537-9.972-0.755C482.412,107.07,482.412,109.568,482.412,112.359z"/>
</svg>
