<?xml version="1.0" encoding="UTF-8" standalone="no"?>
<!-- Created with Inkscape (http://www.inkscape.org/) -->
<svg xmlns:rdf="http://www.w3.org/1999/02/22-rdf-syntax-ns#" xmlns="http://www.w3.org/2000/svg" height="158.14" width="227.686" version="1.1" xmlns:cc="http://creativecommons.org/ns#" xmlns:dc="http://purl.org/dc/elements/1.1/">

 <metadata>

  <rdf:RDF>

   <cc:Work rdf:about="">

    <dc:format>image/svg+xml</dc:format>

    <dc:type rdf:resource="http://purl.org/dc/dcmitype/StillImage"/>

    <dc:title/>

   </cc:Work>

  </rdf:RDF>

 </metadata>

 <g transform="translate(-231.50262,-443.31576)">

  <path fill-rule="evenodd" fill="#231f20" d="m269.155,513.01-15.3169-42.86,9.38913,0,10.8369,31.7238,10.4981-31.7238,9.18063,0-15.3476,42.86-9.24025,0,0,0zm29.9365,0,0-42.86,8.65238,0,0,42.86-8.65238,0zm18.6714-42.86,15.8169,0c3.5625,0,6.27587,0.27,8.15237,0.81875,2.51413,0.73875,4.66988,2.05625,6.45601,3.95125,1.79587,1.88625,3.16462,4.20125,4.10087,6.93625,0.93,2.74375,1.3975,6.11625,1.3975,10.1375,0,3.52375-0.43875,6.56625-1.31625,9.1225-1.0675,3.1125-2.59512,5.6375-4.59125,7.5625-1.49662,1.4675-3.5225,2.605-6.07713,3.4225-1.90524,0.60875-4.46049,0.90875-7.66362,0.90875h-16.2754v-42.86zm8.65137,7.255,0,28.38,6.4565,0c2.41462,0,4.16163-0.13,5.23925-0.40875,1.3965-0.34875,2.5645-0.9375,3.49225-1.775,0.92875-0.84,1.67625-2.22625,2.26563-4.1425,0.57862-1.91625,0.87787-4.54125,0.87787-7.85375s-0.29925-5.8475-0.87787-7.62375c-0.58938-1.77625-1.40676-3.16375-2.45513-4.15125-1.05712-0.9975-2.3945-1.66625-4.01213-2.01625-1.20662-0.27875-3.57187-0.40875-7.10399-0.40875h-3.88238zm34.6172,35.605,0-42.86,27.0338,0,0,7.255-18.3825,0,0,9.5,16.7762,0,0,7.215-16.7762,0,0,11.665,19.2,0,0,7.225-27.8512,0zm32.1912-21.165c0-4.37125,0.64875-8.0325,1.95625-10.9975,0.9775-2.17375,2.305-4.14125,3.99125-5.87625,1.6875-1.7275,3.5325-3.015,5.53875-3.8525,2.675-1.1375,5.7475-1.69625,9.24-1.69625,6.31625,0,11.3662,1.95625,15.1575,5.8775,3.7925,3.91125,5.68875,9.36,5.68875,16.335,0,6.925-1.88625,12.3338-5.64875,16.2462-3.76125,3.9025-8.79125,5.8575-15.0775,5.8575-6.3775,0-11.4462-1.94625-15.2075-5.8275-3.7625-3.8925-5.63875-9.25125-5.63875-16.0662zm8.91125-0.29c0,4.85,1.1275,8.5325,3.36375,11.0375,2.245,2.50375,5.08875,3.75125,8.54125,3.75125,3.44375,0,6.2775-1.23625,8.4925-3.7325,2.205-2.48375,3.3125-6.20625,3.3125-11.175,0-4.91-1.0775-8.5725-3.2225-10.9975-2.155-2.415-5.02-3.6225-8.5825-3.6225-3.5725,0-6.44625,1.2275-8.6325,3.6725-2.17375,2.445-3.2725,6.1275-3.2725,11.0662zm-163.466,89.3762c-1.47944-9.67825-1.69428-9.69975-2.51703-34.8906-0.66406-20.353-0.44972-20.021-0.45753-20.3629-0.45702-21.7302-0.2627-42.564,2.51756-63.3765,0.78463-5.87875,2.25488-7.85125,7.77838-10.295,1.4565-0.645,1.4585-0.9075,7.54925-1.25875,5.82575-0.33625,5.78512-0.41875,14.6431-1.2575,24.0249-2.275,47.855-2.17375,71.8422-2.17375,32.1629,0,64.2116,0.0875,96.3216,2.63125,7.96625,0.63125,13.9362,0.9875,15.5588,11.325,2.97125,18.9488,3.1075,39.0088,3.20375,59.2579,0.0187,4.23187,0.17125,8.46924,0,12.6988-1.20125,29.292-0.7125,29.0615-3.53,51.2651-0.13375,1.04688-5.17,6.292-6.53875,7.18988-2.93125,1.92775-3.24375,1.66112-8.69375,2.17387-49.1438,4.63675-98.3978,4.02387-146.657,2.40325-13.0741-0.43937-26.1924-0.93837-39.1235-2.86025-7.19725-1.06987-8.27438-3.045-10.5244-8.12162-1.80962-4.0835-1.32175-4.00825-1.37312-4.34813zm5.33888-4.36037c-1.40525-8.9585-1.60887-8.979-2.39012-32.293-0.63138-18.8379-0.42775-18.5308-0.435-18.8471-0.43313-20.112-0.24951-39.3958,2.39162-58.6558,0.7455-5.44375,2.143-7.2675,7.38963-9.53,1.38274-0.5975,1.38575-0.84,7.17237-1.16375,5.53212-0.3125,5.49462-0.39,13.9096-1.16625,22.8296-2.10625,45.4546-2.01125,68.2451-2.01125,30.5505,0,60.998,0.0813,91.5005,2.435,7.56875,0.58375,13.2388,0.91375,14.7812,10.4825,2.82125,17.5388,2.95125,36.1038,3.04125,54.8444,0.0187,3.918,0.165,7.83887,0,11.7534-1.13875,27.1109-0.69375,26.8726-3.36875,47.4254-0.1275,0.96575-4.89375,5.84612-6.195,6.67912-2.785,1.78175-3.08125,1.53613-8.25875,2.01025-46.685,4.291-93.4726,3.72463-139.316,2.22313-12.419-0.40475-24.8819-0.86763-37.1651-2.6455-6.83637-0.99075-7.86088-2.81838-9.998-7.5185-1.71825-3.77788-1.25437-3.709-1.30475-4.022zm2.8975-55.9278,196.892,0v0.11775c0.0175,3.69812,0.155,7.40125,0,11.0971-1.075,25.5981-0.345,25.6826-2.8725,45.0874-0.11875,0.91363-4.93,5.21238-6.1575,5.99763-2.63,1.6835-2.91,1.45112-7.7975,1.90087-44.08,4.05125-88.2594,3.51513-131.546,2.10001-11.7265-0.38576-23.4931-0.82125-35.0928-2.49951-6.45462-0.93499-7.42087-2.66112-9.44038-7.09962-1.62212-3.56737-1.18362-3.50187-1.23-3.79725-1.32812-8.4595-1.51949-8.47713-2.25737-30.4942-0.59713-17.7841-0.40375-17.4946-0.41163-17.7939-0.0321-1.54538-0.062-3.083-0.0869-4.61625zm55.919,45.958,0,8.03613-32.0386,0c0.33687-3.03512,1.31299-5.913,2.96237-8.63325,1.63912-2.72075,4.88475-6.32425,9.71637-10.8209,3.90763-3.62299,6.29201-6.09174,7.17426-7.38424,1.18699-1.78513,1.78612-3.54926,1.78612-5.293,0-1.92326-0.51463-3.40375-1.55462-4.44425-1.03963-1.0405-2.46826-1.55525-4.29688-1.55525-1.80613,0-3.23487,0.54737-4.30613,1.62987-1.06112,1.09238-1.68074,2.899-1.84912,5.42l-8.61338-0.86188c0.51513-4.75774,2.12163-8.17137,4.83163-10.2524,2.71087-2.06987,6.09275-3.10837,10.1576-3.10837,4.45463,0,7.95225,1.2075,10.4946,3.60349,2.5415,2.40376,3.8125,5.38713,3.8125,8.95851,0,2.02725-0.36713,3.96037-1.09325,5.79974-0.72363,1.83738-1.87938,3.75926-3.4545,5.76563-1.05087,1.3345-2.942,3.25638-5.66213,5.75588-2.7315,2.50199-4.46487,4.17187-5.189,4.98974-0.72462,0.81988-1.32425,1.61863-1.77587,2.3945h18.898zm20.1952-36.8374c4.8975,0,8.71387,1.56638,11.4619,4.68463,3.27738,3.68787,4.92138,9.8105,4.92138,18.371,0,8.53026-1.65625,14.6646-4.9565,18.4044-2.72512,3.0795-6.52925,4.61225-11.4268,4.61225-4.8975,0-8.8555-1.68212-11.8618-5.063-3.00538-3.3735-4.50938-9.3925-4.50938-18.0474,0-8.49749,1.65538-14.6104,4.95513-18.3407,2.72462-3.07625,6.52975-4.62113,11.416-4.62113zm0,7.17438c-1.16263,0-2.208,0.33587-3.1245,0.9985-0.9155,0.67237-1.63137,1.86962-2.13625,3.59225-0.65725,2.23637-1.86125,5.99762-1.86125,11.2905,0,5.29551,1.1625,8.93163,1.75437,10.9053,0.59513,1.98537,1.351,3.29687,2.25538,3.959,0.9155,0.65087,1.94962,0.98887,3.11225,0.98887,1.17438,0,2.21975-0.338,3.13575-1.00987,0.916-0.66251,1.62937-1.86075,2.13675-3.583,0.65525-2.21475,1.86075-5.96475,1.86075-11.2603,0-5.29287-1.16062-8.92912-1.75488-10.9125-0.59175-1.97763-1.35049-3.29788-2.25487-3.97025-0.916-0.66263-1.94912-0.9985-3.1235-0.9985zm39.2058-7.17438c4.89875,0,8.715,1.56638,11.4638,4.68463,3.2775,3.68787,4.92125,9.8105,4.92125,18.371,0,8.53026-1.65625,14.6646-4.9575,18.4044-2.72375,3.0795-6.52875,4.61225-11.4275,4.61225-4.8975,0-8.85375-1.68212-11.86-5.063-3.00638-3.3735-4.51025-9.3925-4.51025-18.0474,0-8.49749,1.65525-14.6104,4.9565-18.3407,2.72375-3.07625,6.52875-4.62113,11.4138-4.62113zm0,7.17438c-1.16125,0-2.20625,0.33587-3.1225,0.9985-0.91625,0.67237-1.6325,1.86962-2.1375,3.59225-0.6575,2.23637-1.86,5.99762-1.86,11.2905,0,5.29551,1.16375,8.93163,1.755,10.9053,0.59375,1.98537,1.34875,3.29687,2.255,3.959,0.915,0.65087,1.94875,0.98887,3.11,0.98887,1.175,0,2.22125-0.338,3.13625-1.00987,0.9175-0.66251,1.63125-1.86075,2.13875-3.583,0.65375-2.21475,1.85875-5.96475,1.85875-11.2603,0-5.29287-1.16-8.92912-1.75375-10.9125-0.5925-1.97763-1.35-3.29788-2.255-3.97025-0.91625-0.66263-1.95-0.9985-3.125-0.9985zm39.6388-7.17438c4.8975,0,8.715,1.56638,11.4625,4.68463,3.2775,3.68787,4.92125,9.8105,4.92125,18.371,0,8.53026-1.655,14.6646-4.95625,18.4044-2.725,3.0795-6.53,4.61225-11.4275,4.61225-4.89875,0-8.85625-1.68212-11.8612-5.063-3.00625-3.3735-4.51-9.3925-4.51-18.0474,0-8.49749,1.65625-14.6104,4.95625-18.3407,2.725-3.07625,6.52875-4.62113,11.415-4.62113zm0,7.17438c-1.1625,0-2.2075,0.33587-3.12375,0.9985-0.915,0.67237-1.63125,1.86962-2.1375,3.59225-0.65625,2.23637-1.86,5.99762-1.86,11.2905,0,5.29551,1.1625,8.93163,1.75375,10.9053,0.59625,1.98537,1.35125,3.29687,2.25625,3.959,0.915,0.65087,1.94875,0.98887,3.11125,0.98887,1.17375,0,2.22125-0.338,3.13625-1.00987,0.91625-0.66251,1.62875-1.86075,2.1375-3.583,0.655-2.21475,1.86-5.96475,1.86-11.2603,0-5.29287-1.16125-8.92912-1.755-10.9125-0.59125-1.97763-1.35-3.29788-2.25375-3.97025-0.91625-0.66263-1.95125-0.9985-3.125-0.9985"/>

 </g>

</svg>