<?xml version="1.0" encoding="UTF-8" standalone="no"?>
<!-- Created with Inkscape (http://www.inkscape.org/) -->
<svg xmlns:dc="http://purl.org/dc/elements/1.1/" xmlns:cc="http://web.resource.org/cc/" xmlns:rdf="http://www.w3.org/1999/02/22-rdf-syntax-ns#" xmlns:svg="http://www.w3.org/2000/svg" xmlns="http://www.w3.org/2000/svg" xmlns:sodipodi="http://sodipodi.sourceforge.net/DTD/sodipodi-0.dtd" xmlns:inkscape="http://www.inkscape.org/namespaces/inkscape" width="835.05115" height="443.87006" id="svg2733" sodipodi:version="0.32" inkscape:version="0.44" version="1.0" sodipodi:docbase="R:\Logos" sodipodi:docname="Blu-Ray-Logo.svg">
  <defs id="defs2735"/>
  <sodipodi:namedview id="base" pagecolor="#ffffff" bordercolor="#666666" borderopacity="1.0" inkscape:pageopacity="0.0" inkscape:pageshadow="2" inkscape:zoom="0.35" inkscape:cx="350" inkscape:cy="520" inkscape:document-units="px" inkscape:current-layer="layer1" width="235.67mm" height="125.27mm" units="mm" inkscape:window-width="904" inkscape:window-height="574" inkscape:window-x="69" inkscape:window-y="69"/>
  <metadata id="metadata2738">
    <rdf:RDF>
      <cc:Work rdf:about="">
        <dc:format>image/svg+xml</dc:format>
        <dc:type rdf:resource="http://purl.org/dc/dcmitype/StillImage"/>
      </cc:Work>
    </rdf:RDF>
  </metadata>
  <g inkscape:label="Ebene 1" inkscape:groupmode="layer" id="layer1" transform="translate(-108.8729,-156.8213)">
    <g transform="matrix(0.551181,0,0,0.551181,132.0197,170.2166)" id="g2714">
      <path id="path106" class="ps02" d="M 244.57223,587.53295 C 241.19128,587.53295 230.899,590.82424 220.96163,605.198 C 210.96823,619.71733 167.44554,691.66239 159.09591,705.03301 C 150.70325,718.33084 153.58552,724.7882 162.42082,724.7882 C 171.20007,724.7882 172.41422,724.7882 181.94065,724.7882 C 191.44839,724.7882 199.12557,713.84408 203.16029,707.22222 C 207.32577,700.54625 259.32885,616.98088 266.76319,604.66931 C 274.2349,592.35594 269.43433,587.53295 264.35357,587.53295 C 259.32885,587.53295 244.57223,587.53295 244.57223,587.53295" style="fill:#008ac2;fill-opacity:1;fill-rule:nonzero;stroke:none"/>
      <path id="path108" class="ps02" d="M 121.18821,623.82303 C 112.21276,642.42758 94.153641,642.88528 85.032621,642.88528 C 75.838681,642.88528 73.796981,642.88528 70.403021,642.88528 C 67.046291,642.88528 63.398291,642.88528 67.593661,636.50071 C 71.680681,630.00587 77.517891,619.9733 80.327251,615.52197 C 83.134811,611.1809 85.690131,610.0863 90.761611,610.0863 C 90.761611,610.0863 103.85758,610.0863 109.36797,610.0863 C 114.83906,610.0863 127.93696,609.7949 121.18821,623.82303 z M 96.415761,679.51339 C 87.513231,698.13855 70.586071,698.57564 61.465051,698.57564 C 52.270991,698.57564 39.210571,698.57564 35.818421,698.57564 C 32.459891,698.57564 28.849121,698.57564 32.971701,692.09948 C 37.094151,685.6608 43.333031,675.59075 46.142391,671.30392 C 49.024541,666.83584 51.505271,665.85138 56.539271,665.85138 C 56.539271,665.85138 79.087071,665.85138 84.558171,665.85138 C 90.031191,665.85138 103.20188,665.35825 96.415761,679.51339 M 68.434221,724.46137 C 101.05015,723.03801 123.52131,722.56356 149.2071,674.71656 C 160.55289,653.37363 128.88587,652.22492 128.88587,652.22492 C 124.72606,652.22492 157.63892,653.8294 175.51498,616.61657 C 191.59783,582.99389 162.57025,585.62767 157.19062,585.06729 C 132.93566,582.58295 87.332101,582.65767 52.564321,585.27276 C 44.974991,585.27276 37.021361,594.92814 32.898791,600.92972 C 28.849121,606.91275 -24.160819,693.23145 -32.149889,706.18184 C -40.139069,718.93231 -32.807399,723.91401 -23.721799,724.46137 C 0.46592104,725.8828 31.804181,725.99307 68.434221,724.46137" style="fill:#008ac2;fill-opacity:1;fill-rule:nonzero;stroke:none"/>
      <path id="path111" class="ps02" d="M 1143.157,638.79826 L 1100.7364,707.27645 C 1092.1626,720.88423 1099.8958,724.84424 1104.08,724.84424 C 1108.3575,724.84424 1115.3623,724.84424 1122.6845,724.84424 C 1130.0255,724.84424 1135.6853,724.27831 1146.2204,707.27645 L 1188.7905,638.54229 C 1200.9133,619.55295 1185.8765,620.84929 1177.3027,620.88484 C 1161.2946,621.03054 1156.6248,620.84929 1143.157,638.79826" style="fill:#008ac2;fill-opacity:1;fill-rule:nonzero;stroke:none"/>
      <path id="path119" class="ps02" d="M 1319.041,643.57822 L 1267.9345,643.57822 C 1262.667,643.57822 1255.5688,648.02955 1252.1319,653.64635 C 1248.6388,659.22964 1250.2079,663.7164 1255.4568,663.7164 C 1255.4568,663.7164 1276.5083,663.7164 1292.4417,663.7164 C 1308.5059,663.7164 1313.5306,673.85924 1296.9434,698.19266 C 1292.9834,703.83006 1285.9974,711.70898 1280.8792,714.93868 C 1280.8792,714.93868 1266.4028,726.86907 1219.8914,726.86907 C 1178.0686,726.86907 1176.8357,722.10778 1176.8357,722.10778 C 1172.7823,718.60536 1171.0265,713.22392 1173.0065,710.05026 C 1174.9678,706.87478 1180.8891,704.26716 1186.138,704.26716 L 1238.8883,704.26716 C 1244.1745,704.26716 1251.2539,699.72436 1254.7656,694.19722 C 1258.1466,688.72601 1256.7643,683.14284 1251.5528,683.14284 C 1251.5528,683.14284 1230.8562,683.14284 1212.1769,683.14284 C 1193.535,683.14284 1195.6644,670.02806 1209.9167,649.65272 C 1213.858,644.05268 1220.9001,636.35501 1226.0556,633.17954 C 1226.0556,633.17954 1241.8769,620.99499 1286.8379,620.99499 C 1304.4525,620.99499 1335.3106,619.9733 1333.2746,634.33018 C 1332.2099,641.75332 1322.5153,643.57822 1319.041,643.57822" style="fill:#008ac2;fill-opacity:1;fill-rule:nonzero;stroke:none"/>
      <path id="path121" class="ps02" d="M 1452.5604,644.56268 L 1411.7088,644.56268 C 1406.4973,644.56268 1399.1564,649.4323 1395.4018,655.43401 L 1371.9033,693.37714 C 1368.1861,699.34149 1369.4563,704.26716 1374.7239,704.26716 C 1374.7239,704.26716 1415.8743,704.26716 1423.1966,704.26716 C 1430.4628,704.26716 1434.5909,704.8332 1434.2547,707.00373 C 1433.19,714.39132 1423.4207,726.86907 1365.2348,726.86907 C 1313.3064,726.86907 1316.9676,719.47955 1318.051,711.58196 C 1319.2278,703.5929 1344.2953,663.00466 1351.9912,650.69129 C 1359.6497,638.28825 1371.1001,621.03054 1422.0011,621.03054 C 1469.4277,621.03054 1466.8687,631.64784 1466.4391,634.49263 C 1466.0281,637.28524 1463.0394,644.56268 1452.5604,644.56268" style="fill:#008ac2;fill-opacity:1;fill-rule:nonzero;stroke:none"/>
      <path id="path123" class="ps02" d="M 1213.1669,581.98521 C 1217.1456,581.98521 1221.9275,585.57163 1218.2103,591.55273 C 1214.4558,597.55444 1213.279,599.63338 1210.7573,603.73909 C 1208.2169,607.8243 1203.2109,610.25068 1195.8699,610.25068 C 1188.8652,610.25068 1172.1659,610.25068 1169.0278,610.25068 C 1164.358,610.25068 1164.358,605.198 1166.5435,600.92972 C 1168.7289,596.66157 1170.3727,595.09251 1172.1286,592.13745 C 1173.8097,589.29073 1177.1906,582.28408 1187.128,582.28408 L 1213.1669,581.98521" style="fill:#008ac2;fill-opacity:1;fill-rule:nonzero;stroke:none"/>
      <path id="path125" class="ps02" d="M 440.72316,656.16431 C 430.86056,656.16431 427.21806,663.05889 425.46226,665.94104 C 423.70636,668.86067 422.09996,670.39237 419.91446,674.66052 C 417.69166,678.96615 418.27076,684.01883 421.37146,684.01883 C 424.47226,684.01883 442.25486,684.01883 449.22226,684.01883 C 456.65656,684.01883 461.58796,681.59246 464.12836,677.43445 C 466.65006,673.38479 467.82676,671.3226 471.58136,665.30414 C 475.26116,659.28375 470.55396,655.83556 466.57526,655.83556 C 462.55926,655.83556 440.16286,655.88979 440.16286,655.88979" style="fill:#008ac2;fill-opacity:1;fill-rule:nonzero;stroke:none"/>
      <path id="path127" class="ps02" d="M 1060.165,633.67267 C 1060.165,633.67267 1031.0067,680.51653 1028.9707,683.36325 C 1026.9907,686.26227 1017.8005,699.34149 1004.0152,699.34149 C 995.44136,699.34149 983.43056,699.34149 975.49186,699.34149 C 970.67266,699.34149 967.68396,698.19266 971.51316,692.50115 L 1017.6884,618.56861 C 1019.5563,616.3794 1022.8812,613.91748 1026.6358,613.91748 C 1034.7612,613.91748 1048.6026,613.91748 1054.6173,613.91748 C 1063.3779,613.91748 1065.993,624.37039 1060.165,633.67267 z M 1082.5988,682.92423 C 1100.0079,655.43401 1089.3794,672.47131 1112.9526,634.05553 C 1136.6006,595.6024 1099.6717,587.75711 1063.3405,587.75711 C 1008.1993,587.75711 990.69686,590.02103 990.69686,590.02103 C 985.41056,590.5684 977.99486,595.9667 974.35246,601.98697 L 906.95766,710.56026 C 903.31516,716.52449 904.45466,721.94341 909.62876,722.63635 C 909.62876,722.63635 925.78636,724.7882 980.89016,724.7882 C 1057.9796,724.7882 1065.2271,710.45192 1082.5988,682.92423" style="fill:#008ac2;fill-opacity:1;fill-rule:nonzero;stroke:none"/>
      <path id="path129" class="ps02" d="M 664.07116,692.55526 L 663.51076,693.37714 C 659.28926,700.21749 650.86496,705.81754 644.79416,705.81754 L 631.45716,706.56471 L 619.63316,705.81754 C 613.59976,705.81754 612.06806,700.21749 616.34566,693.37714 L 616.81266,692.55526 C 621.16486,685.60657 629.58926,680.0234 635.60396,680.0234 L 660.78366,680.0234 C 666.87306,680.0234 668.29266,685.60657 664.07116,692.55526 z M 638.12566,661.5813 C 621.85606,661.5813 616.71926,662.45742 601.92526,662.87764 C 596.63906,662.87764 589.35416,667.76606 585.61826,673.73029 L 571.79556,696.98791 C 554.98426,723.73095 591.72636,725.71843 619.98806,725.71843 C 665.71496,725.71843 687.62576,713.22392 687.62576,713.22392 C 692.85596,710.23151 700.06616,703.00817 703.80196,696.98791 L 733.24046,649.48834 C 736.92026,643.57822 737.64876,634.41984 734.92166,629.16723 C 734.92166,629.16723 730.56936,620.84929 684.82386,620.84929 C 639.58266,620.84929 621.81866,628.03527 621.81866,628.03527 C 616.45776,630.11614 610.53636,634.49263 608.57506,637.63074 C 606.53906,640.8772 609.26616,643.35974 614.58976,643.35974 L 681.83516,643.35974 C 687.12136,643.35974 689.06406,647.73623 685.77646,652.49763 C 680.30346,660.61564 670.59026,661.5813 670.59026,661.5813 L 638.12566,661.5813" style="fill:#008ac2;fill-opacity:1;fill-rule:nonzero;stroke:none"/>
      <path id="path131" class="ps02" d="M 549.24976,653.37363 C 552.96686,647.4094 560.53196,642.48362 565.85556,642.48362 L 586.60826,642.48362 C 589.41016,642.48362 599.19806,642.15486 600.11336,635.26041 C 601.60766,624.69722 578.72556,621.90654 571.40336,621.90654 C 540.60126,621.90654 523.41626,623.91269 505.68966,649.65272 C 492.55816,670.61086 479.57606,692.02669 470.55396,707.27645 C 462.39116,721.23167 469.71346,724.84424 473.99096,724.84424 C 478.21246,724.84424 485.25456,724.84424 492.55816,724.84424 C 499.89906,724.84424 505.50286,724.27831 516.05666,707.27645 L 549.24976,653.37363" style="fill:#008ac2;fill-opacity:1;fill-rule:nonzero;stroke:none"/>
      <path id="path133" class="ps02" d="M 414.29206,639.67426 L 384.77876,687.95835 C 381.24846,693.92451 384.68536,696.60492 388.17846,696.60492 C 391.65276,696.55081 395.76216,696.55081 397.81696,696.55081 C 401.83296,696.55081 406.57746,700.10734 402.80426,706.18184 C 399.12446,712.12932 398.09706,714.5557 395.55676,718.65959 C 392.96036,722.76337 388.02896,725.17118 380.59466,725.17118 C 374.78536,725.17118 371.47916,725.17118 367.78066,725.17118 C 359.69256,725.17118 364.06346,712.12932 364.06346,712.12932 C 352.16476,725.82869 322.87571,725.8828 293.69869,725.8828 C 265.69848,725.8828 228.45202,726.04718 245.63694,697.26243 L 281.18359,639.36418 C 287.88944,629.02153 292.11096,626.01043 297.30379,622.85545 C 297.30379,622.85545 299.30247,621.74216 314.69419,621.74216 C 324.55684,621.74216 338.49157,621.03054 326.74232,639.36418 L 294.20303,692.44692 C 290.48586,698.44863 291.75605,703.28282 297.00492,703.28282 L 320.83967,703.28282 C 326.08854,703.28282 333.41081,698.44863 337.14667,692.44692 C 337.14667,692.44692 354.33156,664.42802 369.27496,639.67426 C 372.97346,633.54565 382.78016,621.03054 392.73616,621.03054 C 392.73616,621.03054 402.15056,621.03054 408.96846,621.03054 C 415.93576,621.03054 424.19206,623.21975 414.29206,639.67426" style="fill:#008ac2;fill-opacity:1;fill-rule:nonzero;stroke:none"/>
      <path id="path135" class="ps02" d="M 707.79936,751.7854 L 760.69906,751.85819 L 772.52296,752.00582 C 777.79056,752.00582 785.11286,747.11558 788.82996,741.09712 L 798.93546,724.7882 C 792.37906,725.44571 785.22486,725.82869 777.23016,725.82869 C 749.32336,725.82869 712.00216,725.99307 729.22446,697.09805 L 763.98656,640.95011 C 767.70376,634.98576 774.96996,627.59817 780.18146,624.53284 C 780.18146,624.53284 782.16146,623.3299 797.51586,623.3299 C 807.34116,623.3299 822.58346,620.42907 809.56396,640.95011 L 777.71586,692.33677 C 774.09206,698.33836 775.30616,703.17255 780.62976,703.17255 L 802.48456,703.17255 C 807.77076,703.17255 815.11176,698.33836 818.79156,692.33677 L 850.63966,640.95011 C 854.35686,634.98576 861.62306,627.76255 866.83456,624.8616 C 866.83456,624.8616 869.39366,623.3299 884.59856,623.3299 C 892.96686,623.3299 909.51676,620.15635 896.08636,640.95011 L 868.88936,684.76793 C 868.17946,686.26227 867.32026,687.85001 866.10606,689.76457 L 831.30666,745.96675 C 827.64546,751.85819 820.36056,759.11888 815.11176,762.1113 C 815.11176,762.1113 792.92076,774.58712 747.32466,774.58712 C 745.41936,774.58712 743.45806,774.47878 741.55276,774.47878 C 699.74856,774.26029 700.94406,771.03059 698.53446,769.62591 C 696.16216,768.1858 693.21086,764.62734 693.90196,759.70348 C 694.63046,754.77782 700.51446,751.7854 707.79936,751.7854" style="fill:#008ac2;fill-opacity:1;fill-rule:nonzero;stroke:none"/>
      <path id="path137" class="ps02" d="M 356.72256,235.55955 C 356.72256,223.54879 429.06736,206.73745 546.91486,206.73745 C 664.79966,206.73745 737.06976,223.54879 737.06976,235.55955 C 737.06976,247.589 664.79966,264.28826 546.91486,264.28826 C 429.06736,264.28826 356.72256,247.589 356.72256,235.55955 z M 281.53849,28.032911 C 280.73528,28.032911 280.00679,28.481214 279.53981,29.09763 C 223.85692,107.49451 190.1782,160.6557 155.34137,225.09916 L 151.86703,232.21596 L 150.84907,234.51351 C 147.89389,240.75239 148.58514,247.70108 152.81967,254.27618 C 173.44158,286.51659 289.02888,324.17399 546.95216,324.17399 C 739.29256,324.17399 943.69976,293.12905 943.69976,235.55955 C 943.69976,179.95138 741.96366,146.79568 546.95216,146.79568 C 482.22856,146.79568 418.13996,155.92984 399.62876,158.82513 C 417.29936,131.62812 490.48476,33.076313 491.25056,32.030274 C 491.56816,31.600651 491.79226,31.096311 491.79226,30.554612 C 491.79226,30.162348 491.60556,29.788762 491.45606,29.396498 C 491.02646,28.57461 490.14856,28.032911 489.27056,28.032911 L 281.53849,28.032911" style="fill:#008ac2;fill-opacity:1;fill-rule:nonzero;stroke:none"/>
      <path id="path145" class="ps02" d="M 356.72256,235.55955 C 356.72256,223.54879 429.06736,206.73745 546.91486,206.73745 C 664.79966,206.73745 737.06976,223.54879 737.06976,235.55955 C 737.06976,247.589 664.79966,264.28826 546.91486,264.28826 C 429.06736,264.28826 356.72256,247.589 356.72256,235.55955 z M 281.53849,28.032911 C 280.73528,28.032911 280.00679,28.481214 279.53981,29.09763 C 223.85692,107.49451 190.1782,160.6557 155.34137,225.09916 L 151.86703,232.21596 L 150.84907,234.51351 C 147.89389,240.75239 148.58514,247.70108 152.81967,254.27618 C 173.44158,286.51659 289.02888,324.17399 546.95216,324.17399 C 739.29256,324.17399 943.69976,293.12905 943.69976,235.55955 C 943.69976,179.95138 741.96366,146.79568 546.95216,146.79568 C 482.22856,146.79568 418.13996,155.92984 399.62876,158.82513 C 417.29936,131.62812 490.48476,33.076313 491.25056,32.030274 C 491.56816,31.600651 491.79226,31.096311 491.79226,30.554612 C 491.79226,30.162348 491.60556,29.788762 491.45606,29.396498 C 491.02646,28.57461 490.14856,28.032911 489.27056,28.032911 L 281.53849,28.032911" style="fill:#008ac2;fill-opacity:1;fill-rule:nonzero;stroke:none"/>
      <path id="path147" class="ps02" d="M 427.47956,525.10685 C 427.47956,525.10685 1386.716,564.05312 1407.2258,228.81634 C 1423.7756,-43.060371 742.54276,-17.226949 741.92636,-17.226949 C 741.25386,-17.226949 736.56536,-16.722609 736.56536,-12.893359 C 736.56536,-9.5684497 739.03106,-8.5224107 741.44066,-8.5224107 C 930.41886,-8.5224107 1237.7488,66.493519 1227.7181,229.02181 C 1219.6299,361.47648 979.86286,516.45835 427.75976,516.45835 C 424.50956,516.45835 422.28676,518.69986 422.28676,520.71722 C 422.28676,522.79062 423.61296,524.65855 427.47956,525.10685" style="fill:#008ac2;fill-opacity:1;fill-rule:nonzero;stroke:none"/>
      <path id="path149" class="ps02" d="M 1279.9266,494.73436 L 1250.6002,494.73436 L 1250.6002,488.04719 L 1319.0036,488.04719 L 1319.0036,494.73436 L 1289.7145,494.73436 L 1289.7145,547.85819 L 1279.9266,547.85819 L 1279.9266,494.73436" style="fill:#008ac2;fill-opacity:1;fill-rule:nonzero;stroke:none"/>
      <path id="path151" class="ps02" d="M 1332.7889,488.04719 L 1346.2567,488.04719 L 1369.4563,538.40649 L 1392.8054,488.04719 L 1406.2358,488.04719 L 1406.2358,547.85819 L 1396.9709,547.85819 L 1396.9709,498.17135 L 1396.7467,498.17135 L 1373.6592,547.85819 L 1365.3095,547.85819 L 1342.3153,498.17135 L 1342.1286,498.17135 L 1342.1286,547.85819 L 1332.7889,547.85819 L 1332.7889,488.04719" style="fill:#008ac2;fill-opacity:1;fill-rule:nonzero;stroke:none"/>
    </g>
  </g>
</svg>