<svg xmlns="http://www.w3.org/2000/svg" preserveAspectRatio="xMinYMin none" viewBox="0 0 60 60" width="60" height="60" style="background-color:#e5e5e5"><path fill="#656565" d="M13.02 45.475c7.867-2.867 10.382-5.285 10.382-10.465 0-3.109-2.403-2.096-3.457-7.787-.438-2.363-2.56-.039-2.968-5.43 0-2.148 1.159-2.686 1.159-2.686s-.59-3.182-.82-5.625c-.281-3.052 1.762-10.927 12.683-10.927 10.918 0 12.967 7.875 12.68 10.928-.229 2.443-.82 5.625-.82 5.625s1.162.533 1.162 2.686c-.404 5.391-2.527 3.066-2.965 5.43-1.056 5.69-3.459 4.676-3.459 7.786 0 5.18 2.516 7.598 10.383 10.465 7.895 2.871 13.02 5.804 13.02 7.806v6.719h-60v-6.719c-.001-2 5.128-4.931 13.02-7.806z"/></svg>