<svg xmlns="http://www.w3.org/2000/svg" preserveAspectRatio="xMinYMin none" viewBox="0 0 60 60" width="60" height="60" style="background-color:#e5e5e5"><path fill="#656565" d="M39.166 20.832c0 1.529.535 2.826 1.604 3.896 1.07 1.07 2.369 1.604 3.896 1.604s2.828-.533 3.896-1.604 1.604-2.367 1.604-3.896c0-1.525-.535-2.824-1.604-3.895s-2.369-1.605-3.896-1.605-2.826.535-3.896 1.605c-1.069 1.069-1.604 2.37-1.604 3.895zm-29.333 11v12.834h40.333v-5.5l-9.166-9.166-4.582 4.582-14.668-14.666-11.917 11.916zm-2.75-20.166h45.833c.25 0 .463.092.645.271.184.182.273.396.273.645v34.834c0 .248-.092.465-.273.646-.18.182-.395.27-.645.27h-45.833c-.249 0-.463-.09-.645-.27-.182-.182-.272-.396-.272-.646v-34.834c0-.246.091-.463.272-.645.183-.179.397-.271.645-.271zm-4.583.916v34.834c0 1.262.449 2.34 1.346 3.236.899.899 1.977 1.348 3.237 1.348h45.833c1.262 0 2.34-.447 3.236-1.348.898-.896 1.348-1.977 1.348-3.236v-34.834c0-1.26-.449-2.338-1.348-3.234-.896-.899-1.976-1.348-3.236-1.348h-45.833c-1.261 0-2.338.447-3.236 1.348-.899.896-1.347 1.974-1.347 3.234z"/></svg>