<svg xmlns="http://www.w3.org/2000/svg" preserveAspectRatio="xMinYMin none" viewBox="0 0 60 60" width="60" height="60" style="background-color:#e5e5e5"><path fill="#656565" d="M6.785 21.07v33.93h46.43v-33.93h-46.43zm41.072 28.573h-35.714v-23.216h35.714v23.216zm-12.243-7.175l-4.082-6.602-4.082 4.114-5.613-8.448-5.868 14.539h26.021l-3.316-6.634-3.06 3.031zm2.438-7.095c1.48 0 2.679-1.2 2.679-2.679s-1.198-2.679-2.679-2.679c-1.479 0-2.679 1.2-2.679 2.679s1.2 2.679 2.679 2.679zm-24.123-14.302l13.075-9.732c.614.495 1.384.804 2.232.804 1.18 0 2.221-.58 2.87-1.466l13.966 10.395h1.786l-15.166-11.64c.068-.277.114-.563.114-.861 0-1.971-1.598-3.571-3.57-3.571-1.973 0-3.571 1.6-3.571 3.571 0 .641.184 1.236.48 1.757l-15.002 10.743h2.786z"/></svg>