<svg id="i" xmlns="http://www.w3.org/2000/svg" preserveAspectRatio="xMinYMin none" viewBox="0 0 192 192" width="192" height="192"><style>#e{fill:#ffcc75}#f{fill:#ba6100}#g{stop-color:#ff901f}#h{stop-color:#ffb61f}#i:target #d{display:none}#i:target #e{fill:#d1d1d1}#i:target #f{fill:#717171}#i:target #g{stop-color:#a5a5a5}#i:target #h{stop-color:#bbb}</style><filter id="a"><feGaussianBlur stdDeviation="4.25"/></filter><polygon id="d" fill="#999" points="153.264,181.135 99.349,145.014 45.767,181.827 61.563,120.325 11.891,79.806 76.013,76.696 98.451,16.058 123.343,77.356 185.825,78.683 135.738,119.928" filter="url(#a)"/><path id="e" d="M152.408 176.279l-53.916-36.117-53.581 36.813 15.794-61.502-49.674-40.52 64.122-3.106 22.44-60.64 24.892 61.302 62.483 1.322-50.088 41.244 17.528 61.204z"/><path id="f" d="M44.912 178.007c-.207 0-.415-.063-.592-.188-.352-.246-.516-.686-.408-1.104l15.63-60.861-49.163-40.103c-.332-.27-.461-.717-.328-1.121.134-.404.504-.688.931-.708l63.44-3.075 22.201-59.998c.147-.4.525-.668.952-.676.431-.011.812.25.973.646l24.636 60.672 61.804 1.312c.431.01.812.285.954.692.141.407.013.86-.32 1.136l-49.564 40.813 17.341 60.555c.119.416-.033.863-.385 1.117-.35.256-.824.268-1.181.025l-53.335-35.73-53.004 36.416c-.175.116-.377.18-.582.18zm-31.141-102.154l47.588 38.82c.312.257.447.667.346 1.06l-15.11 58.834 51.313-35.254c.348-.24.81-.242 1.159-.006l51.575 34.551-16.748-58.496c-.114-.396.018-.818.335-1.08l47.937-39.477-59.699-1.263c-.413-.009-.78-.261-.937-.646l-23.891-58.836-21.514 58.144c-.143.389-.505.65-.918.673l-61.436 2.976z"/><radialGradient id="b" cx="7548.171" cy="-16214.252" r="667.457" gradientTransform="matrix(.144 0 0 -.138 -953.97 -2077.165)" gradientUnits="userSpaceOnUse"><stop id="g" offset="0"/><stop id="h" offset="1"/></radialGradient><path fill="url(#b)" d="M149.512 172.255l-51.161-37.171-49.621 37.107 14.414-57.479-46.22-38.305 60.067-2.703 20.494-57.348 23.5 58.431 59.236.567-50.821 37.548 20.112 59.353z"/><radialGradient id="c" cx="11361.182" cy="-651.739" r="561.054" gradientTransform="matrix(.141 .123 1.198 -1.373 -778.587 -2223.776)" gradientUnits="userSpaceOnUse"><stop offset="0" stop-color="#fff"/><stop offset="1" stop-color="#fff" stop-opacity="0"/></radialGradient><path fill="url(#c)" d="M54.685 148.585l8.458-33.874-46.079-37.872 59.924-3.027 20.456-57.33 23.64 58.312 34.374.381c-53.46 13.286-69.631 20.323-100.773 73.41z"/></svg>