<svg xmlns="http://www.w3.org/2000/svg" width="192" height="192"><filter id="c"><feGaussianBlur stdDeviation="4.25"/></filter><radialGradient id="a" cx="-43.183" cy="2776.674" r="55.541" gradientTransform="matrix(.751 0 0 .217 166.723 -456.402)" gradientUnits="userSpaceOnUse"><stop offset="0"/><stop offset="1" stop-opacity="0"/></radialGradient><path opacity=".199" fill="url(#a)" d="M176 145.472c0 6.647-18.671 12.034-41.709 12.034-23.03 0-41.704-5.387-41.704-12.034 0-6.646 18.674-12.037 41.704-12.037 23.038 0 41.709 5.39 41.709 12.037z"/><radialGradient id="b" cx="-212.663" cy="2365.856" r="55.544" gradientTransform="matrix(.836 0 0 .257 240.208 -460.327)" gradientUnits="userSpaceOnUse"><stop offset="0"/><stop offset="1" stop-opacity="0"/></radialGradient><path opacity=".313" fill="url(#b)" d="M108.845 147.135c0 7.872-20.78 14.255-46.42 14.255-25.638 0-46.425-6.383-46.425-14.255 0-7.875 20.787-14.256 46.425-14.256 25.642 0 46.42 6.381 46.42 14.256z"/><polygon fill="#999" points="151.262,181.133 97.348,145.012 43.767,181.826 59.563,120.324 9.891,79.804 74.013,76.695 96.451,16.056 121.344,77.357 183.822,78.683 133.736,119.926" filter="url(#c)"/><path fill="#FFCC75" d="M150.406 176.279l-53.914-36.118-53.582 36.814 15.793-61.502-49.672-40.52 64.122-3.107 22.44-60.639 24.891 61.301 62.481 1.322-50.087 41.245 17.528 61.204z"/><path fill="#BA6100" d="M42.912 178.006c-.207 0-.415-.063-.592-.188-.352-.246-.516-.687-.408-1.104l15.63-60.86-49.163-40.103c-.331-.27-.46-.717-.327-1.121.134-.404.503-.688.93-.709l63.44-3.074 22.201-59.998c.147-.4.525-.668.952-.675.43-.012.812.249.973.644l24.638 60.675 61.803 1.31c.431.01.812.285.953.692.143.405.015.86-.318 1.135l-49.564 40.813 17.342 60.554c.119.416-.032.862-.385 1.118-.352.257-.824.267-1.183.023l-53.334-35.729-53.003 36.417c-.178.117-.38.18-.585.18zm-31.141-102.155l47.587 38.821c.313.256.447.666.346 1.059l-15.11 58.834 51.313-35.254c.348-.24.808-.242 1.158-.006l51.574 34.551-16.748-58.496c-.113-.395.021-.817.336-1.078l47.938-39.476-59.698-1.264c-.413-.008-.778-.262-.938-.645l-23.89-58.839-21.514 58.145c-.143.389-.505.652-.918.674l-61.436 2.974z"/><radialGradient id="d" cx="9540.535" cy="-15094.109" r="599.168" gradientTransform="matrix(.161 0 0 -.153 -1400.602 -2159.021)" gradientUnits="userSpaceOnUse"><stop offset="0" stop-color="#FF901F"/><stop offset="1" stop-color="#FFB61F"/></radialGradient><path fill="url(#d)" d="M147.51 172.254l-51.16-37.171-49.621 37.108 14.414-57.48-46.219-38.304 60.068-2.704 20.493-57.348 23.5 58.431 59.236.567-50.82 37.549 20.109 59.352z"/><radialGradient id="e" cx="11759.24" cy="-468.067" r="503.865" gradientTransform="matrix(.157 .137 1.335 -1.529 -1181.626 -2258.303)" gradientUnits="userSpaceOnUse"><stop offset="0" stop-color="#fff"/><stop offset="1" stop-color="#fff" stop-opacity="0"/></radialGradient><path fill="url(#e)" d="M52.685 148.585l8.458-33.874-46.079-37.874 59.924-3.027 20.456-57.33 23.64 58.312 34.373.381c-53.46 13.287-69.63 20.325-100.772 73.412z"/><linearGradient id="f" gradientUnits="userSpaceOnUse" x1="-229.262" y1="772.747" x2="-226.176" y2="661.371" gradientTransform="matrix(.878 0 0 .878 299.505 -532.334)"><stop offset="0" stop-color="#B6B6B6"/><stop offset=".5" stop-color="#F2F2F2"/><stop offset=".676" stop-color="#FAFAFA"/><stop offset=".841" stop-color="#D8D8D8"/><stop offset=".875" stop-color="#F2F2F2"/><stop offset="1" stop-color="#DBDBDB"/></linearGradient><path fill="url(#f)" stroke="#888A85" d="M78.505 80.205l59.626 61.005c2.413 2.753 10.056 4.891 15.163 0 4.931-4.721 3.789-11.373-1.035-16.199l-57.214-61.351c7.064-19.62-7.231-36.102-25.676-32.57l-3.965 3.621 12.406 11.719.691 10.337-9.263 8.455-11.071-1.219-11.372-10.684-3.988 3.941c-1.852 17.712 16.665 33.541 35.698 22.945z"/><path opacity=".426" stroke="#fff" d="M79.165 76.198l60.284 62.879c1.869 2.133 7.783 3.783 11.736 0 3.819-3.654 2.935-8.808-.795-12.546l-58.055-61.594c4.709-20.406-5.832-31.406-21.529-31.014l-.85.856 11.312 10.159.407 13.128-11.344 10.353-13.318-1.437-9.971-9.392-1.106 1.349c-.984 18.743 20.376 27.267 33.229 17.259z" fill="none"/><linearGradient id="g" gradientUnits="userSpaceOnUse" x1="-1.183" y1="-152.935" x2="-77.3" y2="-154.977" gradientTransform="matrix(.613 .629 -.629 .613 37.487 215.621)"><stop offset="0" stop-color="#fff"/><stop offset="1"/></linearGradient><path opacity=".171" stroke="url(#g)" d="M91.87 73.221l47.108 48.337c1.068 1.098 1.049 2.852-.051 3.925l-.647.631c-1.099 1.066-2.852 1.043-3.924-.056l-47.11-48.337c-1.065-1.098-1.042-2.854.052-3.924l.647-.629c1.099-1.069 2.852-1.047 3.925.053z" fill="none"/><linearGradient id="h" gradientUnits="userSpaceOnUse" x1="-201.624" y1="685.459" x2="-203.796" y2="663.566" gradientTransform="matrix(.878 0 0 .878 299.816 -531.713)"><stop offset="0" stop-color="#98A0A9"/><stop offset="1" stop-color="#C3D0DD"/></linearGradient><path fill="url(#h)" stroke="#878F9D" d="M92.921 108.175c2.615-2.244 41.704-42.217 41.704-42.217l9.646-.689 15.168-21.023-12.639-11.254-19.644 16.885v9.65l-39.979 41.529c-1.893 1.893 3.331 9.188 5.744 7.119z"/><linearGradient id="i" gradientUnits="userSpaceOnUse" x1="-318.949" y1="621.093" x2="-289.274" y2="589.937" gradientTransform="translate(438.2 -546.2)"><stop offset="0" stop-color="#fff"/><stop offset="1" stop-color="#fff" stop-opacity="0"/></linearGradient><path opacity=".54" stroke="url(#i)" d="M92.617 104.911c2.03-1.741 40.887-41.532 40.887-41.532l9.196-.779 13.229-17.774-9.073-8.005-17.192 14.809.484 8.951-39.794 41.731c-1.471 1.471.392 4.206 2.263 2.599z" fill="none"/><linearGradient id="j" gradientUnits="userSpaceOnUse" x1="-271.076" y1="736.199" x2="-248.583" y2="758.677" gradientTransform="matrix(.878 0 0 .878 299.505 -532.334)"><stop offset="0" stop-color="#3465A4"/><stop offset="0" stop-color="#9FBCE1"/><stop offset="0" stop-color="#6B95CA"/><stop offset=".75" stop-color="#3D6AA5"/><stop offset="1" stop-color="#386EB4"/></linearGradient><path fill="url(#j)" stroke="#204A87" d="M48.862 150.513c4.133 4.599 15.617 6.685 20.705-2.227 2.222-3.887 6.574-14.764 25.997-32.246 3.26-2.937 6.722-9.644 3.788-13.262l-7.583-7.582c-3.099-3.449-11.721-1.836-15.261 2.984-10.541 14.432-27.77 25.917-31.653 27.303-7.435 2.655-6.597 13.611-1.681 18.821l5.688 6.209z"/><path fill="#fff" stroke="#A1A1A1" stroke-width="1.139" d="M149.155 132.939c0 2.092-1.696 3.791-3.79 3.791-2.095 0-3.792-1.699-3.792-3.791 0-2.098 1.697-3.795 3.792-3.795 2.094.001 3.79 1.698 3.79 3.795z"/><path opacity=".602" fill="#fff" d="M88.257 99.467c0 1.752-1.422 3.164-3.17 3.164-1.749 0-3.167-1.412-3.167-3.164 0-1.753 1.418-3.169 3.167-3.169 1.748 0 3.17 1.416 3.17 3.169z"/><linearGradient id="k" gradientUnits="userSpaceOnUse" x1="-394.753" y1="685.725" x2="-397.527" y2="680.616" gradientTransform="matrix(1.007 -.026 .026 1.007 446.346 -576.875)"><stop offset="0" stop-color="#fff"/><stop offset="1" stop-color="#fff" stop-opacity="0"/></linearGradient><path stroke="url(#k)" stroke-width="2.295" stroke-linecap="round" stroke-linejoin="round" d="M80.929 106.604s-22.51 22.914-33.052 26.801" fill="none"/><path opacity=".199" stroke="#fff" d="M49.933 146.98c4.524 5.482 14.44 6.788 17.553-1.162 2.141-5.461 10.465-17.788 25.738-31.531 2.563-2.306 5.278-7.578 2.977-10.424l-5.963-5.959c-2.434-2.708-9.216-1.447-11.993 2.348-8.292 11.343-26.633 26.182-31.067 27.642-6.867 2.271-5.58 10.117-1.713 14.214l4.468 4.872z" fill="none"/><linearGradient id="l" gradientUnits="userSpaceOnUse" x1="-272.248" y1="769.747" x2="-269.86" y2="772.011" gradientTransform="matrix(.878 -.017 .017 .878 297.941 -553.208)"><stop offset="0"/><stop offset="1" stop-opacity="0"/></linearGradient><path opacity=".278" stroke="url(#l)" stroke-width="2.295" stroke-linecap="round" stroke-linejoin="round" d="M87.666 111.743s-22.989 20.772-27.985 34.091" fill="none"/></svg>