<svg xmlns="http://www.w3.org/2000/svg" preserveAspectRatio="xMinYMin none" viewBox="0 0 192 192" width="192" height="192"><title>MovLib, the free movie library.</title><filter id="a"><feGaussianBlur stdDeviation="4.25"/></filter><polygon fill="#999" points="151.262,181.133 97.348,145.012 43.767,181.826 59.563,120.324 9.891,79.804 74.013,76.695 96.451,16.056 121.343,77.357 183.823,78.683 133.736,119.926" filter="url(#a)"/><path fill="#FFCC75" d="M150.406 176.279l-53.914-36.118-53.582 36.813 15.793-61.502-49.672-40.519 64.122-3.107 22.44-60.639 24.891 61.301 62.482 1.322-50.087 41.245 17.527 61.204z"/><path fill="#BA6100" d="M42.912 178.006c-.207 0-.415-.063-.592-.188-.352-.246-.516-.686-.408-1.104l15.63-60.861-49.163-40.102c-.331-.27-.46-.717-.327-1.121.134-.404.503-.688.93-.709l63.44-3.074 22.201-59.998c.147-.4.525-.668.952-.675.43-.012.812.249.973.644l24.637 60.675 61.803 1.31c.431.01.812.285.953.692.143.405.015.86-.318 1.135l-49.564 40.814 17.342 60.553c.119.416-.033.863-.385 1.119s-.824.266-1.183.023l-53.333-35.73-53.003 36.417c-.178.117-.38.18-.585.18zm-31.141-102.155l47.587 38.821c.313.256.447.666.346 1.059l-15.11 58.834 51.313-35.254c.348-.24.808-.242 1.158-.006l51.574 34.551-16.748-58.496c-.113-.395.02-.818.336-1.079l47.937-39.476-59.698-1.264c-.413-.008-.779-.262-.938-.645l-23.889-58.838-21.514 58.145c-.143.389-.505.652-.918.674l-61.436 2.974z"/><radialGradient id="b" cx="8069.127" cy="14276.228" r="599.165" gradientTransform="matrix(.161 0 0 .153 -1163.706 -2033.885)" gradientUnits="userSpaceOnUse"><stop offset="0" stop-color="#FF901F"/><stop offset="1" stop-color="#FFB61F"/></radialGradient><path fill="url(#b)" d="M147.51 172.254l-51.16-37.171-49.621 37.108 14.414-57.48-46.219-38.304 60.068-2.704 20.493-57.348 23.499 58.431 59.236.567-50.82 37.549 20.11 59.352z"/><radialGradient id="c" cx="10495.248" cy="994.997" r="503.861" gradientTransform="matrix(.157 .137 -1.335 1.529 -279.728 -2890.811)" gradientUnits="userSpaceOnUse"><stop offset="0" stop-color="#FFF"/><stop offset="1" stop-color="#FFF" stop-opacity="0"/></radialGradient><path fill="url(#c)" d="M52.685 148.585l8.458-33.874-46.079-37.874 59.924-3.027 20.456-57.33 23.64 58.312 34.373.381c-53.46 13.287-69.63 20.325-100.772 73.412z"/><path fill="#A1A39F" d="M144.003 101.557c0 18.028-21.262 32.615-47.507 32.615-26.244 0-47.507-14.641-47.507-32.615 0-18.052 21.263-32.614 47.507-32.614 26.246 0 47.507 14.639 47.507 32.614z"/><path fill="#6D6F6A" d="M96.497 135.199c-26.707 0-48.535-15.077-48.535-33.643 0-18.567 21.725-33.642 48.535-33.642s48.537 15.073 48.537 33.642c-.003 18.566-21.831 33.643-48.537 33.643zm0-65.486c-25.68 0-46.482 14.253-46.482 31.843 0 17.592 20.802 31.846 46.482 31.846s46.48-14.226 46.48-31.846c0-17.617-20.802-31.843-46.48-31.843z"/><path fill="#555753" d="M124.23 95.138c0 11.709-12.969 21.211-29.017 21.211-15.974 0-29.021-9.502-29.021-21.211 0-11.713 12.944-21.213 29.021-21.213 15.92 0 29.017 9.5 29.017 21.313v-.1z"/><radialGradient id="d" cx="245.036" cy="1233.494" r="9.116" gradientTransform="matrix(4 0 0 4 -883.977 -4811.305)" gradientUnits="userSpaceOnUse"><stop offset="0" stop-color="#767676"/><stop offset="1" stop-color="#484848"/></radialGradient><path fill="url(#d)" d="M156.846 140.333s-21.367-9.603-35.183-8.396c-14.587 1.287-39.034 2.151-48.537-12.943 40.575 12.222 59.321-8.09 86.799 3.363l-3.079 17.976z"/><path fill="#3B3D39" d="M157.871 142.133l-1.508-.679c-.197-.087-21.186-9.449-34.41-8.292-3.159.275-7.962.65-13.148.65-18.309 0-30.56-4.775-36.465-14.178l-1.844-2.898 3.287.994c8.988 2.695 17.617 4.031 26.45 4.031 8.476 0 15.846-1.195 22.985-2.351 6.369-1.029 12.378-2.004 18.541-2.004 6.806 0 12.841 1.188 18.95 3.749l.948.396-4.108 20.031.322.551zm-33.641-11.558c11.658 0 26.707 5.934 31.586 7.961l2.695-15.354c-5.47-2.149-10.914-3.162-17.025-3.162-5.957 0-11.864.959-18.129 1.976-7.243 1.169-14.717 2.383-23.396 2.383-7.804 0-15.483-1.012-23.395-3.082 6.111 6.651 16.872 10.017 32.1 10.017 5.083 0 9.812-.369 12.918-.646h2.823l-.177-.093z"/><linearGradient id="e" gradientUnits="userSpaceOnUse" x1="416.963" y1="1240.104" x2="420.173" y2="1249.092" gradientTransform="matrix(3.044 0 0 3.947 -1178.521 -4826.248)"><stop offset="0" stop-color="#888A85"/><stop offset="1" stop-color="#B8B9B6"/></linearGradient><path fill="url(#e)" d="M125.258 89.228c0 11.559-12.892 20.906-28.761 20.906-15.87 0-28.761-9.348-28.761-20.906 0-11.555 12.891-20.901 28.761-20.901s28.761 9.245 28.761 20.8v.101z"/><path fill="#757972" d="M96.497 111.828c-16.77 0-30.302-10.092-30.302-22.498 0-12.401 13.636-22.495 30.302-22.495 16.667 0 30.301 10.094 30.301 22.495 0 12.406-13.61 22.599-30.301 22.599v-.101zm0-41.858c-15.024 0-27.222 8.68-27.222 19.313 0 10.658 12.225 19.31 27.222 19.31 14.998 0 27.221-8.68 27.221-19.31 0-10.53-12.325-19.263-27.221-19.263v-.05z"/><path fill="#D3D7CF" d="M96.497 54.357h-.32c-.613.002-1.241-.021-1.847 0h-1.445c-24.909 1.336-44.17 16.383-44.17 34.668 0 19.157 21.289 34.667 47.51 34.667 26.218 0 47.507-15.406 47.507-34.667 0-19.262-21.314-34.668-47.507-34.668h.272zm-7.19 5.623h.482c.345-.021.694 0 1.043 0 7.499 0 13.559 4.365 13.559 9.707s-6.061 9.629-13.559 9.629c-7.499 0-13.559-4.287-13.559-9.629 0-4.623 5.394-8.99 12.071-9.478l-.037-.229zm-17.976 41.088c-8.192 0-14.843-4.726-14.843-10.581 0-5.444 5.675-9.989 13.072-10.58.56-.047 1.188 0 1.767 0 8.192 0 14.843 4.725 14.843 10.58 0 5.854-6.677 10.528-14.894 10.528l.055.053zm30.301 15.411c-9.065 0-16.46-5.289-16.46-11.787 0-5.854 6.061-10.813 13.893-11.713h.721c.62-.051 1.207 0 1.847 0 9.066 0 16.46 5.213 16.46 11.713 0 6.496-6.934 11.813-16.177 11.813l-.284-.026zm19.002-24.142c-7.959 0-14.431-4.572-14.431-10.271 0-5.264 5.624-9.707 12.762-10.35h.482c.301-.02.578.006.885 0h.32c7.959 0 14.433 4.648 14.433 10.35s-6.42 10.271-14.381 10.271h-.07z"/><path fill="#888A85" d="M96.497 53.072c26.963 0 48.792 16.154 48.792 35.953 0 19.875-21.879 35.952-48.792 35.952-26.912 0-48.792-16.151-48.792-35.952 0-18.826 19.825-34.668 45.198-35.953h3.594zm-3.339 2.568c-24.139 1.309-42.885 16.127-42.885 33.385 0 18.463 20.75 33.385 46.224 33.385s46.224-15.023 46.224-33.385c0-18.36-20.75-33.475-46.224-33.475l-3.339.09z"/><path fill="#888A85" d="M90.847 58.695c8.191 0 14.841 4.933 14.841 10.994 0 6.008-6.649 10.912-14.841 10.912-8.193 0-14.843-4.904-14.843-10.912 0-5.65 5.675-10.377 13.225-10.994h1.618zm-1.284 2.543c-6.19.49-10.966 4.186-10.966 8.424 0 4.598 5.495 8.346 12.274 8.346 6.779 0 12.275-3.748 12.275-8.346 0-4.648-5.496-8.424-12.275-8.424h-1.308z"/><path fill="#888A85" d="M120.634 70.484c8.731 0 15.665 5.137 15.665 11.557 0 6.367-7.063 11.557-15.716 11.557s-15.716-5.188-15.716-11.557c0-5.908 5.982-10.914 13.919-11.635h1.799l.049.078zm-1.54 2.568c-6.574.58-11.658 4.57-11.658 9.065 0 4.956 5.906 8.987 13.148 8.987s13.096-3.853 13.096-8.987c0-4.88-5.906-8.988-13.096-8.988h-1.541l.051-.077z"/><path fill="#888A85" d="M71.331 78.703c8.885 0 16.127 5.342 16.127 11.861 0 6.523-7.242 11.866-16.127 11.866-8.885 0-16.127-5.343-16.127-11.866 0-6.111 6.139-11.194 14.252-11.861h1.875zm-1.798 2.566c-6.779.56-11.916 4.572-11.916 9.322 0 5.137 6.086 9.297 13.559 9.297 7.474 0 13.558-4.188 13.558-9.297s-6.086-9.297-13.558-9.297h-1.54l-.103-.025z"/><path fill="#888A85" d="M101.632 91.798c9.783 0 17.745 5.831 17.745 12.995 0 7.215-7.96 13.072-17.745 13.072s-17.745-5.856-17.745-13.072c0-6.42 6.445-11.993 15.021-12.995h2.7239999999999998zm-2.312 2.568c-7.37.836-12.84 5.314-12.84 10.427 0 5.803 6.806 10.502 15.178 10.502 8.371 0 15.176-4.725 15.176-10.502 0-5.754-6.805-10.427-15.176-10.427h-2.338z"/><linearGradient id="f" gradientUnits="userSpaceOnUse" x1="274.42" y1="1296.22" x2="274.42" y2="1273.182" gradientTransform="matrix(3.804 0 0 3.752 -947.399 -4743.707)"><stop offset="0" stop-color="#FFF"/><stop offset="1" stop-color="#FFF" stop-opacity="0"/></linearGradient><path fill="url(#f)" d="M96.497 122.615c-25.486 0-46.224-15.076-46.224-33.535 0-18.53 20.736-33.53 46.224-33.53 25.46 0 46.224 15.077 46.224 33.53 0 18.434-20.687 33.535-46.224 33.535zm0-64.506c-23.98 0-43.415 13.85-43.415 30.971 0 17.128 19.511 30.977 43.415 30.977 23.98 0 43.415-13.849 43.415-30.977-.002-17.122-19.41-30.971-43.415-30.971z"/><linearGradient id="g" gradientUnits="userSpaceOnUse" x1="331.389" y1="1351.816" x2="327.537" y2="1351.174" gradientTransform="matrix(3.54 0 0 3.54 -1014.16 -4654.754)"><stop offset="0" stop-color="#888A85"/><stop offset="1" stop-color="#888A85" stop-opacity="0"/></linearGradient><path fill="url(#g)" d="M156.382 138.664c-6.704-2.247-10.733-4.031-18.155-5.801l.853-12.609c5.138-.516 12.583.256 20.287 2.822l-2.985 15.588z"/><linearGradient id="h" gradientUnits="userSpaceOnUse" x1="260.583" y1="1240.585" x2="249.603" y2="1240.585" gradientTransform="matrix(4 0 0 4 -891.859 -4840.188)"><stop offset="0" stop-color="#FFF"/><stop offset="1" stop-color="#FFF" stop-opacity="0"/></linearGradient><path opacity=".7" fill="url(#h)" d="M159.031 124.861c-20.926-7.78-40.299-.582-60.451 0 27.385-2.312 36.426-9.5 60.967-2.312l-.516 2.312z"/></svg>