<svg xmlns="http://www.w3.org/2000/svg" preserveAspectRatio="xMinYMin none" viewBox="0 0 512 192"><title>MovLib, the free movie library.</title><filter id="a"><feGaussianBlur stdDeviation="4.25"/></filter><polygon fill="#999" points="153.264,181.134 99.349,145.013 45.767,181.827 61.563,120.325 11.891,79.806 76.013,76.696 98.451,16.058 123.343,77.356 185.825,78.683 135.738,119.927" filter="url(#a)"/><path fill="#FFCC75" d="M152.408 176.28l-53.916-36.118-53.581 36.813 15.794-61.502-49.674-40.52 64.122-3.106 22.44-60.64 24.892 61.302 62.483 1.322-50.088 41.244 17.528 61.205z"/><path fill="#BA6100" d="M44.912 178.007c-.207 0-.415-.063-.592-.188-.352-.246-.516-.686-.408-1.104l15.63-60.861-49.163-40.103c-.332-.27-.461-.717-.328-1.121.134-.404.504-.688.931-.708l63.44-3.075 22.201-59.998c.147-.4.525-.668.952-.676.431-.011.812.25.973.646l24.636 60.672 61.804 1.311c.431.01.812.285.954.692.141.407.013.86-.32 1.136l-49.564 40.813 17.341 60.555c.119.416-.033.863-.385 1.117-.35.256-.824.268-1.181.025l-53.335-35.73-53.004 36.416c-.175.118-.377.181-.582.181zm-31.141-102.154l47.588 38.82c.312.256.447.667.346 1.059l-15.11 58.834 51.313-35.254c.348-.24.81-.242 1.159-.006l51.575 34.551-16.748-58.496c-.114-.396.018-.818.335-1.08l47.937-39.477-59.699-1.263c-.413-.009-.78-.261-.937-.646l-23.891-58.835-21.514 58.144c-.143.389-.505.65-.918.673l-61.436 2.976z"/><radialGradient id="b" cx="7301.756" cy="14373.174" r="667.457" gradientTransform="matrix(.144 0 0 .138 -918.486 -1823.096)" gradientUnits="userSpaceOnUse"><stop offset="0" stop-color="#FF901F"/><stop offset="1" stop-color="#FFB61F"/></radialGradient><path fill="url(#b)" d="M149.512 172.255l-51.161-37.171-49.621 37.108 14.414-57.48-46.22-38.305 60.067-2.703 20.494-57.348 23.5 58.431 59.236.567-50.821 37.549 20.112 59.352z"/><radialGradient id="c" cx="10092.549" cy="1048.648" r="561.054" gradientTransform="matrix(.141 .123 -1.198 1.373 -124.213 -2612.69)" gradientUnits="userSpaceOnUse"><stop offset="0" stop-color="#FFF"/><stop offset="1" stop-color="#FFF" stop-opacity="0"/></radialGradient><path fill="url(#c)" d="M54.685 148.585l8.458-33.874-46.079-37.872 59.924-3.027 20.456-57.33 23.64 58.312 34.374.381c-53.46 13.286-69.631 20.323-100.773 73.41z"/><path fill="#A1A39F" d="M146.003 101.558c0 18.028-21.262 32.614-47.508 32.614-26.244 0-47.507-14.639-47.507-32.614 0-18.053 21.263-32.613 47.507-32.613 26.248-.003 47.508 14.637 47.508 32.613z"/><path fill="#6D6F6A" d="M98.497 135.2c-26.707 0-48.535-15.078-48.535-33.643 0-18.568 21.725-33.642 48.535-33.642s48.537 15.073 48.537 33.642c-.001 18.565-21.83 33.643-48.537 33.643zm0-65.485c-25.68 0-46.482 14.251-46.482 31.843s20.802 31.846 46.482 31.846c25.681 0 46.481-14.227 46.481-31.846.001-17.618-20.803-31.843-46.481-31.843z"/><path fill="#555753" d="M126.23 95.138c0 11.711-12.97 21.211-29.018 21.211-15.974 0-29.02-9.5-29.02-21.211 0-11.712 12.943-21.212 29.02-21.212 15.92 0 29.018 9.5 29.018 21.313v-.101z"/><radialGradient id="d" cx="366.813" cy="1236.106" r="10.152" gradientTransform="matrix(3.592 0 0 3.592 -1219.343 -4317.176)" gradientUnits="userSpaceOnUse"><stop offset="0" stop-color="#767676"/><stop offset="1" stop-color="#484848"/></radialGradient><path fill="url(#d)" d="M158.846 140.334s-21.365-9.603-35.182-8.396c-14.587 1.287-39.034 2.151-48.537-12.942 40.575 12.222 59.321-8.089 86.8 3.362l-3.081 17.976z"/><path fill="#3B3D39" d="M159.872 142.134l-1.506-.678c-.198-.088-21.187-9.451-34.412-8.293-3.159.275-7.962.65-13.149.65-18.31 0-30.56-4.775-36.465-14.178l-1.844-2.9 3.288.996c8.987 2.695 17.616 4.031 26.449 4.031 8.476 0 15.846-1.197 22.986-2.351 6.368-1.029 12.378-2.005 18.54-2.005 6.805 0 12.842 1.189 18.951 3.75l.948.396-4.109 20.031.323.551zm-33.642-11.557c11.658 0 26.707 5.933 31.587 7.959l2.695-15.354c-5.47-2.149-10.914-3.162-17.025-3.162-5.957 0-11.865.959-18.129 1.975-7.243 1.17-14.717 2.384-23.395 2.384-7.805 0-15.484-1.013-23.395-3.082 6.111 6.651 16.873 10.015 32.1 10.015 5.084 0 9.812-.365 12.918-.645h2.823l-.179-.09z"/><linearGradient id="e" gradientUnits="userSpaceOnUse" x1="525.059" y1="1240.103" x2="528.269" y2="1249.091" gradientTransform="matrix(3.044 0 0 3.947 -1505.561 -4826.248)"><stop offset="0" stop-color="#888A85"/><stop offset="1" stop-color="#B8B9B6"/></linearGradient><path fill="url(#e)" d="M127.258 89.229c0 11.56-12.892 20.905-28.762 20.905s-28.761-9.347-28.761-20.905c0-11.555 12.891-20.901 28.761-20.901s28.762 9.245 28.762 20.801v.1z"/><path fill="#757972" d="M98.497 111.829c-16.77 0-30.302-10.092-30.302-22.498 0-12.4 13.636-22.494 30.302-22.494 16.667 0 30.303 10.094 30.303 22.494 0 12.406-13.611 22.602-30.303 22.602v-.104zm0-41.857c-15.023 0-27.221 8.68-27.221 19.313 0 10.658 12.225 19.311 27.221 19.311 14.998 0 27.222-8.68 27.222-19.311 0-10.53-12.325-19.262-27.222-19.262v-.051z"/><path fill="#D3D7CF" d="M98.497 54.358h-.32c-.612 0-1.24-.021-1.846 0h-1.445c-24.91 1.334-44.17 16.381-44.17 34.668 0 19.156 21.288 34.666 47.509 34.666 26.219 0 47.509-15.406 47.509-34.666 0-19.262-21.315-34.67-47.509-34.67l.272.002zm-7.19 5.621h.482c.344-.019.693 0 1.043 0 7.499 0 13.558 4.365 13.558 9.709 0 5.34-6.06 9.627-13.558 9.627-7.5 0-13.56-4.287-13.56-9.627 0-4.623 5.394-8.99 12.071-9.479l-.036-.23zm-17.976 41.09c-8.192 0-14.843-4.726-14.843-10.582 0-5.442 5.675-9.988 13.071-10.579.56-.046 1.188 0 1.767 0 8.192 0 14.843 4.725 14.843 10.579 0 5.855-6.677 10.529-14.894 10.529l.056.053zm30.301 15.41c-9.066 0-16.46-5.289-16.46-11.787 0-5.855 6.061-10.813 13.892-11.713h.72c.62-.051 1.207 0 1.848 0 9.065 0 16.46 5.213 16.46 11.713 0 6.498-6.934 11.813-16.177 11.813l-.283-.026zm19.002-24.141c-7.959 0-14.432-4.571-14.432-10.271 0-5.266 5.624-9.707 12.762-10.35h.482c.301-.02.579.004.885 0h.321c7.959 0 14.432 4.648 14.432 10.35 0 5.699-6.42 10.271-14.381 10.271h-.069z"/><path fill="#888A85" d="M98.497 53.071c26.964 0 48.793 16.154 48.793 35.955 0 19.875-21.879 35.951-48.793 35.951-26.912 0-48.792-16.151-48.792-35.953 0-18.824 19.825-34.666 45.198-35.953h3.594zm-3.339 2.571c-24.139 1.31-42.885 16.127-42.885 33.385 0 18.463 20.75 33.385 46.224 33.385 25.475 0 46.224-15.023 46.224-33.385s-20.75-33.475-46.224-33.475l-3.339.09z"/><path fill="#888A85" d="M92.847 58.696c8.192 0 14.842 4.932 14.842 10.992 0 6.01-6.65 10.914-14.842 10.914-8.193 0-14.843-4.904-14.843-10.914 0-5.649 5.675-10.377 13.225-10.992h1.618zm-1.284 2.543c-6.189.49-10.966 4.186-10.966 8.423 0 4.599 5.495 8.347 12.274 8.347 6.779 0 12.276-3.748 12.276-8.347 0-4.647-5.497-8.423-12.276-8.423h-1.308z"/><path fill="#888A85" d="M122.634 70.485c8.731 0 15.667 5.135 15.667 11.556 0 6.367-7.063 11.556-15.718 11.556-8.653 0-15.716-5.188-15.716-11.556 0-5.907 5.983-10.915 13.919-11.634h1.799l.049.078zm-1.54 2.567c-6.575.581-11.658 4.571-11.658 9.066 0 4.957 5.906 8.988 13.148 8.988 7.243 0 13.095-3.853 13.095-8.988 0-4.881-5.904-8.989-13.095-8.989h-1.541l.051-.077z"/><path fill="#888A85" d="M73.331 78.703c8.885 0 16.127 5.342 16.127 11.862 0 6.522-7.242 11.865-16.127 11.865-8.886 0-16.127-5.343-16.127-11.865 0-6.111 6.139-11.195 14.252-11.862h1.875zm-1.798 2.568c-6.779.559-11.917 4.57-11.917 9.321 0 5.138 6.086 9.298 13.559 9.298 7.474 0 13.559-4.187 13.559-9.298 0-5.11-6.086-9.297-13.559-9.297h-1.54l-.102-.024z"/><path fill="#888A85" d="M103.632 91.8c9.784 0 17.745 5.83 17.745 12.994 0 7.214-7.961 13.072-17.745 13.072-9.785 0-17.745-5.856-17.745-13.072 0-6.419 6.446-11.993 15.022-12.994h2.7230000000000003zm-2.311 2.566c-7.37.836-12.841 5.314-12.841 10.428 0 5.803 6.806 10.502 15.178 10.502s15.176-4.725 15.176-10.502c0-5.754-6.805-10.428-15.176-10.428h-2.3369999999999997z"/><linearGradient id="f" gradientUnits="userSpaceOnUse" x1="392.885" y1="1296.22" x2="392.885" y2="1273.182" gradientTransform="matrix(3.804 0 0 3.752 -1396.039 -4743.707)"><stop offset="0" stop-color="#FFF"/><stop offset="1" stop-color="#FFF" stop-opacity="0"/></linearGradient><path fill="url(#f)" d="M98.497 122.616c-25.486 0-46.224-15.077-46.224-33.535 0-18.53 20.736-33.53 46.224-33.53 25.461 0 46.224 15.077 46.224 33.53 0 18.432-20.686 33.535-46.224 33.535zm0-64.506c-23.98 0-43.415 13.85-43.415 30.97 0 17.129 19.511 30.978 43.415 30.978 23.981 0 43.415-13.849 43.415-30.978-.001-17.121-19.41-30.97-43.415-30.97z"/><linearGradient id="g" gradientUnits="userSpaceOnUse" x1="446.757" y1="1351.816" x2="442.905" y2="1351.174" gradientTransform="matrix(3.54 0 0 3.54 -1420.56 -4654.754)"><stop offset="0" stop-color="#888A85"/><stop offset="1" stop-color="#888A85" stop-opacity="0"/></linearGradient><path fill="url(#g)" d="M158.382 138.665c-6.704-2.247-10.734-4.031-18.156-5.801l.853-12.609c5.138-.518 12.584.256 20.288 2.823l-2.985 15.587z"/><linearGradient id="h" gradientUnits="userSpaceOnUse" x1="381.083" y1="1240.585" x2="370.104" y2="1240.585" gradientTransform="matrix(4 0 0 4 -1371.859 -4840.188)"><stop offset="0" stop-color="#FFF"/><stop offset="1" stop-color="#FFF" stop-opacity="0"/></linearGradient><path opacity=".7" fill="url(#h)" d="M161.033 124.862c-20.927-7.78-40.3-.584-60.452 0 27.385-2.312 36.426-9.5 60.968-2.312l-.516 2.312z"/><path fill="#353535" d="M212 105.149v-61.212h17.67l14.485 46.811h.265l16.492-46.811h18.457v61.213h-12.896v-28.973c0-1.369.022-2.947.064-4.732.041-1.787.495-6.531 1.359-14.235h-.978l-15.965 47.94h-13.037l-14.73-48.031h-.385c1.313 9.775 1.969 16.294 1.969 19.561v28.471h-12.77v-.002z"/><path fill="#353535" d="M288.999 81.633c0-7.634 1.997-13.579 5.979-17.823 3.991-4.229 9.598-6.35 16.819-6.35 4.479 0 8.437.977 11.854 2.924 3.427 1.954 6.058 4.752 7.894 8.408 1.835 3.656 2.757 7.934 2.757 12.841 0 7.636-2.004 13.593-6.018 17.892-4.004 4.313-9.587 6.461-16.74 6.461-4.488 0-8.45-.987-11.876-2.957-3.435-1.969-6.069-4.801-7.907-8.485-1.841-3.686-2.762-7.99-2.762-12.911zm12.979 0c0 4.634.764 8.13 2.291 10.495 1.521 2.373 4.006 3.559 7.445 3.559 3.413 0 5.87-1.186 7.361-3.531 1.501-2.356 2.248-5.859 2.248-10.521 0-4.619-.753-8.095-2.27-10.41-1.507-2.305-3.983-3.461-7.425-3.461-3.412 0-5.875 1.145-7.383 3.445-1.512 2.302-2.267 5.776-2.267 10.424z"/><path fill="#353535" d="M338.24 58.34h13.354l9.044 26.671c1.005 3.377 1.635 6.573 1.887 9.588h.25c.139-2.68.767-5.877 1.884-9.588l9.004-26.671h13.355l-17.837 46.81h-13.105l-17.836-46.81z"/><path fill="#353535" d="M394.721 105.149v-61.212h12.979v50.41h24.83v10.803h-37.809z"/><path fill="#353535" d="M441.616 46.239c0-4.159 2.315-6.238 6.949-6.238 4.635 0 6.952 2.079 6.952 6.238 0 1.98-.581 3.516-1.738 4.619-1.158 1.102-2.896 1.66-5.214 1.66-4.632.001-6.949-2.092-6.949-6.279zm.544 58.91v-46.81h12.771v46.811h-12.771z"/><path fill="#353535" d="M468.329 105.149v-65.065h12.771v15.136c0 1.926-.167 5.004-.502 9.246h.502c2.986-4.676 7.411-7.006 13.273-7.006 5.513 0 9.832 2.164 12.95 6.482 3.111 4.32 4.677 10.252 4.677 17.772 0 7.718-1.613 13.692-4.822 17.923-3.218 4.229-7.6 6.348-13.141 6.348-5.499 0-9.812-1.994-12.938-5.965h-.878l-2.136 5.129h-9.756zm12.771-23.516c0 5.024.747 8.612 2.239 10.788 1.494 2.178 3.859 3.266 7.1 3.266 2.622 0 4.711-1.207 6.26-3.613 1.549-2.413 2.322-5.918 2.322-10.522 0-4.594-.779-8.038-2.344-10.343-1.563-2.303-3.7-3.445-6.406-3.445-3.155 0-5.457.963-6.908 2.901-1.453 1.94-2.206 5.136-2.263 9.596v1.372z"/><path fill="#656565" d="M212 128.786v-.881l2.477-.711.788-3.805h.788v4.065h4.919v1.33h-4.919v10.616c0 1.289.226 2.24.681 2.857.453.615 1.166.924 2.135.924.968 0 1.813-.08 2.535-.246v1.262c-.743.253-1.597.378-2.567.378-1.484 0-2.583-.396-3.294-1.188-.713-.796-1.065-2.041-1.065-3.742v-10.859h-2.478z"/><path fill="#656565" d="M225.023 144.269v-24.067h1.516v7.657l-.079 2.15h.108c.629-1.012 1.427-1.744 2.385-2.197.963-.453 2.155-.68 3.581-.68 3.818 0 5.729 2.047 5.729 6.141v10.996h-1.517v-10.904c0-1.69-.355-2.92-1.069-3.688-.712-.77-1.817-1.154-3.315-1.154-2.013 0-3.488.511-4.421 1.523-.936 1.016-1.401 2.664-1.401 4.943v9.279h-1.517v.001z"/><path fill="#656565" d="M242.731 135.991c0-2.68.658-4.826 1.976-6.439 1.314-1.615 3.086-2.42 5.316-2.42 1.994 0 3.563.689 4.715 2.07 1.152 1.383 1.728 3.26 1.728 5.631v1.238h-12.156c.021 2.309.56 4.074 1.62 5.289s2.573 1.824 4.547 1.824c.96 0 1.81-.066 2.539-.199.729-.135 1.656-.424 2.772-.867v1.393c-.952.412-1.833.693-2.641.844-.808.148-1.699.224-2.671.224-2.438 0-4.339-.752-5.7-2.259-1.364-1.505-2.045-3.614-2.045-6.329zm1.671-1.312h10.409c0-1.928-.424-3.438-1.272-4.523-.844-1.088-2.018-1.633-3.516-1.633-1.622 0-2.92.529-3.902 1.584-.98 1.058-1.556 2.581-1.719 4.572z"/><path fill="#656565" d="M262.898 150.177c.547.162 1.063.248 1.547.248.908 0 1.599-.273 2.072-.818.475-.545.861-1.498 1.162-2.862l3.791-18.035h-3.17l.216-1.037 3.219-.215.52-2.474c.354-1.741.947-3.01 1.782-3.799.833-.789 2.005-1.184 3.509-1.184.752 0 1.607.164 2.564.49l-.385 1.258c-.896-.279-1.654-.418-2.272-.418-.989 0-1.781.275-2.375.828-.591.549-1.028 1.469-1.306 2.756l-.537 2.541h3.836l-.247 1.252h-3.854l-3.883 18.402c-.334 1.66-.869 2.873-1.598 3.631-.729.758-1.732 1.137-3.01 1.137-.496 0-1.021-.104-1.58-.309v-1.392z"/><path fill="#656565" d="M276.557 144.269l3.572-16.813h1.268l-.459 3.182h.099c.749-.979 1.382-1.682 1.901-2.111.512-.432 1.064-.766 1.646-1.004.58-.242 1.218-.36 1.912-.36.71 0 1.343.071 1.901.217l-.326 1.47c-.486-.154-1.067-.23-1.748-.23-.973 0-1.895.33-2.769.988-.88.658-1.668 1.645-2.37 2.963-.705 1.316-1.223 2.744-1.555 4.277l-1.559 7.424h-1.514v-.003z"/><path fill="#656565" d="M288.65 138.159c0-1.865.365-3.656 1.099-5.367.731-1.713 1.741-3.072 3.022-4.084 1.285-1.01 2.699-1.514 4.246-1.514 1.18 0 2.122.313 2.826.945.702.631 1.058 1.489 1.058 2.573 0 1.865-.848 3.285-2.532 4.263-1.689.977-4.197 1.469-7.521 1.469h-.512c-.061.453-.093.955-.093 1.514 0 1.701.382 2.998 1.146 3.889.766.895 1.862 1.338 3.293 1.338 1.36 0 2.784-.375 4.271-1.127v1.453c-1.445.711-2.986 1.066-4.624 1.066-1.785 0-3.177-.564-4.177-1.691-1.002-1.131-1.502-2.707-1.502-4.727zm1.905-3.047h.758c5.328 0 7.995-1.4 7.995-4.197 0-.693-.225-1.266-.673-1.717-.449-.449-1.048-.676-1.803-.676-1.35 0-2.605.6-3.766 1.795-1.159 1.2-1.998 2.795-2.511 4.795z"/><path fill="#656565" d="M303.005 138.159c0-1.865.364-3.656 1.097-5.367.731-1.713 1.74-3.072 3.024-4.084 1.283-1.01 2.699-1.514 4.245-1.514 1.181 0 2.122.313 2.825.945.704.631 1.058 1.489 1.058 2.573 0 1.865-.847 3.285-2.532 4.263-1.688.977-4.196 1.469-7.521 1.469h-.513c-.063.453-.094.955-.094 1.514 0 1.701.382 2.998 1.146 3.889.763.895 1.86 1.338 3.295 1.338 1.359 0 2.783-.375 4.267-1.127v1.453c-1.441.711-2.982 1.066-4.623 1.066-1.783 0-3.177-.564-4.175-1.691-1-1.131-1.499-2.707-1.499-4.727zm1.901-3.047h.759c5.329 0 7.995-1.4 7.995-4.197 0-.693-.225-1.266-.673-1.717-.449-.449-1.049-.676-1.803-.676-1.35 0-2.605.6-3.766 1.795-1.158 1.2-1.997 2.795-2.512 4.795z"/><path fill="#656565" d="M326.821 144.269v-16.813h1.299l.279 2.305h.094c.464-.836 1.125-1.482 1.979-1.941.86-.457 1.807-.688 2.836-.688 2.661 0 4.367.996 5.122 2.984h.063c.548-.959 1.282-1.695 2.204-2.211.92-.516 1.97-.773 3.146-.773 1.833 0 3.204.488 4.123 1.469.914.979 1.373 2.537 1.373 4.672v10.996h-1.515v-11.029c0-1.639-.32-2.834-.957-3.588-.64-.752-1.614-1.129-2.933-1.129-1.721 0-2.99.476-3.815 1.424-.821.947-1.234 2.439-1.234 4.47v9.854h-1.578v-11.492c0-2.834-1.301-4.254-3.904-4.254-1.768 0-3.053.514-3.856 1.541-.807 1.024-1.208 2.666-1.208 4.926v9.279h-1.518v-.002z"/><path fill="#656565" d="M353.811 135.839c0-2.742.663-4.881 1.991-6.41 1.322-1.533 3.144-2.297 5.455-2.297 2.304 0 4.109.777 5.42 2.326 1.313 1.553 1.967 3.68 1.967 6.381 0 2.744-.662 4.885-1.991 6.428-1.324 1.539-3.153 2.312-5.486 2.312-1.47 0-2.766-.354-3.886-1.065-1.121-.714-1.979-1.732-2.574-3.063-.598-1.333-.896-2.87-.896-4.612zm1.579 0c0 2.311.507 4.113 1.525 5.406 1.016 1.295 2.454 1.939 4.311 1.939 1.859 0 3.299-.646 4.313-1.939 1.019-1.293 1.526-3.096 1.526-5.406 0-2.32-.514-4.119-1.54-5.398-1.027-1.276-2.471-1.918-4.327-1.918-1.859 0-3.292.638-4.299 1.91-1.006 1.273-1.509 3.076-1.509 5.406z"/><path fill="#656565" d="M370.53 127.456h1.577l4.346 11.441c.577 1.465 1.01 2.746 1.3 3.84h.093c.423-1.402.854-2.693 1.3-3.871l4.346-11.41h1.578l-6.496 16.813h-1.547l-6.497-16.813z"/><path fill="#656565" d="M387.667 122.784c0-.988.28-1.484.844-1.484.361 0 .644.131.848.387.202.258.303.623.303 1.099 0 .465-.101.831-.303 1.1-.204.271-.485.402-.848.402-.564-.002-.844-.502-.844-1.504zm.216 21.485v-16.813h1.3v16.813h-1.3z"/><path fill="#656565" d="M394.07 135.991c0-2.68.655-4.826 1.974-6.439 1.315-1.615 3.088-2.42 5.317-2.42 1.993 0 3.563.689 4.717 2.07 1.149 1.383 1.726 3.26 1.726 5.631v1.238h-12.156c.021 2.309.56 4.074 1.617 5.289 1.061 1.215 2.574 1.824 4.55 1.824.96 0 1.808-.066 2.537-.199.73-.135 1.654-.424 2.774-.867v1.393c-.953.412-1.833.693-2.643.844-.808.148-1.698.224-2.67.224-2.44 0-4.34-.752-5.699-2.259-1.364-1.505-2.044-3.614-2.044-6.329zm1.668-1.312h10.409c0-1.928-.423-3.438-1.271-4.523-.845-1.088-2.019-1.633-3.516-1.633-1.621 0-2.921.529-3.902 1.584-.981 1.058-1.555 2.581-1.72 4.572z"/><path fill="#656565" d="M420.655 144.269v-24.067h1.516v24.067h-1.516z"/><path fill="#656565" d="M427.599 122.784c0-.988.282-1.484.848-1.484.36 0 .643.131.846.387.204.258.304.623.304 1.099 0 .465-.1.831-.304 1.1-.203.271-.484.402-.846.402-.566-.002-.848-.502-.848-1.504zm.218 21.485v-16.813h1.298v16.813h-1.298z"/><path fill="#656565" d="M434.978 144.269v-24.067h1.519v6.047c0 .907-.022 1.741-.064 2.506l-.046 1.313h.11c.638-1.01 1.411-1.75 2.313-2.225.905-.475 1.99-.711 3.263-.711 2.362 0 4.146.736 5.342 2.217 1.198 1.476 1.794 3.635 1.794 6.476 0 2.799-.626 4.959-1.887 6.475-1.263 1.521-3.031 2.279-5.312 2.279-1.199 0-2.274-.25-3.238-.75-.957-.498-1.72-1.207-2.273-2.123h-.126l-.386 2.563h-1.009zm1.517-8.182c0 2.531.444 4.346 1.339 5.447.893 1.104 2.284 1.65 4.174 1.65 1.837 0 3.222-.638 4.149-1.92.932-1.281 1.395-3.105 1.395-5.474 0-4.847-1.838-7.271-5.514-7.271-1.98 0-3.4.568-4.26 1.699-.857 1.131-1.283 2.998-1.283 5.602v.267z"/><path fill="#656565" d="M453.832 144.269v-16.813h1.297l.146 3.018h.104c.693-1.229 1.43-2.098 2.214-2.596.782-.498 1.731-.746 2.844-.746.714 0 1.477.072 2.289.217l-.292 1.453c-.701-.186-1.429-.279-2.183-.279-1.433 0-2.607.613-3.524 1.828-.918 1.219-1.377 2.762-1.377 4.621v9.297h-1.518z"/><path fill="#656565" d="M464.858 139.798c0-1.639.684-2.912 2.052-3.818 1.37-.908 3.35-1.389 5.938-1.44l3.208-.093v-1.112c0-1.597-.324-2.806-.973-3.617-.648-.815-1.691-1.223-3.134-1.223-1.556 0-3.169.432-4.833 1.299l-.574-1.33c1.846-.864 3.666-1.301 5.47-1.301 1.843 0 3.218.479 4.132 1.438.909.959 1.366 2.455 1.366 4.486v11.182h-1.13l-.387-2.66h-.124c-.843 1.082-1.71 1.849-2.602 2.297-.892.449-1.942.673-3.156.673-1.658 0-2.949-.423-3.869-1.269-.924-.846-1.384-2.016-1.384-3.512zm1.655.062c0 1.051.324 1.869.967 2.453.643.582 1.552.871 2.728.871 1.791 0 3.203-.515 4.237-1.539 1.033-1.025 1.551-2.451 1.551-4.275v-1.654l-2.932.123c-2.361.113-4.041.482-5.045 1.107-1.002.623-1.506 1.594-1.506 2.914z"/><path fill="#656565" d="M482.938 144.269v-16.813h1.3l.144 3.018h.105c.688-1.229 1.426-2.098 2.21-2.596s1.73-.746 2.846-.746c.712 0 1.475.072 2.288.217l-.293 1.453c-.701-.186-1.429-.279-2.181-.279-1.435 0-2.608.613-3.527 1.828-.917 1.219-1.377 2.762-1.377 4.621v9.297h-1.515z"/><path fill="#656565" d="M492.451 127.456h1.577l3.558 9.443c1.081 2.896 1.769 4.854 2.058 5.86h.094c.433-1.327 1.139-3.313 2.115-5.957l3.561-9.348h1.577l-7.533 19.534c-.607 1.589-1.119 2.658-1.53 3.218-.413.556-.894.976-1.444 1.252-.553.278-1.223.418-2.005.418-.588 0-1.239-.104-1.964-.31v-1.332c.6.166 1.242.25 1.933.25.525 0 .992-.125 1.394-.373.401-.245.767-.631 1.09-1.149.324-.524.702-1.351 1.129-2.479.429-1.129.705-1.866.827-2.205l-6.437-16.822z"/><path fill="#656565" d="M509.495 143.085c0-.996.411-1.492 1.236-1.492.844 0 1.269.496 1.269 1.492 0 .992-.425 1.492-1.269 1.492-.825 0-1.236-.5-1.236-1.492z"/></svg>