<svg xmlns="http://www.w3.org/2000/svg" viewBox="0 0 60 38"><title>Fachhochschule Salzburg</title><path fill="#1B1C20" d="M9.127 15.57h-5.241v9.084h-1.554v-9.084h-2.332v-1.332h2.332v-.888c0-1.316.34-2.246 1.021-2.787.68-.54 1.716-.813 3.109-.813l2.665-.045v1.334h-2.131c-1.097 0-1.889.133-2.377.398-.488.268-.732.904-.732 1.91v.889h5.241l-.001 1.334z"/><path fill="#1B1C20" d="M11.63 16.303c.284-.932.773-1.539 1.471-1.82s1.559-.422 2.587-.422c1.677 0 2.917.227 3.721.678.805.451 1.357 1.588 1.357 3.408v6.508h-1.393v-6.508c0-.607-.068-1.1-.204-1.477-.137-.377-.385-.65-.744-.822-.36-.17-.75-.281-1.169-.332-.419-.053-.871-.078-1.355-.078-1.311 0-2.351.174-3.118.521s-1.151 1.203-1.151 2.566v6.129h-1.472v-14.947h1.47v6.596z"/><path fill="#981F32" d="M22.372 20.967h1.026l.021.244c0 .711.134 1.199.402 1.467.27.266.739.436 1.41.51l2.479.09h.786c.833 0 1.578-.041 2.236-.123.658-.08 1.099-.215 1.319-.398.223-.186.334-.521.334-1.012 0-.74-.166-1.244-.494-1.51-.329-.266-.856-.398-1.582-.398l-2.56-.021h-2.438c-1.062 0-1.868-.188-2.418-.557-.265-.178-.462-.445-.599-.795l-.025.536c0 .664.036 1.32.103 1.967z"/><path fill="#981F32" d="M41.133.135c-9.024 0-16.561 6.342-18.416 14.811l.158-.186c.536-.48 1.282-.721 2.235-.721l2.682-.133c.497 0 .979.004 1.45.01.471.008 1.001.041 1.593.102.979 0 1.675.225 2.085.676.408.451.613 1.211.613 2.277h-1.41c-.054-.592-.178-.988-.373-1.189-.195-.199-.588-.336-1.179-.41l-2.78-.09c-.592 0-1.071.008-1.44.023-.37.016-.786.059-1.25.133s-.833.211-1.108.41c-.274.201-.413.537-.413 1.012 0 .637.145 1.055.434 1.254.289.201.742.301 1.36.301l2.438.066h2.64c1.169 0 2.036.203 2.601.611.563.406.846 1.209.846 2.408 0 1.377-.333 2.24-.998 2.588s-1.689.521-3.073.521l-2.64.045c-.806 0-1.421-.012-1.844-.033-.423-.023-.947-.104-1.571-.244-.306-.07-.572-.18-.799-.328 2.21 7.965 9.495 13.816 18.161 13.816 10.418 0 18.865-8.445 18.865-18.865s-8.447-18.865-18.867-18.865z"/></svg>