<svg xmlns="http://www.w3.org/2000/svg" viewBox="0 0 119 32"><title>GitHub</title><path fill="#fff" d="M23.127 13.698h-9.943c-.257 0-.465.208-.465.465v4.861c0 .256.208.466.465.466h3.879v6.04s-.871.297-3.279.297c-2.841 0-6.81-1.038-6.81-9.765 0-8.729 4.133-9.877 8.013-9.877 3.357 0 4.805.591 5.726.876.289.089.557-.199.557-.456l1.109-4.697c0-.12-.041-.265-.178-.363-.374-.267-2.655-1.543-8.417-1.543-6.638 0-13.447 2.824-13.447 16.4 0 13.577 7.796 15.6 14.365 15.6 5.439 0 8.739-2.324 8.739-2.324.136-.076.15-.266.15-.353v-15.162c0-.257-.208-.465-.464-.465"/><path fill="#fff" d="M74.37 1.628c0-.258-.205-.467-.461-.467h-5.599c-.256 0-.464.209-.464.467l.001 10.82h-8.727v-10.82c0-.258-.206-.467-.462-.467h-5.599c-.255 0-.463.209-.463.467v29.297c0 .258.208.469.463.469h5.599c.256 0 .462-.21.462-.469v-12.531h8.727l-.015 12.531c0 .258.207.469.463.469h5.612c.257 0 .462-.21.462-.469v-29.297"/><path fill="#fff" d="M33.691 5.473c0-2.016-1.616-3.645-3.61-3.645-1.992 0-3.609 1.629-3.609 3.645 0 2.014 1.617 3.647 3.609 3.647 1.994 0 3.61-1.634 3.61-3.647"/><path fill="#fff" d="M33.291 24.745v-13.524c0-.256-.207-.466-.463-.466h-5.581c-.256 0-.485.264-.485.521v19.375c0 .57.354.739.814.739h5.028c.552 0 .687-.271.687-.748v-5.897"/><path fill="#fff" d="M95.648 10.799h-5.557c-.254 0-.462.21-.462.468v14.365s-1.411 1.033-3.415 1.033c-2.003 0-2.534-.909-2.534-2.871v-12.527c0-.258-.207-.468-.462-.468h-5.638c-.255 0-.464.21-.464.468v13.476s3.248 7.251 7.715 7.251c3.664 0 6.619-2.025 6.619-2.025s.141 1.067.204 1.193c.064.126.229.254.409.254l3.587-.016c.255 0 .463-.21.463-.468l-.002-19.667c0-.256-.207-.466-.463-.466"/><path fill="#fff" d="M108.642 26.647c-1.927-.058-3.234-.933-3.234-.933v-9.277s1.29-.791 2.872-.932c2.001-.179 3.928.425 3.928 5.198-.001 5.032-.871 6.026-3.566 5.944zm2.191-16.506c-3.156 0-5.302 1.408-5.302 1.408v-9.92c0-.258-.207-.467-.462-.467h-5.614c-.256 0-.463.209-.463.467v29.297c0 .258.207.469.463.469h3.896c.176 0 .309-.09.406-.249.097-.158.236-1.351.236-1.351s2.296 2.176 6.643 2.176c5.103 0 8.028-2.588 8.028-11.619 0-9.031-4.674-10.211-7.831-10.211"/><path fill="#fff" d="M49.382 10.752h-4.199l-.007-5.548c0-.21-.107-.315-.351-.315h-5.723c-.223 0-.343.098-.343.312v5.733s-2.867.692-3.062.748c-.193.056-.335.234-.335.447v3.603c0 .259.206.468.463.468h2.934v8.667c0 6.438 4.517 7.071 7.563 7.071 1.393 0 3.058-.447 3.333-.549.166-.061.263-.233.263-.42l.005-3.964c0-.258-.219-.467-.464-.467s-.871.1-1.516.1c-2.063 0-2.762-.959-2.762-2.201v-8.237h4.199c.256 0 .464-.209.464-.468v-4.513c.002-.259-.206-.467-.462-.467"/></svg>