<svg version="1.1" xmlns="http://www.w3.org/2000/svg" width="100%" height="100%" viewBox="0 0 256 256"><filter id="f"><feGaussianBlur stdDeviation="4.25"/></filter><title>MovLib, the free movie library.</title><desc>Official logo from the MovLib project.</desc><g filter="url(#f)"><polygon fill="#999" points="208.381,251.829 129.96,199.288 52.023,252.838 74.999,163.38 2.748,104.442 96.016,99.921 128.654,11.719 164.861,100.884 255.743,102.811 182.891,162.801 "/></g><path fill="#FFCC75" d="M207.137,244.77l-78.422-52.535l-77.936,53.545l22.972-89.455L1.5,97.386l93.268-4.52l32.64-88.202 l36.207,89.165l90.883,1.924l-72.854,59.991L207.137,244.77z"/><path fill="#BA6100" d="M50.779,247.279c-0.301,0-0.604-0.09-0.861-0.271c-0.512-0.357-0.751-0.996-0.594-1.604l22.735-88.526 L0.551,98.548c-0.482-0.392-0.67-1.043-0.476-1.631c0.195-0.589,0.732-1.001,1.353-1.03l92.277-4.472l32.292-87.271 c0.214-0.583,0.764-0.971,1.385-0.981c0.626-0.017,1.181,0.362,1.416,0.937l35.834,88.251l89.896,1.904 c0.627,0.014,1.182,0.417,1.389,1.009c0.206,0.592,0.02,1.251-0.465,1.651l-72.094,59.364l25.223,88.078 c0.174,0.604-0.048,1.256-0.559,1.627c-0.51,0.371-1.199,0.386-1.719,0.035l-77.578-51.972l-77.096,52.97 C51.373,247.191,51.077,247.279,50.779,247.279z M5.483,98.694L74.7,155.159c0.455,0.37,0.651,0.969,0.504,1.538l-21.978,85.576 l74.636-51.276c0.506-0.351,1.177-0.353,1.686-0.011l75.017,50.256l-24.36-85.084c-0.166-0.574,0.026-1.191,0.487-1.571 l69.727-57.417l-86.835-1.838c-0.601-0.012-1.134-0.38-1.362-0.937l-34.75-85.581L96.178,93.387 c-0.208,0.564-0.735,0.948-1.335,0.979L5.483,98.694z"/><radialGradient id="rg1" cx="7332.4033" cy="-12025.377" r="871.5099" gradientTransform="matrix(0.1609 0 0 -0.1534 -995.6151 -1629.2916)" gradientUnits="userSpaceOnUse"><stop offset="0" stop-color="#FF901F"/><stop offset="1" stop-color="#FFB61F"/></radialGradient><path fill="url(#rg1)" d="M202.923,238.914l-74.415-54.066l-72.176,53.978l20.966-83.609L10.07,99.501l87.371-3.932 l29.808-83.414l34.183,84.988l86.16,0.827l-73.92,54.615L202.923,238.914z"/><radialGradient id="rg2" cx="9042.4434" cy="-423.7363" r="732.8926" gradientTransform="matrix(0.1571 0.1372 1.3346 -1.5288 -806.8312 -1797.8269)" gradientUnits="userSpaceOnUse"><stop offset="0" stop-color="#FFF"/><stop offset="1" stop-color="#FFF" stop-opacity="0"/></radialGradient><path fill="url(#rg2)" d="M64.994,204.486l12.304-49.271l-67.023-55.087l87.162-4.404l29.754-83.389l34.385,84.816 l49.998,0.554C133.813,117.033,110.292,127.269,64.994,204.486z"/><path fill="#A1A39F" d="M202.386,141.401c0,28.199-33.26,51.017-74.314,51.017c-41.052,0-74.313-22.899-74.313-51.017 c0-28.238,33.26-51.018,74.313-51.018C169.128,90.386,202.386,113.284,202.386,141.401z"/><path fill="#6D6F6A" d="M128.073,194.024c-41.775,0-75.921-23.584-75.921-52.623c0-29.043,33.983-52.622,75.921-52.622 c41.938,0,75.924,23.579,75.924,52.622C203.995,170.44,169.849,194.024,128.073,194.024z M128.073,91.591 c-40.17,0-72.709,22.294-72.709,49.811c0,27.518,32.539,49.813,72.709,49.813c40.171,0,72.707-22.252,72.707-49.813 C200.78,113.844,168.241,91.591,128.073,91.591z"/><path fill="#555753" d="M171.457,131.359c0,18.316-20.288,33.18-45.392,33.18c-24.987,0-45.394-14.863-45.394-33.18 c0-18.32,20.247-33.181,45.394-33.181c24.904,0,45.392,14.861,45.392,33.339V131.359z"/><radialGradient id="rg3" cx="412.8936" cy="-643.7852" r="14.2602" gradientTransform="matrix(4 0 0 -4 -1524.0156 -2400.7109)" gradientUnits="userSpaceOnUse"><stop offset="0" stop-color="#767676"/><stop offset="1" stop-color="#484848"/></radialGradient><path fill="url(#rg3)" d="M222.473,202.057c0,0-33.422-15.021-55.032-13.134c-22.818,2.014-61.059,3.366-75.924-20.246 c63.469,19.118,92.793-12.653,135.776,5.261L222.473,202.057z"/><path fill="#3B3D39" d="M224.079,204.871l-2.356-1.061c-0.312-0.137-33.141-14.782-53.829-12.973 c-4.941,0.431-12.454,1.019-20.568,1.019c-28.64,0-47.802-7.471-57.04-22.176l-2.884-4.536l5.142,1.556 c14.059,4.218,27.556,6.308,41.373,6.308c13.258,0,24.786-1.872,35.955-3.678c9.963-1.609,19.362-3.134,29.003-3.134 c10.644,0,20.086,1.857,29.644,5.864L230,172.68l-6.428,31.334L224.079,204.871z M171.457,186.793 c18.236,0,41.775,9.281,49.409,12.452l4.216-24.02c-8.557-3.361-17.072-4.944-26.633-4.944c-9.318,0-18.559,1.499-28.358,3.088 c-11.33,1.829-23.02,3.728-36.595,3.728c-12.209,0-24.221-1.583-36.595-4.821c9.559,10.405,26.392,15.666,50.212,15.666 c7.952,0,15.348-0.574,20.207-1.008h4.416L171.457,186.793z"/><linearGradient id="lg1" gradientUnits="userSpaceOnUse" x1="570.4189" y1="-641.688" x2="575.4401" y2="-655.7472" gradientTransform="matrix(3.044 0 0 -3.9468 -1617.3247 -2443.3958)"><stop offset="0" stop-color="#888A85"/><stop offset="1" stop-color="#B8B9B6"/></linearGradient><path fill="url(#lg1)" d="M173.063,122.118c0,18.079-20.166,32.7-44.99,32.7c-24.825,0-44.99-14.622-44.99-32.7 c0-18.074,20.164-32.697,44.99-32.697c24.824,0,44.99,14.462,44.99,32.537V122.118z"/><path fill="#757972" d="M128.073,157.469c-26.231,0-47.4-15.787-47.4-35.191c0-19.4,21.33-35.188,47.4-35.188 c26.071,0,47.399,15.789,47.399,35.188c0,19.404-21.289,35.35-47.399,35.35V157.469z M128.073,91.992 c-23.501,0-42.581,13.577-42.581,30.209c0,16.673,19.122,30.205,42.581,30.205c23.46,0,42.581-13.576,42.581-30.205 c0-16.471-19.279-30.129-42.581-30.129V91.992z"/><path fill="#D3D7CF" d="M128.073,67.57h-0.501c-0.959,0.002-1.941-0.032-2.889,0c-0.462,0.015-0.92-0.021-1.382,0 c-0.305,0.01-0.58-0.017-0.879,0c-38.964,2.088-69.092,25.626-69.092,54.229c0,29.965,33.3,54.228,74.315,54.228 c41.014,0,74.315-24.102,74.315-54.228c0-30.129-33.343-54.229-74.315-54.229L128.073,67.57L128.073,67.57z M116.826,76.365 c0.253-0.021,0.498,0.015,0.754,0c0.539-0.029,1.085,0,1.632,0c11.73,0,21.208,6.829,21.208,15.185s-9.478,15.062-21.208,15.062 c-11.731,0-21.209-6.707-21.209-15.062c0-7.231,8.437-14.062,18.881-14.824L116.826,76.365z M88.707,140.637 c-12.815,0-23.219-7.39-23.219-16.549c0-8.516,8.877-15.625,20.447-16.551c0.875-0.072,1.859,0,2.764,0 c12.814,0,23.218,7.391,23.218,16.551c0,9.159-10.444,16.467-23.297,16.467L88.707,140.637z M136.107,164.741 c-14.183,0-25.75-8.274-25.75-18.438c0-9.159,9.481-16.912,21.731-18.32c0.096-0.01,0.157,0.011,0.254,0h0.122c0,0,0.113,0,0.125,0 h0.125h0.378h0.123c0.97-0.079,1.888,0,2.889,0c14.182,0,25.748,8.154,25.748,18.32c0,10.163-10.845,18.478-25.305,18.478 L136.107,164.741z M165.831,126.98c-12.45,0-22.574-7.151-22.574-16.067c0-8.234,8.797-15.183,19.963-16.188 c0.267-0.025,0.482,0.019,0.754,0c0.472-0.03,0.905,0.007,1.384,0c0.198-0.005,0.305,0,0.502,0c12.451,0,22.575,7.272,22.575,16.188 c0,8.917-10.042,16.067-22.495,16.067H165.831z"/><path fill="#888A85" d="M128.073,65.56c42.179,0,76.325,25.268,76.325,56.24c0,31.09-34.226,56.236-76.325,56.236 c-42.097,0-76.323-25.266-76.323-56.238c0-29.446,31.012-54.228,70.7-56.239L128.073,65.56L128.073,65.56z M122.85,69.577 c-37.759,2.048-67.082,25.226-67.082,52.221c0,28.881,32.457,52.221,72.306,52.221s72.305-23.5,72.305-52.221 c0-28.721-32.458-52.362-72.305-52.362L122.85,69.577z"/><path fill="#888A85" d="M119.235,74.356c12.814,0,23.217,7.714,23.217,17.195c0,9.4-10.403,17.071-23.217,17.071 c-12.815,0-23.218-7.671-23.218-17.071c0-8.838,8.877-16.23,20.687-17.195H119.235z M117.228,78.335 c-9.683,0.767-17.153,6.546-17.153,13.175c0,7.191,8.595,13.056,19.201,13.056c10.604,0,19.203-5.864,19.203-13.056 c0-7.271-8.6-13.175-19.203-13.175H117.228z"/><path fill="#888A85" d="M165.831,92.797c13.658,0,24.505,8.033,24.505,18.076c0,9.961-11.049,18.076-24.586,18.076 c-13.536,0-24.583-8.115-24.583-18.076c0-9.241,9.359-17.073,21.772-18.199h2.814L165.831,92.797z M163.422,96.813 c-10.284,0.907-18.236,7.149-18.236,14.181c0,7.753,9.239,14.059,20.568,14.059c11.328,0,20.483-6.025,20.483-14.059 c0-7.632-9.237-14.06-20.483-14.06h-2.411L163.422,96.813z"/><path fill="#888A85" d="M88.707,105.651c13.897,0,25.227,8.356,25.227,18.556c0,10.203-11.328,18.559-25.227,18.559 c-13.899,0-25.227-8.355-25.227-18.559c0-9.56,9.603-17.511,22.293-18.556h2.812H88.707z M85.895,109.667 c-10.604,0.872-18.639,7.15-18.639,14.581c0,8.036,9.52,14.542,21.209,14.542c11.691,0,21.208-6.548,21.208-14.542 c0-7.993-9.52-14.543-21.208-14.543h-2.409L85.895,109.667z"/><path fill="#888A85" d="M136.107,126.137c15.304,0,27.757,9.119,27.757,20.327c0,11.284-12.452,20.446-27.757,20.446 c-15.307,0-27.758-9.16-27.758-20.446c0-10.042,10.082-18.76,23.499-20.327h4.418H136.107L136.107,126.137z M132.492,130.152 c-11.53,1.308-20.087,8.313-20.087,16.312c0,9.077,10.646,16.426,23.741,16.426c13.097,0,23.739-7.389,23.739-16.426 c0-9.001-10.645-16.312-23.739-16.312h-3.515H132.492L132.492,130.152z"/><linearGradient id="lg2" gradientUnits="userSpaceOnUse" x1="440.1309" y1="-701.5566" x2="440.1309" y2="-665.5219" gradientTransform="matrix(3.804 0 0 -3.752 -1546.1832 -2462.4441)"><stop offset="0" stop-color="#FFF"/><stop offset="1" stop-color="#FFF" stop-opacity="0"/></linearGradient><path fill="url(#lg2)" d="M128.073,174.342c-39.867,0-72.306-23.584-72.306-52.456c0-28.986,32.437-52.449,72.306-52.449 c39.827,0,72.305,23.584,72.305,52.449C200.378,150.717,168.021,174.342,128.073,174.342z M128.073,73.44 c-37.511,0-67.911,21.663-67.911,48.445c0,26.792,30.52,48.453,67.911,48.453c37.511,0,67.911-21.661,67.911-48.453 C195.983,95.102,165.624,73.44,128.073,73.44z"/><linearGradient id="lg3" gradientUnits="userSpaceOnUse" x1="503.7109" y1="-754.5195" x2="497.6853" y2="-753.5152" gradientTransform="matrix(3.54 0 0 -3.54 -1557.3696 -2484.0505)"><stop offset="0" stop-color="#888A85"/><stop offset="1" stop-color="#888A85" stop-opacity="0"/></linearGradient><path fill="url(#lg3)" d="M221.748,199.445c-10.486-3.515-16.79-6.305-28.399-9.074l1.334-19.725 c8.036-0.807,19.683,0.401,31.734,4.416L221.748,199.445z"/><linearGradient id="lg4" gradientUnits="userSpaceOnUse" x1="436.1006" y1="-650.8003" x2="418.9271" y2="-650.8003" gradientTransform="matrix(4 0 0 -4 -1531.8984 -2429.5938)"><stop offset="0" stop-color="#FFF"/><stop offset="1" stop-color="#FFF" stop-opacity="0"/></linearGradient><path opacity="0.7" fill="url(#lg4)" enable-background="new  " d="M225.894,177.855c-32.732-12.171-63.038-0.912-94.56,0 c42.837-3.615,56.979-14.86,95.368-3.615L225.894,177.855z"/></svg>