<svg version="1.1" xmlns="http://www.w3.org/2000/svg" width="100%" height="100%" viewBox="0 0 192 192" preserveAspectRatio="xMinYMin none"><title>MovLib, the free movie library.</title><filter id="f"><feGaussianBlur stdDeviation="4.25"></feGaussianBlur></filter><g filter="url(#f)"><polygon fill="#999" points="151.262,181.133 97.348,145.012 43.767,181.826 59.563,120.324 9.891,79.804 74.013,76.695 96.451,16.056 121.343,77.357 183.823,78.683 133.736,119.926"/></g><path fill="#FFCC75" d="M150.406,176.279l-53.914-36.118l-53.582,36.813l15.793-61.502L9.031,74.953l64.122-3.107l22.44-60.639l24.891,61.301l62.482,1.322l-50.087,41.245L150.406,176.279z"/><path fill="#BA6100" d="M42.912,178.006c-0.207,0-0.415-0.063-0.592-0.188c-0.352-0.246-0.516-0.686-0.408-1.104l15.63-60.861L8.379,75.751c-0.331-0.27-0.46-0.717-0.327-1.121c0.134-0.404,0.503-0.688,0.93-0.709l63.44-3.074l22.201-59.998c0.147-0.4,0.525-0.668,0.952-0.675c0.43-0.012,0.812,0.249,0.973,0.644l24.637,60.675l61.803,1.31c0.431,0.01,0.812,0.285,0.953,0.692c0.143,0.405,0.015,0.86-0.318,1.135l-49.564,40.814l17.342,60.553c0.119,0.416-0.033,0.863-0.385,1.119s-0.824,0.266-1.183,0.023L96.5,141.409l-53.003,36.417C43.319,177.943,43.117,178.006,42.912,178.006z M11.771,75.851l47.587,38.821c0.313,0.256,0.447,0.666,0.346,1.059l-15.11,58.834l51.313-35.254c0.348-0.24,0.808-0.242,1.158-0.006l51.574,34.551l-16.748-58.496c-0.113-0.395,0.02-0.818,0.336-1.079l47.937-39.476l-59.698-1.264c-0.413-0.008-0.779-0.262-0.938-0.645L95.639,14.058L74.125,72.203c-0.143,0.389-0.505,0.652-0.918,0.674L11.771,75.851z"/><radialGradient id="i1" cx="8069.127" cy="14276.2285" r="599.1647" gradientTransform="matrix(0.1609 0 0 0.1534 -1163.7056 -2033.8848)" gradientUnits="userSpaceOnUse"><stop offset="0" stop-color="#FF901F"/><stop offset="1" stop-color="#FFB61F"/></radialGradient><path fill="url(#i1)" d="M147.51,172.254l-51.16-37.171l-49.621,37.108l14.414-57.48L14.924,76.407l60.068-2.704l20.493-57.348l23.499,58.431l59.236,0.567l-50.82,37.549L147.51,172.254z"/><radialGradient id="i2" cx="10495.248" cy="994.9971" r="503.8613" gradientTransform="matrix(0.1571 0.1372 -1.3346 1.5288 -279.7285 -2890.8105)" gradientUnits="userSpaceOnUse"><stop offset="0" stop-color="#FFF"/><stop offset="1" stop-color="#FFF" stop-opacity="0"/></radialGradient><path fill="url(#i2)" d="M52.685,148.585l8.458-33.874L15.064,76.837l59.924-3.027l20.456-57.33l23.64,58.312l34.373,0.381C99.997,88.46,83.827,95.498,52.685,148.585z"/><path fill="#A1A39F" d="M144.003,101.557c0,18.028-21.262,32.615-47.507,32.615c-26.244,0-47.507-14.641-47.507-32.615c0-18.052,21.263-32.614,47.507-32.614C122.742,68.943,144.003,83.582,144.003,101.557z"/><path fill="#6D6F6A" d="M96.497,135.199c-26.707,0-48.535-15.077-48.535-33.643c0-18.567,21.725-33.642,48.535-33.642s48.537,15.073,48.537,33.642C145.031,120.122,123.203,135.199,96.497,135.199z M96.497,69.713c-25.68,0-46.482,14.253-46.482,31.843c0,17.592,20.802,31.846,46.482,31.846s46.48-14.226,46.48-31.846C142.977,83.939,122.175,69.713,96.497,69.713z"/><path fill="#555753" d="M124.23,95.138c0,11.709-12.969,21.211-29.017,21.211c-15.974,0-29.021-9.502-29.021-21.211c0-11.713,12.944-21.213,29.021-21.213c15.92,0,29.017,9.5,29.017,21.313V95.138L124.23,95.138z"/><radialGradient id="i3" cx="245.0361" cy="1233.4941" r="9.1161" gradientTransform="matrix(4 0 0 4 -883.9766 -4811.3047)" gradientUnits="userSpaceOnUse"><stop offset="0" stop-color="#767676"/><stop offset="1" stop-color="#484848"/></radialGradient><path fill="url(#i3)" d="M156.846,140.333c0,0-21.367-9.603-35.183-8.396c-14.587,1.287-39.034,2.151-48.537-12.943c40.575,12.222,59.321-8.09,86.799,3.363L156.846,140.333z"/><path fill="#3B3D39" d="M157.871,142.133l-1.508-0.679c-0.197-0.087-21.186-9.449-34.41-8.292c-3.159,0.275-7.962,0.65-13.148,0.65c-18.309,0-30.56-4.775-36.465-14.178l-1.844-2.898l3.287,0.994c8.988,2.695,17.617,4.031,26.45,4.031c8.476,0,15.846-1.195,22.985-2.351c6.369-1.029,12.378-2.004,18.541-2.004c6.806,0,12.841,1.188,18.95,3.749l0.948,0.396l-4.108,20.031L157.871,142.133z M124.23,130.575c11.658,0,26.707,5.934,31.586,7.961l2.695-15.354c-5.47-2.149-10.914-3.162-17.025-3.162c-5.957,0-11.864,0.959-18.129,1.976c-7.243,1.169-14.717,2.383-23.396,2.383c-7.804,0-15.483-1.012-23.395-3.082c6.111,6.651,16.872,10.017,32.1,10.017c5.083,0,9.812-0.369,12.918-0.646h2.823L124.23,130.575z"/><linearGradient id="i4" gradientUnits="userSpaceOnUse" x1="416.9629" y1="1240.1045" x2="420.1728" y2="1249.0922" gradientTransform="matrix(3.044 0 0 3.9468 -1178.5212 -4826.248)"><stop offset="0" stop-color="#888A85"/><stop offset="1" stop-color="#B8B9B6"/></linearGradient><path fill="url(#i4)" d="M125.258,89.228c0,11.559-12.892,20.906-28.761,20.906c-15.87,0-28.761-9.348-28.761-20.906c0-11.555,12.891-20.901,28.761-20.901c15.87,0,28.761,9.245,28.761,20.8V89.228z"/><path fill="#757972" d="M96.497,111.828c-16.77,0-30.302-10.092-30.302-22.498c0-12.401,13.636-22.495,30.302-22.495c16.667,0,30.301,10.094,30.301,22.495c0,12.406-13.61,22.599-30.301,22.599V111.828z M96.497,69.97c-15.024,0-27.222,8.68-27.222,19.313c0,10.658,12.225,19.31,27.222,19.31c14.998,0,27.221-8.68,27.221-19.31c0-10.53-12.325-19.263-27.221-19.263V69.97z"/><path fill="#D3D7CF" d="M96.497,54.357h-0.32c-0.613,0.002-1.241-0.021-1.847,0c-0.295,0.01-0.588-0.014-0.883,0c-0.194,0.006-0.371-0.01-0.562,0C67.976,55.693,48.715,70.74,48.715,89.025c0,19.157,21.289,34.667,47.51,34.667c26.218,0,47.507-15.406,47.507-34.667c0-19.262-21.314-34.668-47.507-34.668H96.497L96.497,54.357z M89.307,59.98c0.162-0.015,0.318,0.01,0.482,0c0.345-0.021,0.694,0,1.043,0c7.499,0,13.559,4.365,13.559,9.707s-6.061,9.629-13.559,9.629c-7.499,0-13.559-4.287-13.559-9.629c0-4.623,5.394-8.99,12.071-9.478L89.307,59.98z M71.331,101.068c-8.192,0-14.843-4.726-14.843-10.581c0-5.444,5.675-9.989,13.072-10.58c0.56-0.047,1.188,0,1.767,0c8.192,0,14.843,4.725,14.843,10.58c0,5.854-6.677,10.528-14.894,10.528L71.331,101.068z M101.632,116.479c-9.065,0-16.46-5.289-16.46-11.787c0-5.854,6.061-10.813,13.893-11.713c0.061-0.006,0.101,0.008,0.162,0h0.078c0,0,0.073,0,0.08,0h0.08h0.242h0.079c0.62-0.051,1.207,0,1.847,0c9.066,0,16.46,5.213,16.46,11.713c0,6.496-6.934,11.813-16.177,11.813L101.632,116.479z M120.634,92.337c-7.959,0-14.431-4.572-14.431-10.271c0-5.264,5.624-9.707,12.762-10.35c0.17-0.016,0.309,0.012,0.482,0c0.301-0.02,0.578,0.006,0.885,0c0.127-0.003,0.195,0,0.32,0c7.959,0,14.433,4.648,14.433,10.35s-6.42,10.271-14.381,10.271H120.634z"/><path fill="#888A85" d="M96.497,53.072c26.963,0,48.792,16.154,48.792,35.953c0,19.875-21.879,35.952-48.792,35.952c-26.912,0-48.792-16.151-48.792-35.952c0-18.826,19.825-34.668,45.198-35.953H96.497L96.497,53.072z M93.158,55.64c-24.139,1.309-42.885,16.127-42.885,33.385c0,18.463,20.75,33.385,46.224,33.385s46.224-15.023,46.224-33.385c0-18.36-20.75-33.475-46.224-33.475L93.158,55.64z"/><path fill="#888A85" d="M90.847,58.695c8.191,0,14.841,4.933,14.841,10.994c0,6.008-6.649,10.912-14.841,10.912c-8.193,0-14.843-4.904-14.843-10.912c0-5.65,5.675-10.377,13.225-10.994H90.847z M89.563,61.238c-6.19,0.49-10.966,4.186-10.966,8.424c0,4.598,5.495,8.346,12.274,8.346c6.779,0,12.275-3.748,12.275-8.346c0-4.648-5.496-8.424-12.275-8.424H89.563z"/><path fill="#888A85" d="M120.634,70.484c8.731,0,15.665,5.137,15.665,11.557c0,6.367-7.063,11.557-15.716,11.557s-15.716-5.188-15.716-11.557c0-5.908,5.982-10.914,13.919-11.635h1.799L120.634,70.484z M119.094,73.052c-6.574,0.58-11.658,4.57-11.658,9.065c0,4.956,5.906,8.987,13.148,8.987s13.096-3.853,13.096-8.987c0-4.88-5.906-8.988-13.096-8.988h-1.541L119.094,73.052z"/><path fill="#888A85" d="M71.331,78.703c8.885,0,16.127,5.342,16.127,11.861c0,6.523-7.242,11.866-16.127,11.866c-8.885,0-16.127-5.343-16.127-11.866c0-6.111,6.139-11.194,14.252-11.861h1.798H71.331z M69.533,81.269c-6.779,0.56-11.916,4.572-11.916,9.322c0,5.137,6.086,9.297,13.559,9.297c7.474,0,13.558-4.188,13.558-9.297s-6.086-9.297-13.558-9.297h-1.54L69.533,81.269z"/><path fill="#888A85" d="M101.632,91.798c9.783,0,17.745,5.831,17.745,12.995c0,7.215-7.96,13.072-17.745,13.072s-17.745-5.856-17.745-13.072c0-6.42,6.445-11.993,15.021-12.995h2.824H101.632L101.632,91.798z M99.32,94.366c-7.37,0.836-12.84,5.314-12.84,10.427c0,5.803,6.806,10.502,15.178,10.502c8.371,0,15.176-4.725,15.176-10.502c0-5.754-6.805-10.427-15.176-10.427h-2.247H99.32L99.32,94.366z"/><linearGradient id="i5" gradientUnits="userSpaceOnUse" x1="274.4199" y1="1296.2197" x2="274.4199" y2="1273.1825" gradientTransform="matrix(3.804 0 0 3.752 -947.3986 -4743.707)"><stop offset="0" stop-color="#FFF"/><stop offset="1" stop-color="#FFF" stop-opacity="0"/></linearGradient><path fill="url(#i5)" d="M96.497,122.615c-25.486,0-46.224-15.076-46.224-33.535c0-18.53,20.736-33.53,46.224-33.53c25.46,0,46.224,15.077,46.224,33.53C142.721,107.514,122.034,122.615,96.497,122.615z M96.497,58.109c-23.98,0-43.415,13.85-43.415,30.971c0,17.128,19.511,30.977,43.415,30.977c23.98,0,43.415-13.849,43.415-30.977C139.91,71.958,120.502,58.109,96.497,58.109z"/><linearGradient id="i6" gradientUnits="userSpaceOnUse" x1="331.3887" y1="1351.8164" x2="327.5369" y2="1351.1744" gradientTransform="matrix(3.54 0 0 3.54 -1014.1601 -4654.7544)"><stop offset="0" stop-color="#888A85"/><stop offset="1" stop-color="#888A85" stop-opacity="0"/></linearGradient><path fill="url(#i6)" d="M156.382,138.664c-6.704-2.247-10.733-4.031-18.155-5.801l0.853-12.609c5.138-0.516,12.583,0.256,20.287,2.822L156.382,138.664z"/><linearGradient id="i7" gradientUnits="userSpaceOnUse" x1="260.583" y1="1240.585" x2="249.6032" y2="1240.585" gradientTransform="matrix(4 0 0 4 -891.8594 -4840.1875)"><stop offset="0" stop-color="#FFF"/><stop offset="1" stop-color="#FFF" stop-opacity="0"/></linearGradient><path opacity="0.7" fill="url(#i7)" d="M159.031,124.861c-20.926-7.78-40.299-0.582-60.451,0c27.385-2.312,36.426-9.5,60.967-2.312L159.031,124.861z"/></svg>