<svg version="1.1" xmlns="http://www.w3.org/2000/svg" width="100%" height="100%" viewBox="0 0 512 192" preserveAspectRatio="xMinYMin none"><title>MovLib, the free movie library.</title><filter id="f"><feGaussianBlur stdDeviation="4.25"></feGaussianBlur></filter><g filter="url(#f)"><polygon fill="#999" points="153.264,181.134 99.349,145.013 45.767,181.827 61.563,120.325 11.891,79.806 76.013,76.696 98.451,16.058 123.343,77.356 185.825,78.683 135.738,119.927"/></g><path fill="#FFCC75" d="M152.408,176.28l-53.916-36.118l-53.581,36.813l15.794-61.502L11.031,74.953l64.122-3.106l22.44-60.64l24.892,61.302l62.483,1.322l-50.088,41.244L152.408,176.28z"/><path fill="#BA6100" d="M44.912,178.007c-0.207,0-0.415-0.063-0.592-0.188c-0.352-0.246-0.516-0.686-0.408-1.104l15.63-60.861L10.379,75.751c-0.332-0.27-0.461-0.717-0.328-1.121c0.134-0.404,0.504-0.688,0.931-0.708l63.44-3.075l22.201-59.998c0.147-0.4,0.525-0.668,0.952-0.676c0.431-0.011,0.812,0.25,0.973,0.646l24.636,60.672l61.804,1.311c0.431,0.01,0.812,0.285,0.954,0.692c0.141,0.407,0.013,0.86-0.32,1.136l-49.564,40.813l17.341,60.555c0.119,0.416-0.033,0.863-0.385,1.117c-0.35,0.256-0.824,0.268-1.181,0.025l-53.335-35.73l-53.004,36.416C45.319,177.944,45.117,178.007,44.912,178.007z M13.771,75.853l47.588,38.82c0.312,0.256,0.447,0.667,0.346,1.059l-15.11,58.834l51.313-35.254c0.348-0.24,0.81-0.242,1.159-0.006l51.575,34.551l-16.748-58.496c-0.114-0.396,0.018-0.818,0.335-1.08l47.937-39.477l-59.699-1.263c-0.413-0.009-0.78-0.261-0.937-0.646L97.639,14.06L76.125,72.204c-0.143,0.389-0.505,0.65-0.918,0.673L13.771,75.853z"/><radialGradient id="i1" cx="7301.7559" cy="14373.1738" r="667.4573" gradientTransform="matrix(0.1445 0 0 0.1377 -918.4862 -1823.0962)" gradientUnits="userSpaceOnUse"><stop offset="0" stop-color="#FF901F"/><stop offset="1" stop-color="#FFB61F"/></radialGradient><path fill="url(#i1)" d="M149.512,172.255l-51.161-37.171l-49.621,37.108l14.414-57.48L16.924,76.407l60.067-2.703l20.494-57.348l23.5,58.431l59.236,0.567L129.4,112.903L149.512,172.255z"/><radialGradient id="i2" cx="10092.5488" cy="1048.6475" r="561.0545" gradientTransform="matrix(0.1411 0.1232 -1.1984 1.3728 -124.2125 -2612.6897)" gradientUnits="userSpaceOnUse"><stop offset="0" stop-color="#FFF"/><stop offset="1" stop-color="#FFF" stop-opacity="0"/></radialGradient><path fill="url(#i2)" d="M54.685,148.585l8.458-33.874L17.064,76.839l59.924-3.027l20.456-57.33l23.64,58.312l34.374,0.381C101.998,88.461,85.827,95.498,54.685,148.585z"/><path fill="#A1A39F" d="M146.003,101.558c0,18.028-21.262,32.614-47.508,32.614c-26.244,0-47.507-14.639-47.507-32.614c0-18.053,21.263-32.613,47.507-32.613C124.743,68.942,146.003,83.582,146.003,101.558z"/><path fill="#6D6F6A" d="M98.497,135.2c-26.707,0-48.535-15.078-48.535-33.643c0-18.568,21.725-33.642,48.535-33.642s48.537,15.073,48.537,33.642C147.033,120.122,125.204,135.2,98.497,135.2z M98.497,69.715c-25.68,0-46.482,14.251-46.482,31.843s20.802,31.846,46.482,31.846c25.681,0,46.481-14.227,46.481-31.846C144.979,83.94,124.175,69.715,98.497,69.715z"/><path fill="#555753" d="M126.23,95.138c0,11.711-12.97,21.211-29.018,21.211c-15.974,0-29.02-9.5-29.02-21.211c0-11.712,12.943-21.212,29.02-21.212c15.92,0,29.018,9.5,29.018,21.313V95.138z"/><radialGradient id="i3" cx="366.8125" cy="1236.1064" r="10.1521" gradientTransform="matrix(3.5918 0 0 3.5918 -1219.3427 -4317.1763)" gradientUnits="userSpaceOnUse"><stop offset="0" stop-color="#767676"/><stop offset="1" stop-color="#484848"/></radialGradient><path fill="url(#i3)" d="M158.846,140.334c0,0-21.365-9.603-35.182-8.396c-14.587,1.287-39.034,2.151-48.537-12.942c40.575,12.222,59.321-8.089,86.8,3.362L158.846,140.334z"/><path fill="#3B3D39" d="M159.872,142.134l-1.506-0.678c-0.198-0.088-21.187-9.451-34.412-8.293c-3.159,0.275-7.962,0.65-13.149,0.65c-18.31,0-30.56-4.775-36.465-14.178l-1.844-2.9l3.288,0.996c8.987,2.695,17.616,4.031,26.449,4.031c8.476,0,15.846-1.197,22.986-2.351c6.368-1.029,12.378-2.005,18.54-2.005c6.805,0,12.842,1.189,18.951,3.75l0.948,0.396l-4.109,20.031L159.872,142.134z M126.23,130.577c11.658,0,26.707,5.933,31.587,7.959l2.695-15.354c-5.47-2.149-10.914-3.162-17.025-3.162c-5.957,0-11.865,0.959-18.129,1.975c-7.243,1.17-14.717,2.384-23.395,2.384c-7.805,0-15.484-1.013-23.395-3.082c6.111,6.651,16.873,10.015,32.1,10.015c5.084,0,9.812-0.365,12.918-0.645h2.823L126.23,130.577z"/><linearGradient id="i4" gradientUnits="userSpaceOnUse" x1="525.0586" y1="1240.1035" x2="528.2686" y2="1249.0914" gradientTransform="matrix(3.044 0 0 3.9468 -1505.5612 -4826.248)"><stop offset="0" stop-color="#888A85"/><stop offset="1" stop-color="#B8B9B6"/></linearGradient><path fill="url(#i4)" d="M127.258,89.229c0,11.56-12.892,20.905-28.762,20.905s-28.761-9.347-28.761-20.905c0-11.555,12.891-20.901,28.761-20.901s28.762,9.245,28.762,20.801V89.229z"/><path fill="#757972" d="M98.497,111.829c-16.77,0-30.302-10.092-30.302-22.498c0-12.4,13.636-22.494,30.302-22.494c16.667,0,30.303,10.094,30.303,22.494c0,12.406-13.611,22.602-30.303,22.602V111.829z M98.497,69.972c-15.023,0-27.221,8.68-27.221,19.313c0,10.658,12.225,19.311,27.221,19.311c14.998,0,27.222-8.68,27.222-19.311c0-10.53-12.325-19.262-27.222-19.262V69.972z"/><path fill="#D3D7CF" d="M98.497,54.358h-0.32c-0.612,0-1.24-0.021-1.846,0c-0.295,0.008-0.588-0.016-0.883,0c-0.195,0.006-0.371-0.012-0.562,0c-24.91,1.334-44.17,16.381-44.17,34.668c0,19.156,21.288,34.666,47.509,34.666c26.219,0,47.509-15.406,47.509-34.666c0-19.262-21.315-34.67-47.509-34.67L98.497,54.358L98.497,54.358z M91.307,59.979c0.162-0.014,0.318,0.01,0.482,0c0.344-0.019,0.693,0,1.043,0c7.499,0,13.558,4.365,13.558,9.709c0,5.34-6.06,9.627-13.558,9.627c-7.5,0-13.56-4.287-13.56-9.627c0-4.623,5.394-8.99,12.071-9.479L91.307,59.979z M73.331,101.069c-8.192,0-14.843-4.726-14.843-10.582c0-5.442,5.675-9.988,13.071-10.579c0.56-0.046,1.188,0,1.767,0c8.192,0,14.843,4.725,14.843,10.579c0,5.855-6.677,10.529-14.894,10.529L73.331,101.069z M103.632,116.479c-9.066,0-16.46-5.289-16.46-11.787c0-5.855,6.061-10.813,13.892-11.713c0.061-0.008,0.101,0.008,0.162,0h0.078c0,0,0.072,0,0.08,0h0.08h0.242h0.078c0.62-0.051,1.207,0,1.848,0c9.065,0,16.46,5.213,16.46,11.713c0,6.498-6.934,11.813-16.177,11.813L103.632,116.479z M122.634,92.338c-7.959,0-14.432-4.571-14.432-10.271c0-5.266,5.624-9.707,12.762-10.35c0.17-0.016,0.309,0.012,0.482,0c0.301-0.02,0.579,0.004,0.885,0c0.127-0.004,0.195,0,0.321,0c7.959,0,14.432,4.648,14.432,10.35c0,5.699-6.42,10.271-14.381,10.271H122.634z"/><path fill="#888A85" d="M98.497,53.071c26.964,0,48.793,16.154,48.793,35.955c0,19.875-21.879,35.951-48.793,35.951c-26.912,0-48.792-16.151-48.792-35.953c0-18.824,19.825-34.666,45.198-35.953H98.497L98.497,53.071z M95.158,55.642c-24.139,1.31-42.885,16.127-42.885,33.385c0,18.463,20.75,33.385,46.224,33.385c25.475,0,46.224-15.023,46.224-33.385c0-18.362-20.75-33.475-46.224-33.475L95.158,55.642z"/><path fill="#888A85" d="M92.847,58.696c8.192,0,14.842,4.932,14.842,10.992c0,6.01-6.65,10.914-14.842,10.914c-8.193,0-14.843-4.904-14.843-10.914c0-5.649,5.675-10.377,13.225-10.992H92.847z M91.563,61.239c-6.189,0.49-10.966,4.186-10.966,8.423c0,4.599,5.495,8.347,12.274,8.347c6.779,0,12.276-3.748,12.276-8.347c0-4.647-5.497-8.423-12.276-8.423H91.563z"/><path fill="#888A85" d="M122.634,70.485c8.731,0,15.667,5.135,15.667,11.556c0,6.367-7.063,11.556-15.718,11.556c-8.653,0-15.716-5.188-15.716-11.556c0-5.907,5.983-10.915,13.919-11.634h1.799L122.634,70.485z M121.094,73.052c-6.575,0.581-11.658,4.571-11.658,9.066c0,4.957,5.906,8.988,13.148,8.988c7.243,0,13.095-3.853,13.095-8.988c0-4.881-5.904-8.989-13.095-8.989h-1.541L121.094,73.052z"/><path fill="#888A85" d="M73.331,78.703c8.885,0,16.127,5.342,16.127,11.862c0,6.522-7.242,11.865-16.127,11.865c-8.886,0-16.127-5.343-16.127-11.865c0-6.111,6.139-11.195,14.252-11.862h1.797H73.331z M71.533,81.271c-6.779,0.559-11.917,4.57-11.917,9.321c0,5.138,6.086,9.298,13.559,9.298c7.474,0,13.559-4.187,13.559-9.298c0-5.11-6.086-9.297-13.559-9.297h-1.54L71.533,81.271z"/><path fill="#888A85" d="M103.632,91.8c9.784,0,17.745,5.83,17.745,12.994c0,7.214-7.961,13.072-17.745,13.072c-9.785,0-17.745-5.856-17.745-13.072c0-6.419,6.446-11.993,15.022-12.994h2.825H103.632L103.632,91.8z M101.321,94.366c-7.37,0.836-12.841,5.314-12.841,10.428c0,5.803,6.806,10.502,15.178,10.502c8.372,0,15.176-4.725,15.176-10.502c0-5.754-6.805-10.428-15.176-10.428h-2.247H101.321L101.321,94.366z"/><linearGradient id="i5" gradientUnits="userSpaceOnUse" x1="392.8848" y1="1296.2197" x2="392.8848" y2="1273.1825" gradientTransform="matrix(3.804 0 0 3.752 -1396.0386 -4743.707)"><stop offset="0" stop-color="#FFF"/><stop offset="1" stop-color="#FFF" stop-opacity="0"/></linearGradient><path fill="url(#i5)" d="M98.497,122.616c-25.486,0-46.224-15.077-46.224-33.535c0-18.53,20.736-33.53,46.224-33.53c25.461,0,46.224,15.077,46.224,33.53C144.721,107.513,124.035,122.616,98.497,122.616z M98.497,58.11c-23.98,0-43.415,13.85-43.415,30.97c0,17.129,19.511,30.978,43.415,30.978c23.981,0,43.415-13.849,43.415-30.978C141.911,71.959,122.502,58.11,98.497,58.11z"/><linearGradient id="i6" gradientUnits="userSpaceOnUse" x1="446.7568" y1="1351.8164" x2="442.9047" y2="1351.1743" gradientTransform="matrix(3.54 0 0 3.54 -1420.5601 -4654.7544)"><stop offset="0" stop-color="#888A85"/><stop offset="1" stop-color="#888A85" stop-opacity="0"/></linearGradient><path fill="url(#i6)" d="M158.382,138.665c-6.704-2.247-10.734-4.031-18.156-5.801l0.853-12.609c5.138-0.518,12.584,0.256,20.288,2.823L158.382,138.665z"/><linearGradient id="i7" gradientUnits="userSpaceOnUse" x1="381.083" y1="1240.585" x2="370.1039" y2="1240.585" gradientTransform="matrix(4 0 0 4 -1371.8594 -4840.1875)"><stop offset="0" stop-color="#FFF"/><stop offset="1" stop-color="#FFF" stop-opacity="0"/></linearGradient><path opacity="0.7" fill="url(#i7)" d="M161.033,124.862c-20.927-7.78-40.3-0.584-60.452,0c27.385-2.312,36.426-9.5,60.968-2.312L161.033,124.862z"/><path fill="#353535" d="M212,105.149V43.937h17.67l14.485,46.811h0.265l16.492-46.811h18.457v61.213h-12.896V76.177c0-1.369,0.022-2.947,0.064-4.732c0.041-1.787,0.495-6.531,1.359-14.235h-0.978l-15.965,47.94h-13.037l-14.73-48.031h-0.385c1.313,9.775,1.969,16.294,1.969,19.561v28.471H212L212,105.149z"/><path fill="#353535" d="M288.999,81.633c0-7.634,1.997-13.579,5.979-17.823c3.991-4.229,9.598-6.35,16.819-6.35c4.479,0,8.437,0.977,11.854,2.924c3.427,1.954,6.058,4.752,7.894,8.408c1.835,3.656,2.757,7.934,2.757,12.841c0,7.636-2.004,13.593-6.018,17.892c-4.004,4.313-9.587,6.461-16.74,6.461c-4.488,0-8.45-0.987-11.876-2.957c-3.435-1.969-6.069-4.801-7.907-8.485C289.92,90.858,288.999,86.554,288.999,81.633z M301.978,81.633c0,4.634,0.764,8.13,2.291,10.495c1.521,2.373,4.006,3.559,7.445,3.559c3.413,0,5.87-1.186,7.361-3.531c1.501-2.356,2.248-5.859,2.248-10.521c0-4.619-0.753-8.095-2.27-10.41c-1.507-2.305-3.983-3.461-7.425-3.461c-3.412,0-5.875,1.145-7.383,3.445C302.733,73.511,301.978,76.985,301.978,81.633z"/><path fill="#353535" d="M338.24,58.34h13.354l9.044,26.671c1.005,3.377,1.635,6.573,1.887,9.588h0.25c0.139-2.68,0.767-5.877,1.884-9.588l9.004-26.671h13.355l-17.837,46.81h-13.105L338.24,58.34z"/><path fill="#353535" d="M394.721,105.149V43.937H407.7v50.41h24.83v10.803H394.721z"/><path fill="#353535" d="M441.616,46.239c0-4.159,2.315-6.238,6.949-6.238c4.635,0,6.952,2.079,6.952,6.238c0,1.98-0.581,3.516-1.738,4.619c-1.158,1.102-2.896,1.66-5.214,1.66C443.933,52.519,441.616,50.426,441.616,46.239z M442.16,105.149V58.339h12.771v46.811H442.16z"/><path fill="#353535" d="M468.329,105.149V40.084H481.1V55.22c0,1.926-0.167,5.004-0.502,9.246h0.502c2.986-4.676,7.411-7.006,13.273-7.006c5.513,0,9.832,2.164,12.95,6.482c3.111,4.32,4.677,10.252,4.677,17.772c0,7.718-1.613,13.692-4.822,17.923c-3.218,4.229-7.6,6.348-13.141,6.348c-5.499,0-9.812-1.994-12.938-5.965h-0.878l-2.136,5.129H468.329L468.329,105.149z M481.1,81.633c0,5.024,0.747,8.612,2.239,10.788c1.494,2.178,3.859,3.266,7.1,3.266c2.622,0,4.711-1.207,6.26-3.613c1.549-2.413,2.322-5.918,2.322-10.522c0-4.594-0.779-8.038-2.344-10.343c-1.563-2.303-3.7-3.445-6.406-3.445c-3.155,0-5.457,0.963-6.908,2.901c-1.453,1.94-2.206,5.136-2.263,9.596V81.633L481.1,81.633z"/><path fill="#656565" d="M212,128.786v-0.881l2.477-0.711l0.788-3.805h0.788v4.065h4.919v1.33h-4.919v10.616c0,1.289,0.226,2.24,0.681,2.857c0.453,0.615,1.166,0.924,2.135,0.924c0.968,0,1.813-0.08,2.535-0.246v1.262c-0.743,0.253-1.597,0.378-2.567,0.378c-1.484,0-2.583-0.396-3.294-1.188c-0.713-0.796-1.065-2.041-1.065-3.742v-10.859H212z"/><path fill="#656565" d="M225.023,144.269v-24.067h1.516v7.657l-0.079,2.15h0.108c0.629-1.012,1.427-1.744,2.385-2.197c0.963-0.453,2.155-0.68,3.581-0.68c3.818,0,5.729,2.047,5.729,6.141v10.996h-1.517v-10.904c0-1.69-0.355-2.92-1.069-3.688c-0.712-0.77-1.817-1.154-3.315-1.154c-2.013,0-3.488,0.511-4.421,1.523c-0.936,1.016-1.401,2.664-1.401,4.943v9.279H225.023L225.023,144.269z"/><path fill="#656565" d="M242.731,135.991c0-2.68,0.658-4.826,1.976-6.439c1.314-1.615,3.086-2.42,5.316-2.42c1.994,0,3.563,0.689,4.715,2.07c1.152,1.383,1.728,3.26,1.728,5.631v1.238H244.31c0.021,2.309,0.56,4.074,1.62,5.289s2.573,1.824,4.547,1.824c0.96,0,1.81-0.066,2.539-0.199c0.729-0.135,1.656-0.424,2.772-0.867v1.393c-0.952,0.412-1.833,0.693-2.641,0.844c-0.808,0.148-1.699,0.224-2.671,0.224c-2.438,0-4.339-0.752-5.7-2.259C243.412,140.815,242.731,138.706,242.731,135.991z M244.402,134.679h10.409c0-1.928-0.424-3.438-1.272-4.523c-0.844-1.088-2.018-1.633-3.516-1.633c-1.622,0-2.92,0.529-3.902,1.584C245.141,131.165,244.565,132.688,244.402,134.679z"/><path fill="#656565" d="M262.898,150.177c0.547,0.162,1.063,0.248,1.547,0.248c0.908,0,1.599-0.273,2.072-0.818c0.475-0.545,0.861-1.498,1.162-2.862l3.791-18.035H268.3l0.216-1.037l3.219-0.215l0.52-2.474c0.354-1.741,0.947-3.01,1.782-3.799c0.833-0.789,2.005-1.184,3.509-1.184c0.752,0,1.607,0.164,2.564,0.49l-0.385,1.258c-0.896-0.279-1.654-0.418-2.272-0.418c-0.989,0-1.781,0.275-2.375,0.828c-0.591,0.549-1.028,1.469-1.306,2.756l-0.537,2.541h3.836l-0.247,1.252h-3.854l-3.883,18.402c-0.334,1.66-0.869,2.873-1.598,3.631c-0.729,0.758-1.732,1.137-3.01,1.137c-0.496,0-1.021-0.104-1.58-0.309V150.177z"/><path fill="#656565" d="M276.557,144.269l3.572-16.813h1.268l-0.459,3.182h0.099c0.749-0.979,1.382-1.682,1.901-2.111c0.512-0.432,1.064-0.766,1.646-1.004c0.58-0.242,1.218-0.36,1.912-0.36c0.71,0,1.343,0.071,1.901,0.217l-0.326,1.47c-0.486-0.154-1.067-0.23-1.748-0.23c-0.973,0-1.895,0.33-2.769,0.988c-0.88,0.658-1.668,1.645-2.37,2.963c-0.705,1.316-1.223,2.744-1.555,4.277l-1.559,7.424h-1.514V144.269z"/><path fill="#656565" d="M288.65,138.159c0-1.865,0.365-3.656,1.099-5.367c0.731-1.713,1.741-3.072,3.022-4.084c1.285-1.01,2.699-1.514,4.246-1.514c1.18,0,2.122,0.313,2.826,0.945c0.702,0.631,1.058,1.489,1.058,2.573c0,1.865-0.848,3.285-2.532,4.263c-1.689,0.977-4.197,1.469-7.521,1.469h-0.512c-0.061,0.453-0.093,0.955-0.093,1.514c0,1.701,0.382,2.998,1.146,3.889c0.766,0.895,1.862,1.338,3.293,1.338c1.36,0,2.784-0.375,4.271-1.127v1.453c-1.445,0.711-2.986,1.066-4.624,1.066c-1.785,0-3.177-0.564-4.177-1.691C289.15,141.755,288.65,140.179,288.65,138.159z M290.555,135.112h0.758c5.328,0,7.995-1.4,7.995-4.197c0-0.693-0.225-1.266-0.673-1.717c-0.449-0.449-1.048-0.676-1.803-0.676c-1.35,0-2.605,0.6-3.766,1.795C291.907,131.517,291.068,133.112,290.555,135.112z"/><path fill="#656565" d="M303.005,138.159c0-1.865,0.364-3.656,1.097-5.367c0.731-1.713,1.74-3.072,3.024-4.084c1.283-1.01,2.699-1.514,4.245-1.514c1.181,0,2.122,0.313,2.825,0.945c0.704,0.631,1.058,1.489,1.058,2.573c0,1.865-0.847,3.285-2.532,4.263c-1.688,0.977-4.196,1.469-7.521,1.469h-0.513c-0.063,0.453-0.094,0.955-0.094,1.514c0,1.701,0.382,2.998,1.146,3.889c0.763,0.895,1.86,1.338,3.295,1.338c1.359,0,2.783-0.375,4.267-1.127v1.453c-1.441,0.711-2.982,1.066-4.623,1.066c-1.783,0-3.177-0.564-4.175-1.691C303.504,141.755,303.005,140.179,303.005,138.159z M304.906,135.112h0.759c5.329,0,7.995-1.4,7.995-4.197c0-0.693-0.225-1.266-0.673-1.717c-0.449-0.449-1.049-0.676-1.803-0.676c-1.35,0-2.605,0.6-3.766,1.795C306.26,131.517,305.421,133.112,304.906,135.112z"/><path fill="#656565" d="M326.821,144.269v-16.813h1.299l0.279,2.305h0.094c0.464-0.836,1.125-1.482,1.979-1.941c0.86-0.457,1.807-0.688,2.836-0.688c2.661,0,4.367,0.996,5.122,2.984h0.063c0.548-0.959,1.282-1.695,2.204-2.211c0.92-0.516,1.97-0.773,3.146-0.773c1.833,0,3.204,0.488,4.123,1.469c0.914,0.979,1.373,2.537,1.373,4.672v10.996h-1.515v-11.029c0-1.639-0.32-2.834-0.957-3.588c-0.64-0.752-1.614-1.129-2.933-1.129c-1.721,0-2.99,0.476-3.815,1.424c-0.821,0.947-1.234,2.439-1.234,4.47v9.854h-1.578v-11.492c0-2.834-1.301-4.254-3.904-4.254c-1.768,0-3.053,0.514-3.856,1.541c-0.807,1.024-1.208,2.666-1.208,4.926v9.279h-1.518V144.269z"/><path fill="#656565" d="M353.811,135.839c0-2.742,0.663-4.881,1.991-6.41c1.322-1.533,3.144-2.297,5.455-2.297c2.304,0,4.109,0.777,5.42,2.326c1.313,1.553,1.967,3.68,1.967,6.381c0,2.744-0.662,4.885-1.991,6.428c-1.324,1.539-3.153,2.312-5.486,2.312c-1.47,0-2.766-0.354-3.886-1.065c-1.121-0.714-1.979-1.732-2.574-3.063C354.109,139.118,353.811,137.581,353.811,135.839z M355.39,135.839c0,2.311,0.507,4.113,1.525,5.406c1.016,1.295,2.454,1.939,4.311,1.939c1.859,0,3.299-0.646,4.313-1.939c1.019-1.293,1.526-3.096,1.526-5.406c0-2.32-0.514-4.119-1.54-5.398c-1.027-1.276-2.471-1.918-4.327-1.918c-1.859,0-3.292,0.638-4.299,1.91C355.893,131.706,355.39,133.509,355.39,135.839z"/><path fill="#656565" d="M370.53,127.456h1.577l4.346,11.441c0.577,1.465,1.01,2.746,1.3,3.84h0.093c0.423-1.402,0.854-2.693,1.3-3.871l4.346-11.41h1.578l-6.496,16.813h-1.547L370.53,127.456z"/><path fill="#656565" d="M387.667,122.784c0-0.988,0.28-1.484,0.844-1.484c0.361,0,0.644,0.131,0.848,0.387c0.202,0.258,0.303,0.623,0.303,1.099c0,0.465-0.101,0.831-0.303,1.1c-0.204,0.271-0.485,0.402-0.848,0.402C387.947,124.286,387.667,123.786,387.667,122.784z M387.883,144.269v-16.813h1.3v16.813H387.883z"/><path fill="#656565" d="M394.07,135.991c0-2.68,0.655-4.826,1.974-6.439c1.315-1.615,3.088-2.42,5.317-2.42c1.993,0,3.563,0.689,4.717,2.07c1.149,1.383,1.726,3.26,1.726,5.631v1.238h-12.156c0.021,2.309,0.56,4.074,1.617,5.289c1.061,1.215,2.574,1.824,4.55,1.824c0.96,0,1.808-0.066,2.537-0.199c0.73-0.135,1.654-0.424,2.774-0.867v1.393c-0.953,0.412-1.833,0.693-2.643,0.844c-0.808,0.148-1.698,0.224-2.67,0.224c-2.44,0-4.34-0.752-5.699-2.259C394.75,140.815,394.07,138.706,394.07,135.991z M395.738,134.679h10.409c0-1.928-0.423-3.438-1.271-4.523c-0.845-1.088-2.019-1.633-3.516-1.633c-1.621,0-2.921,0.529-3.902,1.584C396.477,131.165,395.903,132.688,395.738,134.679z"/><path fill="#656565" d="M420.655,144.269v-24.067h1.516v24.067H420.655z"/><path fill="#656565" d="M427.599,122.784c0-0.988,0.282-1.484,0.848-1.484c0.36,0,0.643,0.131,0.846,0.387c0.204,0.258,0.304,0.623,0.304,1.099c0,0.465-0.1,0.831-0.304,1.1c-0.203,0.271-0.484,0.402-0.846,0.402C427.881,124.286,427.599,123.786,427.599,122.784z M427.817,144.269v-16.813h1.298v16.813H427.817z"/><path fill="#656565" d="M434.978,144.269v-24.067h1.519v6.047c0,0.907-0.022,1.741-0.064,2.506l-0.046,1.313h0.11c0.638-1.01,1.411-1.75,2.313-2.225c0.905-0.475,1.99-0.711,3.263-0.711c2.362,0,4.146,0.736,5.342,2.217c1.198,1.476,1.794,3.635,1.794,6.476c0,2.799-0.626,4.959-1.887,6.475c-1.263,1.521-3.031,2.279-5.312,2.279c-1.199,0-2.274-0.25-3.238-0.75c-0.957-0.498-1.72-1.207-2.273-2.123h-0.126l-0.386,2.563H434.978L434.978,144.269z M436.495,136.087c0,2.531,0.444,4.346,1.339,5.447c0.893,1.104,2.284,1.65,4.174,1.65c1.837,0,3.222-0.638,4.149-1.92c0.932-1.281,1.395-3.105,1.395-5.474c0-4.847-1.838-7.271-5.514-7.271c-1.98,0-3.4,0.568-4.26,1.699c-0.857,1.131-1.283,2.998-1.283,5.602V136.087L436.495,136.087z"/><path fill="#656565" d="M453.832,144.269v-16.813h1.297l0.146,3.018h0.104c0.693-1.229,1.43-2.098,2.214-2.596c0.782-0.498,1.731-0.746,2.844-0.746c0.714,0,1.477,0.072,2.289,0.217l-0.292,1.453c-0.701-0.186-1.429-0.279-2.183-0.279c-1.433,0-2.607,0.613-3.524,1.828c-0.918,1.219-1.377,2.762-1.377,4.621v9.297H453.832L453.832,144.269z"/><path fill="#656565" d="M464.858,139.798c0-1.639,0.684-2.912,2.052-3.818c1.37-0.908,3.35-1.389,5.938-1.44l3.208-0.093v-1.112c0-1.597-0.324-2.806-0.973-3.617c-0.648-0.815-1.691-1.223-3.134-1.223c-1.556,0-3.169,0.432-4.833,1.299l-0.574-1.33c1.846-0.864,3.666-1.301,5.47-1.301c1.843,0,3.218,0.479,4.132,1.438c0.909,0.959,1.366,2.455,1.366,4.486v11.182h-1.13l-0.387-2.66h-0.124c-0.843,1.082-1.71,1.849-2.602,2.297c-0.892,0.449-1.942,0.673-3.156,0.673c-1.658,0-2.949-0.423-3.869-1.269C465.318,142.464,464.858,141.294,464.858,139.798z M466.513,139.86c0,1.051,0.324,1.869,0.967,2.453c0.643,0.582,1.552,0.871,2.728,0.871c1.791,0,3.203-0.515,4.237-1.539c1.033-1.025,1.551-2.451,1.551-4.275v-1.654l-2.932,0.123c-2.361,0.113-4.041,0.482-5.045,1.107C467.017,137.569,466.513,138.54,466.513,139.86z"/><path fill="#656565" d="M482.938,144.269v-16.813h1.3l0.144,3.018h0.105c0.688-1.229,1.426-2.098,2.21-2.596s1.73-0.746,2.846-0.746c0.712,0,1.475,0.072,2.288,0.217l-0.293,1.453c-0.701-0.186-1.429-0.279-2.181-0.279c-1.435,0-2.608,0.613-3.527,1.828c-0.917,1.219-1.377,2.762-1.377,4.621v9.297H482.938L482.938,144.269z"/><path fill="#656565" d="M492.451,127.456h1.577l3.558,9.443c1.081,2.896,1.769,4.854,2.058,5.86h0.094c0.433-1.327,1.139-3.313,2.115-5.957l3.561-9.348h1.577l-7.533,19.534c-0.607,1.589-1.119,2.658-1.53,3.218c-0.413,0.556-0.894,0.976-1.444,1.252c-0.553,0.278-1.223,0.418-2.005,0.418c-0.588,0-1.239-0.104-1.964-0.31v-1.332c0.6,0.166,1.242,0.25,1.933,0.25c0.525,0,0.992-0.125,1.394-0.373c0.401-0.245,0.767-0.631,1.09-1.149c0.324-0.524,0.702-1.351,1.129-2.479c0.429-1.129,0.705-1.866,0.827-2.205L492.451,127.456z"/><path fill="#656565" d="M509.495,143.085c0-0.996,0.411-1.492,1.236-1.492c0.844,0,1.269,0.496,1.269,1.492c0,0.992-0.425,1.492-1.269,1.492C509.906,144.577,509.495,144.077,509.495,143.085z"/></svg>